{
.appVersion = "1342";
DisplayStrings = (
"/wasmall-kata.vert"
);
copyright = "Copyright 2021 The Zen Kaku Gothic Project Authors (https://github.com/googlefonts/zen-kakugothic)";
customParameters = (
{
name = license;
value = "This Font Software is licensed under the SIL Open Font License, Version 1.1. This license is available with a FAQ at: https://scripts.sil.org/OFL";
},
{
name = licenseURL;
value = "https://scripts.sil.org/OFL";
},
{
name = fsType;
value = (
);
},
{
name = vendorID;
value = "ZEN!";
}
);
date = "2020-03-17 07:43:43 +0000";
designer = "Yoshimichi Ohira";
designerURL = "https://www.zenfont.jp";
disablesAutomaticAlignment = 1;
familyName = "Zen Kaku Gothic New";
fontMaster = (
{
alignmentZones = (
"{860, 11}",
"{700, 11}",
"{478, 11}",
"{0, -11}",
"{-140, -11}"
);
ascender = 860;
capHeight = 700;
customParameters = (
{
name = typoAscender;
value = 880;
},
{
name = typoDescender;
value = -120;
},
{
name = typoLineGap;
value = 0;
},
{
name = winAscent;
value = 1160;
},
{
name = winDescent;
value = 288;
},
{
name = underlineThickness;
value = 20;
},
{
name = underlinePosition;
value = -133;
},
{
name = hheaAscender;
value = 1160;
},
{
name = hheaDescender;
value = -288;
},
{
name = hheaLineGap;
value = 0;
},
{
name = vheaVertLineGap;
value = 0;
}
);
descender = -140;
guideLines = (
{
name = m;
position = "{0, 250}";
}
);
horizontalStems = (
34,
35
);
id = "34DF84D2-5107-44DD-934E-BD8E209466D9";
verticalStems = (
34,
35
);
weight = Light;
weightValue = 300;
xHeight = 478;
},
{
alignmentZones = (
"{860, 11}",
"{700, 11}",
"{479, 11}",
"{0, -11}",
"{-140, -11}"
);
ascender = 860;
capHeight = 700;
customParameters = (
{
name = typoAscender;
value = 880;
},
{
name = typoDescender;
value = -120;
},
{
name = typoLineGap;
value = 0;
},
{
name = winAscent;
value = 1160;
},
{
name = winDescent;
value = 288;
},
{
name = underlineThickness;
value = 20;
},
{
name = underlinePosition;
value = -133;
},
{
name = hheaAscender;
value = 1160;
},
{

glyphs = (
{
glyphname = "a-hira";
lastChange = "2021-05-17 22:56:00 +0000";
layers = (
{
layerId = master01;
paths = (
{
closed = 1;
nodes = (
"747 -7 OFFCURVE",
"869 100 OFFCURVE",
"869 253 CURVE SMOOTH",
"869 373 OFFCURVE",
"788 448 OFFCURVE",
"671 478 CURVE",
"682 501 OFFCURVE",
"692 525 OFFCURVE",
"701 549 CURVE",
"644 567 LINE",
"634 540 OFFCURVE",
"623 514 OFFCURVE",
"612 489 CURVE",
"590 491 OFFCURVE",
"568 492 OFFCURVE",
"545 492 CURVE SMOOTH",
"509 492 OFFCURVE",
"474 488 OFFCURVE",
"440 480 CURVE",
"441 524 OFFCURVE",
"443 568 OFFCURVE",
"447 610 CURVE",
"553 620 OFFCURVE",
"660 636 OFFCURVE",
"727 656 CURVE",
"717 714 LINE",
"656 694 OFFCURVE",
"555 678 OFFCURVE",
"453 667 CURVE",
"459 716 OFFCURVE",
"467 761 OFFCURVE",
"476 799 CURVE",
"414 811 LINE",
"405 769 OFFCURVE",
"398 718 OFFCURVE",
"392 662 CURVE",
"296 654 OFFCURVE",
"206 652 OFFCURVE",
"154 657 CURVE",
"161 596 LINE",
"212 594 OFFCURVE",
"296 597 OFFCURVE",
"387 604 CURVE",
"383 558 OFFCURVE",
"381 510 OFFCURVE",
"381 461 CURVE",
"234 404 OFFCURVE",
"126 275 OFFCURVE",
"126 132 CURVE SMOOTH",
"126 58 OFFCURVE",
"167 33 OFFCURVE",
"198 28 CURVE SMOOTH",
"256 18 OFFCURVE",
"336 53 OFFCURVE",
"417 123 CURVE",
"423 100 OFFCURVE",
"431 79 OFFCURVE",
"439 59 CURVE",
"451 67 OFFCURVE",
"481 80 OFFCURVE",
"498 84 CURVE",
"487 111 OFFCURVE",
"477 141 OFFCURVE",
"469 173 CURVE",
"533 239 OFFCURVE",
"595 326 OFFCURVE",
"647 428 CURVE",
"743 405 OFFCURVE",
"804 347 OFFCURVE",
"804 254 CURVE SMOOTH",
"804 131 OFFCURVE",
"697 38 OFFCURVE",
"520 10 CURVE",
"534 -4 OFFCURVE",
"546 -30 OFFCURVE",
"550 -46 CURVE"
);
},
{
closed = 1;
nodes = (
"230 80 OFFCURVE",
"187 78 OFFCURVE",
"187 140 CURVE SMOOTH",
"187 251 OFFCURVE",
"269 352 OFFCURVE",
"381 403 CURVE",
"383 328 OFFCURVE",
"389 255 OFFCURVE",
"402 188 CURVE",
"357 146 OFFCURVE",
"315 117 OFFCURVE",
"280 102 CURVE SMOOTH"
);
},
{
closed = 1;
nodes = (
"446 301 OFFCURVE",
"442 362 OFFCURVE",
"440 424 CURVE",
"474 434 OFFCURVE",
"509 439 OFFCURVE",
"545 439 CURVE SMOOTH",
"559 439 OFFCURVE",
"573 438 OFFCURVE",
"587 437 CURVE",
"547 361 OFFCURVE",
"501 296 OFFCURVE",
"455 243 CURVE"
);
}
);
width = 1000;
},
{
layerId = "34DF84D2-5107-44DD-934E-BD8E209466D9";
paths = (
{
closed = 1;
nodes = (
"738 5 OFFCURVE",
"858 109 OFFCURVE",
"858 253 CURVE SMOOTH",
"858 380 OFFCURVE",
"769 449 OFFCURVE",
"647 473 CURVE",
"658 496 OFFCURVE",
"668 520 OFFCURVE",
"678 545 CURVE",
"646 558 LINE",
"635 530 OFFCURVE",
"624 504 OFFCURVE",
"612 478 CURVE",
"589 481 OFFCURVE",
"565 482 OFFCURVE",
"541 482 CURVE SMOOTH",
"503 482 OFFCURVE",
"466 477 OFFCURVE",
"430 467 CURVE",
"431 518 OFFCURVE",
"434 568 OFFCURVE",
"438 615 CURVE",
"544 625 OFFCURVE",
"652 641 OFFCURVE",
"719 660 CURVE",
"709 694 LINE",
"650 676 OFFCURVE",
"546 660 OFFCURVE",
"442 650 CURVE",
"448 705 OFFCURVE",
"456 756 OFFCURVE",
"466 797 CURVE",
"428 804 LINE",
"420 760 OFFCURVE",
"412 706 OFFCURVE",
"406 646 CURVE",
"304 637 OFFCURVE",
"207 633 OFFCURVE",
"157 638 CURVE",
"163 601 LINE",
"216 599 OFFCURVE",
"307 603 OFFCURVE",
"403 612 CURVE",
"399 562 OFFCURVE",
"396 509 OFFCURVE",
"395 456 CURVE",
"247 401 OFFCURVE",
"136 268 OFFCURVE",
"136 126 CURVE SMOOTH",
"136 57 OFFCURVE",
"175 40 OFFCURVE",
"198 35 CURVE SMOOTH",
"252 25 OFFCURVE",
"336 67 OFFCURVE",
"423 150 CURVE",
"430 121 OFFCURVE",
"438 94 OFFCURVE",
"448 70 CURVE",
"454 75 OFFCURVE",
"473 82 OFFCURVE",
"484 84 CURVE",
"472 112 OFFCURVE",
"462 146 OFFCURVE",
"454 182 CURVE",
"517 249 OFFCURVE",
"580 337 OFFCURVE",
"632 442 CURVE",
"746 422 OFFCURVE",
"822 361 OFFCURVE",
"822 253 CURVE SMOOTH",
"822 125 OFFCURVE",
"703 25 OFFCURVE",
"520 -5 CURVE",
"530 -13 OFFCURVE",
"540 -28 OFFCURVE",
"542 -38 CURVE"
);
},
{
closed = 1;
nodes = (
"226 61 OFFCURVE",
"172 56 OFFCURVE",
"172 126 CURVE SMOOTH",
"172 257 OFFCURVE",
"269 369 OFFCURVE",
"395 420 CURVE",
"396 340 OFFCURVE",
"402 260 OFFCURVE",
"415 189 CURVE",
"368 142 OFFCURVE",
"323 108 OFFCURVE",
"283 88 CURVE SMOOTH"
);
},
{
closed = 1;
nodes = (
"436 288 OFFCURVE",
"431 360 OFFCURVE",
"430 433 CURVE",
"466 443 OFFCURVE",
"503 449 OFFCURVE",
"541 449 CURVE SMOOTH",
"560 449 OFFCURVE",
"579 448 OFFCURVE",
"597 447 CURVE",
"552 358 OFFCURVE",
"499 282 OFFCURVE",
"446 223 CURVE"
);
}
);
width = 1000;
},
{
layerId = "5617B79D-1A8B-4E71-B6B7-038AD2857106";
paths = (
{
closed = 1;
nodes = (
"756 -20 OFFCURVE",
"879 91 OFFCURVE",
"879 253 CURVE SMOOTH",
"879 367 OFFCURVE",
"807 446 OFFCURVE",
"695 481 CURVE",
"706 505 OFFCURVE",
"715 529 OFFCURVE",
"724 553 CURVE",
"641 577 LINE",
"632 550 OFFCURVE",
"622 524 OFFCURVE",
"611 499 CURVE",
"591 501 OFFCURVE",
"570 503 OFFCURVE",
"549 503 CURVE SMOOTH",
"515 503 OFFCURVE",
"482 499 OFFCURVE",
"450 492 CURVE",
"451 530 OFFCURVE",
"453 568 OFFCURVE",
"456 604 CURVE",
"562 615 OFFCURVE",
"668 632 OFFCURVE",
"735 652 CURVE",
"725 733 LINE",
"663 712 OFFCURVE",
"565 696 OFFCURVE",
"465 685 CURVE",
"470 727 OFFCURVE",
"477 766 OFFCURVE",
"485 802 CURVE",
"399 818 LINE",
"391 777 OFFCURVE",
"384 729 OFFCURVE",
"378 677 CURVE",
"288 671 OFFCURVE",
"203 671 OFFCURVE",
"152 677 CURVE",
"160 592 LINE",
"207 588 OFFCURVE",
"285 590 OFFCURVE",
"371 597 CURVE",
"368 555 OFFCURVE",
"366 511 OFFCURVE",
"366 466 CURVE",
"222 407 OFFCURVE",
"116 282 OFFCURVE",
"116 138 CURVE SMOOTH",
"116 58 OFFCURVE",
"160 27 OFFCURVE",
"198 21 CURVE SMOOTH",
"259 12 OFFCURVE",
"335 40 OFFCURVE",
"411 99 CURVE",
"417 81 OFFCURVE",
"423 64 OFFCURVE",
"430 47 CURVE",
"447 60 OFFCURVE",
"488 78 OFFCURVE",
"512 84 CURVE",
"501 109 OFFCURVE",
"492 136 OFFCURVE",
"484 164 CURVE",
"549 229 OFFCURVE",
"610 314 OFFCURVE",
"662 412 CURVE",
"739 387 OFFCURVE",
"786 333 OFFCURVE",
"786 254 CURVE SMOOTH",
"786 137 OFFCURVE",
"691 50 OFFCURVE",
"519 26 CURVE",
"537 5 OFFCURVE",
"553 -32 OFFCURVE",
"558 -53 CURVE"
);
},
{
closed = 1;
nodes = (
"234 100 OFFCURVE",
"202 101 OFFCURVE",
"202 153 CURVE SMOOTH",
"202 247 OFFCURVE",
"269 334 OFFCURVE",
"367 385 CURVE",
"370 317 OFFCURVE",
"377 250 OFFCURVE",
"389 188 CURVE",
"346 151 OFFCURVE",
"307 126 OFFCURVE",
"276 115 CURVE SMOOTH"
);
},
{
closed = 1;
nodes = (
"457 312 OFFCURVE",
"452 364 OFFCURVE",
"451 416 CURVE",
"482 424 OFFCURVE",
"515 428 OFFCURVE",
"549 428 CURVE SMOOTH",
"558 428 OFFCURVE",
"568 428 OFFCURVE",
"577 427 CURVE",
"543 364 OFFCURVE",
"503 309 OFFCURVE",
"464 263 CURVE"
);
}
);
width = 1000;
},
{
layerId = "542E90B0-D43E-4A29-B40D-A2B642C3CEF5";
paths = (
{
closed = 1;
nodes = (
"774 -44 OFFCURVE",
"900 73 OFFCURVE",
"900 253 CURVE SMOOTH",
"900 355 OFFCURVE",
"841 440 OFFCURVE",
"741 486 CURVE",
"752 510 OFFCURVE",
"762 535 OFFCURVE",
"771 561 CURVE",
"637 597 LINE",
"629 570 OFFCURVE",
"620 545 OFFCURVE",
"611 520 CURVE",
"593 522 OFFCURVE",
"575 523 OFFCURVE",
"557 523 CURVE SMOOTH",
"527 523 OFFCURVE",
"498 520 OFFCURVE",
"470 516 CURVE",
"471 542 OFFCURVE",
"472 568 OFFCURVE",
"474 594 CURVE",
"580 605 OFFCURVE",
"685 623 OFFCURVE",
"752 645 CURVE",
"740 773 LINE",
"677 749 OFFCURVE",
"584 731 OFFCURVE",
"489 721 CURVE",
"493 750 OFFCURVE",
"499 779 OFFCURVE",
"505 807 CURVE",
"369 832 LINE",
"362 795 OFFCURVE",
"356 754 OFFCURVE",
"350 710 CURVE",
"271 707 OFFCURVE",
"198 709 OFFCURVE",
"147 716 CURVE",
"156 583 LINE",
"199 578 OFFCURVE",
"265 578 OFFCURVE",
"339 583 CURVE",
"337 548 OFFCURVE",
"336 512 OFFCURVE",
"336 477 CURVE",
"196 415 OFFCURVE",
"95 296 OFFCURVE",
"95 150 CURVE SMOOTH",
"95 59 OFFCURVE",
"146 14 OFFCURVE",
"197 7 CURVE SMOOTH",
"261 -2 OFFCURVE",
"330 17 OFFCURVE",
"398 57 CURVE",
"402 46 OFFCURVE",
"407 35 OFFCURVE",
"412 25 CURVE",
"439 44 OFFCURVE",
"502 74 OFFCURVE",
"540 85 CURVE",
"531 105 OFFCURVE",
"523 127 OFFCURVE",
"516 149 CURVE",
"578 209 OFFCURVE",
"637 286 OFFCURVE",
"686 374 CURVE",
"727 347 OFFCURVE",
"750 306 OFFCURVE",
"750 255 CURVE SMOOTH",
"750 148 OFFCURVE",
"680 76 OFFCURVE",
"517 56 CURVE",
"544 23 OFFCURVE",
"566 -35 OFFCURVE",
"573 -69 CURVE"
);
},
{
closed = 1;
nodes = (
"243 137 OFFCURVE",
"232 146 OFFCURVE",
"232 179 CURVE SMOOTH",
"232 241 OFFCURVE",
"274 303 OFFCURVE",
"341 346 CURVE",
"345 292 OFFCURVE",
"352 239 OFFCURVE",
"362 188 CURVE",
"325 162 OFFCURVE",
"293 146 OFFCURVE",
"270 142 CURVE SMOOTH"
);
},
{
closed = 1;
nodes = (
"477 334 OFFCURVE",
"474 366 OFFCURVE",
"472 399 CURVE",
"498 404 OFFCURVE",
"526 407 OFFCURVE",
"555 407 CURVE",
"532 368 OFFCURVE",
"507 333 OFFCURVE",
"481 302 CURVE"
);
}
);
width = 1000;
},
{
layerId = "98035891-75EF-42AC-A061-1C72A0965E4A";
paths = (
{
closed = 1;
nodes = (
"765 -32 OFFCURVE",
"889 82 OFFCURVE",
"889 253 CURVE SMOOTH",
"889 361 OFFCURVE",
"824 443 OFFCURVE",
"719 484 CURVE",
"729 508 OFFCURVE",
"739 532 OFFCURVE",
"748 557 CURVE",
"639 587 LINE",
"631 560 OFFCURVE",
"621 534 OFFCURVE",
"611 509 CURVE",
"592 511 OFFCURVE",
"573 513 OFFCURVE",
"553 513 CURVE SMOOTH",
"521 513 OFFCURVE",
"490 510 OFFCURVE",
"460 504 CURVE",
"461 536 OFFCURVE",
"462 568 OFFCURVE",
"465 599 CURVE",
"571 610 OFFCURVE",
"676 628 OFFCURVE",
"743 648 CURVE",
"733 753 LINE",
"670 731 OFFCURVE",
"575 713 OFFCURVE",
"477 703 CURVE",
"482 739 OFFCURVE",
"488 773 OFFCURVE",
"495 804 CURVE",
"384 825 LINE",
"376 786 OFFCURVE",
"370 742 OFFCURVE",
"364 694 CURVE",
"279 689 OFFCURVE",
"201 690 OFFCURVE",
"149 696 CURVE",
"158 588 LINE",
"203 583 OFFCURVE",
"275 584 OFFCURVE",
"355 590 CURVE",
"353 551 OFFCURVE",
"351 512 OFFCURVE",
"351 472 CURVE",
"209 411 OFFCURVE",
"105 289 OFFCURVE",
"105 144 CURVE SMOOTH",
"105 59 OFFCURVE",
"153 20 OFFCURVE",
"197 14 CURVE SMOOTH",
"261 5 OFFCURVE",
"333 28 OFFCURVE",
"405 77 CURVE",
"410 63 OFFCURVE",
"415 49 OFFCURVE",
"421 36 CURVE",
"443 52 OFFCURVE",
"495 76 OFFCURVE",
"526 85 CURVE",
"516 107 OFFCURVE",
"508 131 OFFCURVE",
"500 156 CURVE",
"564 219 OFFCURVE",
"624 301 OFFCURVE",
"675 395 CURVE",
"734 368 OFFCURVE",
"768 320 OFFCURVE",
"768 254 CURVE SMOOTH",
"768 143 OFFCURVE",
"686 63 OFFCURVE",
"518 41 CURVE",
"541 14 OFFCURVE",
"559 -34 OFFCURVE",
"565 -61 CURVE"
);
},
{
closed = 1;
nodes = (
"238 119 OFFCURVE",
"217 124 OFFCURVE",
"217 166 CURVE SMOOTH",
"217 243 OFFCURVE",
"271 318 OFFCURVE",
"354 366 CURVE",
"357 305 OFFCURVE",
"364 244 OFFCURVE",
"375 188 CURVE",
"336 156 OFFCURVE",
"300 136 OFFCURVE",
"273 129 CURVE SMOOTH"
);
},
{
closed = 1;
nodes = (
"467 324 OFFCURVE",
"463 365 OFFCURVE",
"461 408 CURVE",
"490 414 OFFCURVE",
"521 418 OFFCURVE",
"553 418 CURVE SMOOTH",
"557 418 OFFCURVE",
"562 418 OFFCURVE",
"566 418 CURVE",
"538 367 OFFCURVE",
"505 322 OFFCURVE",
"473 283 CURVE"
);
}
);
userData = {
com.schriftgestaltung.Glyphs.lastChange = "2020-03-22 07:45:29 +0000";
};
width = 1000;
}
);
unicode = 3042;
},
{
glyphname = "asmall-hira";
lastChange = "2021-05-17 22:56:00 +0000";
layers = (
{
layerId = master01;
paths = (
{
closed = 1;
nodes = (
"686 -23 OFFCURVE",
"786 57 OFFCURVE",
"786 174 CURVE SMOOTH",
"786 264 OFFCURVE",
"725 325 OFFCURVE",
"636 350 CURVE",
"643 365 OFFCURVE",
"650 381 OFFCURVE",
"656 397 CURVE",
"605 412 LINE",
"599 394 OFFCURVE",
"593 377 OFFCURVE",
"586 360 CURVE",
"570 362 OFFCURVE",
"554 363 OFFCURVE",
"538 363 CURVE SMOOTH",
"511 363 OFFCURVE",
"484 359 OFFCURVE",
"458 353 CURVE",
"459 384 OFFCURVE",
"461 414 OFFCURVE",
"463 443 CURVE",
"543 452 OFFCURVE",
"623 464 OFFCURVE",
"672 478 CURVE",
"665 525 LINE",
"619 511 OFFCURVE",
"544 498 OFFCURVE",
"468 491 CURVE",
"473 526 OFFCURVE",
"478 559 OFFCURVE",
"485 587 CURVE",
"432 597 LINE",
"426 565 OFFCURVE",
"420 527 OFFCURVE",
"416 486 CURVE",
"345 480 OFFCURVE",
"278 479 OFFCURVE",
"239 483 CURVE",
"245 433 LINE",
"282 431 OFFCURVE",
"344 433 OFFCURVE",
"412 439 CURVE",
"409 406 OFFCURVE",
"408 371 OFFCURVE",
"407 336 CURVE",
"296 290 OFFCURVE",
"210 191 OFFCURVE",
"210 84 CURVE SMOOTH",
"210 27 OFFCURVE",
"243 7 OFFCURVE",
"266 3 CURVE SMOOTH",
"311 -4 OFFCURVE",
"373 22 OFFCURVE",
"435 74 CURVE",
"440 57 OFFCURVE",
"445 42 OFFCURVE",
"451 27 CURVE",
"461 34 OFFCURVE",
"488 46 OFFCURVE",
"502 49 CURVE",
"494 69 OFFCURVE",
"486 91 OFFCURVE",
"480 116 CURVE",
"530 166 OFFCURVE",
"578 231 OFFCURVE",
"616 308 CURVE",
"686 289 OFFCURVE",
"732 243 OFFCURVE",
"732 174 CURVE SMOOTH",
"732 83 OFFCURVE",
"642 14 OFFCURVE",
"511 -5 CURVE",
"522 -17 OFFCURVE",
"534 -38 OFFCURVE",
"538 -51 CURVE"
);
},
{
closed = 1;
nodes = (
"291 48 OFFCURVE",
"261 46 OFFCURVE",
"261 91 CURVE SMOOTH",
"261 171 OFFCURVE",
"324 246 OFFCURVE",
"407 287 CURVE",
"409 232 OFFCURVE",
"413 177 OFFCURVE",
"423 127 CURVE",
"388 96 OFFCURVE",
"354 75 OFFCURVE",
"327 63 CURVE SMOOTH"
);
},
{
closed = 1;
nodes = (
"463 216 OFFCURVE",
"459 261 OFFCURVE",
"458 306 CURVE",
"484 314 OFFCURVE",
"511 318 OFFCURVE",
"538 318 CURVE SMOOTH",
"547 318 OFFCURVE",
"557 317 OFFCURVE",
"566 317 CURVE",
"537 260 OFFCURVE",
"503 212 OFFCURVE",
"469 174 CURVE"
);
}
);
width = 1000;
},
{
layerId = "34DF84D2-5107-44DD-934E-BD8E209466D9";
paths = (
{
closed = 1;
nodes = (
"680 -13 OFFCURVE",
"776 63 OFFCURVE",
"776 173 CURVE SMOOTH",
"776 268 OFFCURVE",
"710 327 OFFCURVE",
"618 348 CURVE",
"625 363 OFFCURVE",
"632 379 OFFCURVE",
"638 395 CURVE",
"608 406 LINE",
"601 388 OFFCURVE",
"594 370 OFFCURVE",
"586 353 CURVE",
"570 355 OFFCURVE",
"554 356 OFFCURVE",
"537 356 CURVE SMOOTH",
"507 356 OFFCURVE",
"478 352 OFFCURVE",
"450 344 CURVE",
"451 379 OFFCURVE",
"453 413 OFFCURVE",
"456 446 CURVE",
"535 454 OFFCURVE",
"616 466 OFFCURVE",
"666 480 CURVE",
"659 510 LINE",
"614 496 OFFCURVE",
"537 484 OFFCURVE",
"459 476 CURVE",
"463 517 OFFCURVE",
"470 554 OFFCURVE",
"477 584 CURVE",
"443 590 LINE",
"437 558 OFFCURVE",
"431 518 OFFCURVE",
"427 473 CURVE",
"351 467 OFFCURVE",
"280 464 OFFCURVE",
"242 468 CURVE",
"247 435 LINE",
"286 434 OFFCURVE",
"353 437 OFFCURVE",
"424 443 CURVE",
"421 408 OFFCURVE",
"419 371 OFFCURVE",
"418 333 CURVE",
"306 289 OFFCURVE",
"219 187 OFFCURVE",
"219 81 CURVE SMOOTH",
"219 29 OFFCURVE",
"249 14 OFFCURVE",
"268 10 CURVE SMOOTH",
"310 3 OFFCURVE",
"374 34 OFFCURVE",
"440 95 CURVE",
"445 73 OFFCURVE",
"452 54 OFFCURVE",
"459 36 CURVE",
"465 40 OFFCURVE",
"482 47 OFFCURVE",
"491 49 CURVE",
"482 70 OFFCURVE",
"474 95 OFFCURVE",
"468 122 CURVE",
"517 174 OFFCURVE",
"566 241 OFFCURVE",
"605 320 CURVE",
"688 303 OFFCURVE",
"744 252 OFFCURVE",
"744 173 CURVE SMOOTH",
"744 78 OFFCURVE",
"649 7 OFFCURVE",
"514 -15 CURVE",
"522 -22 OFFCURVE",
"530 -36 OFFCURVE",
"532 -44 CURVE"
);
},
{
closed = 1;
nodes = (
"290 35 OFFCURVE",
"252 32 OFFCURVE",
"252 83 CURVE SMOOTH",
"252 176 OFFCURVE",
"325 261 OFFCURVE",
"418 302 CURVE",
"419 242 OFFCURVE",
"423 182 OFFCURVE",
"433 129 CURVE",
"396 94 OFFCURVE",
"361 69 OFFCURVE",
"331 55 CURVE SMOOTH"
);
},
{
closed = 1;
nodes = (
"454 207 OFFCURVE",
"450 260 OFFCURVE",
"450 313 CURVE",
"478 322 OFFCURVE",
"507 327 OFFCURVE",
"537 327 CURVE SMOOTH",
"549 327 OFFCURVE",
"561 327 OFFCURVE",
"573 325 CURVE",
"541 259 OFFCURVE",
"501 203 OFFCURVE",
"461 159 CURVE"
);
}
);
width = 1000;
},
{
layerId = "5617B79D-1A8B-4E71-B6B7-038AD2857106";
paths = (
{
closed = 1;
nodes = (
"693 -33 OFFCURVE",
"795 52 OFFCURVE",
"795 175 CURVE SMOOTH",
"795 260 OFFCURVE",
"739 323 OFFCURVE",
"655 351 CURVE",
"661 367 OFFCURVE",
"668 383 OFFCURVE",
"673 399 CURVE",
"603 418 LINE",
"598 400 OFFCURVE",
"592 383 OFFCURVE",
"585 367 CURVE",
"570 368 OFFCURVE",
"555 369 OFFCURVE",
"539 369 CURVE SMOOTH",
"515 369 OFFCURVE",
"491 367 OFFCURVE",
"467 362 CURVE",
"467 388 OFFCURVE",
"469 415 OFFCURVE",
"471 441 CURVE",
"550 449 OFFCURVE",
"629 462 OFFCURVE",
"679 477 CURVE",
"671 541 LINE",
"625 525 OFFCURVE",
"552 513 OFFCURVE",
"478 505 CURVE",
"482 535 OFFCURVE",
"487 564 OFFCURVE",
"493 590 CURVE",
"421 603 LINE",
"415 573 OFFCURVE",
"410 537 OFFCURVE",
"405 498 CURVE",
"338 494 OFFCURVE",
"275 494 OFFCURVE",
"237 498 CURVE",
"243 432 LINE",
"278 429 OFFCURVE",
"336 430 OFFCURVE",
"400 435 CURVE",
"397 404 OFFCURVE",
"396 372 OFFCURVE",
"396 339 CURVE",
"285 292 OFFCURVE",
"201 194 OFFCURVE",
"201 87 CURVE SMOOTH",
"201 26 OFFCURVE",
"236 0 OFFCURVE",
"265 -4 CURVE SMOOTH",
"312 -11 OFFCURVE",
"370 11 OFFCURVE",
"430 55 CURVE",
"434 42 OFFCURVE",
"439 30 OFFCURVE",
"444 19 CURVE",
"457 28 OFFCURVE",
"494 45 OFFCURVE",
"513 49 CURVE",
"505 68 OFFCURVE",
"499 88 OFFCURVE",
"493 109 CURVE",
"542 158 OFFCURVE",
"589 221 OFFCURVE",
"627 294 CURVE",
"683 274 OFFCURVE",
"720 233 OFFCURVE",
"720 175 CURVE SMOOTH",
"720 87 OFFCURVE",
"635 22 OFFCURVE",
"508 5 CURVE",
"523 -11 OFFCURVE",
"538 -40 OFFCURVE",
"543 -58 CURVE"
);
},
{
closed = 1;
nodes = (
"292 61 OFFCURVE",
"271 60 OFFCURVE",
"271 98 CURVE SMOOTH",
"271 167 OFFCURVE",
"323 233 OFFCURVE",
"397 272 CURVE",
"399 221 OFFCURVE",
"404 171 OFFCURVE",
"412 125 CURVE",
"379 98 OFFCURVE",
"348 80 OFFCURVE",
"323 72 CURVE SMOOTH"
);
},
{
closed = 1;
nodes = (
"471 223 OFFCURVE",
"468 261 OFFCURVE",
"467 299 CURVE",
"490 305 OFFCURVE",
"515 308 OFFCURVE",
"539 308 CURVE SMOOTH",
"546 308 OFFCURVE",
"552 308 OFFCURVE",
"558 307 CURVE",
"534 261 OFFCURVE",
"506 221 OFFCURVE",
"477 187 CURVE"
);
}
);
width = 1000;
},
{
layerId = "542E90B0-D43E-4A29-B40D-A2B642C3CEF5";
paths = (
{
closed = 1;
nodes = (
"706 -53 OFFCURVE",
"814 40 OFFCURVE",
"814 176 CURVE SMOOTH",
"814 254 OFFCURVE",
"766 317 OFFCURVE",
"690 353 CURVE",
"697 369 OFFCURVE",
"703 386 OFFCURVE",
"709 403 CURVE",
"599 429 LINE",
"594 412 OFFCURVE",
"589 396 OFFCURVE",
"584 380 CURVE",
"570 382 OFFCURVE",
"557 382 OFFCURVE",
"542 382 CURVE SMOOTH",
"523 382 OFFCURVE",
"503 381 OFFCURVE",
"483 378 CURVE",
"483 397 OFFCURVE",
"484 417 OFFCURVE",
"486 436 CURVE",
"565 445 OFFCURVE",
"643 458 OFFCURVE",
"692 474 CURVE",
"683 572 LINE",
"637 554 OFFCURVE",
"568 541 OFFCURVE",
"497 533 CURVE",
"500 555 OFFCURVE",
"504 576 OFFCURVE",
"509 597 CURVE",
"399 616 LINE",
"393 589 OFFCURVE",
"389 558 OFFCURVE",
"385 524 CURVE",
"325 522 OFFCURVE",
"270 523 OFFCURVE",
"232 529 CURVE",
"239 428 LINE",
"271 424 OFFCURVE",
"320 424 OFFCURVE",
"376 427 CURVE",
"374 400 OFFCURVE",
"373 373 OFFCURVE",
"373 345 CURVE",
"264 295 OFFCURVE",
"182 201 OFFCURVE",
"182 92 CURVE SMOOTH",
"182 24 OFFCURVE",
"223 -13 OFFCURVE",
"262 -19 CURVE",
"311 -25 OFFCURVE",
"365 -10 OFFCURVE",
"420 22 CURVE",
"423 15 OFFCURVE",
"425 8 OFFCURVE",
"428 2 CURVE",
"449 17 OFFCURVE",
"507 42 OFFCURVE",
"536 50 CURVE",
"529 65 OFFCURVE",
"523 81 OFFCURVE",
"518 97 CURVE",
"565 142 OFFCURVE",
"609 199 OFFCURVE",
"646 263 CURVE",
"677 244 OFFCURVE",
"696 215 OFFCURVE",
"696 176 CURVE SMOOTH",
"696 96 OFFCURVE",
"621 37 OFFCURVE",
"503 25 CURVE",
"524 1 OFFCURVE",
"546 -44 OFFCURVE",
"554 -72 CURVE"
);
},
{
closed = 1;
nodes = (
"295 86 OFFCURVE",
"291 89 OFFCURVE",
"291 114 CURVE SMOOTH",
"291 160 OFFCURVE",
"324 207 OFFCURVE",
"376 241 CURVE",
"379 200 OFFCURVE",
"384 161 OFFCURVE",
"392 123 CURVE",
"362 104 OFFCURVE",
"336 92 OFFCURVE",
"316 89 CURVE SMOOTH"
);
},
{
closed = 1;
nodes = (
"488 237 OFFCURVE",
"486 260 OFFCURVE",
"485 283 CURVE",
"503 287 OFFCURVE",
"523 289 OFFCURVE",
"542 289 CURVE",
"527 261 OFFCURVE",
"509 236 OFFCURVE",
"491 214 CURVE"
);
}
);
width = 1000;
},
{
layerId = "98035891-75EF-42AC-A061-1C72A0965E4A";
paths = (
{
closed = 1;
nodes = (
"699 -43 OFFCURVE",
"805 46 OFFCURVE",
"805 175 CURVE SMOOTH",
"805 257 OFFCURVE",
"753 320 OFFCURVE",
"672 352 CURVE",
"679 368 OFFCURVE",
"685 385 OFFCURVE",
"691 401 CURVE",
"601 423 LINE",
"596 406 OFFCURVE",
"591 389 OFFCURVE",
"585 373 CURVE",
"570 375 OFFCURVE",
"556 376 OFFCURVE",
"541 376 CURVE SMOOTH",
"519 376 OFFCURVE",
"497 374 OFFCURVE",
"475 370 CURVE",
"475 393 OFFCURVE",
"477 416 OFFCURVE",
"478 439 CURVE",
"558 447 OFFCURVE",
"636 460 OFFCURVE",
"685 475 CURVE",
"677 556 LINE",
"631 539 OFFCURVE",
"560 527 OFFCURVE",
"487 519 CURVE",
"491 545 OFFCURVE",
"496 570 OFFCURVE",
"501 594 CURVE",
"410 610 LINE",
"404 581 OFFCURVE",
"399 547 OFFCURVE",
"395 511 CURVE",
"331 508 OFFCURVE",
"273 509 OFFCURVE",
"234 514 CURVE",
"241 430 LINE",
"274 426 OFFCURVE",
"328 427 OFFCURVE",
"388 431 CURVE",
"386 402 OFFCURVE",
"385 372 OFFCURVE",
"384 342 CURVE",
"275 293 OFFCURVE",
"191 198 OFFCURVE",
"191 89 CURVE SMOOTH",
"191 25 OFFCURVE",
"230 -7 OFFCURVE",
"264 -11 CURVE",
"311 -18 OFFCURVE",
"368 0 OFFCURVE",
"425 37 CURVE",
"428 28 OFFCURVE",
"432 19 OFFCURVE",
"436 10 CURVE",
"453 23 OFFCURVE",
"501 44 OFFCURVE",
"525 50 CURVE",
"517 67 OFFCURVE",
"511 84 OFFCURVE",
"505 103 CURVE",
"554 150 OFFCURVE",
"600 210 OFFCURVE",
"637 280 CURVE",
"681 260 OFFCURVE",
"708 224 OFFCURVE",
"708 175 CURVE SMOOTH",
"708 92 OFFCURVE",
"628 29 OFFCURVE",
"505 15 CURVE",
"523 -5 OFFCURVE",
"542 -42 OFFCURVE",
"549 -65 CURVE"
);
},
{
closed = 1;
nodes = (
"294 74 OFFCURVE",
"281 75 OFFCURVE",
"281 106 CURVE SMOOTH",
"281 163 OFFCURVE",
"323 220 OFFCURVE",
"386 257 CURVE",
"389 211 OFFCURVE",
"394 166 OFFCURVE",
"402 124 CURVE",
"371 101 OFFCURVE",
"342 86 OFFCURVE",
"320 81 CURVE SMOOTH"
);
},
{
closed = 1;
nodes = (
"480 230 OFFCURVE",
"477 261 OFFCURVE",
"476 291 CURVE",
"497 296 OFFCURVE",
"519 298 OFFCURVE",
"541 298 CURVE SMOOTH",
"544 298 OFFCURVE",
"547 298 OFFCURVE",
"550 298 CURVE",
"530 261 OFFCURVE",
"508 229 OFFCURVE",
"484 201 CURVE"
);
}
);
userData = {
com.schriftgestaltung.Glyphs.lastChange = "2020-03-22 07:45:29 +0000";
};
width = 1000;
}
);
unicode = 3041;
},
{
glyphname = "i-hira";
lastChange = "2021-05-17 22:56:00 +0000";
layers = (
{
layerId = master01;
paths = (
{
closed = 1;
nodes = (
"441 141 OFFCURVE",
"492 197 OFFCURVE",
"517 235 CURVE",
"504 247 OFFCURVE",
"486 271 OFFCURVE",
"477 289 CURVE",
"459 254 OFFCURVE",
"414 206 OFFCURVE",
"380 182 CURVE SMOOTH",
"356 165 OFFCURVE",
"329 165 OFFCURVE",
"304 207 CURVE SMOOTH",
"237 321 OFFCURVE",
"197 511 OFFCURVE",
"201 652 CURVE",
"137 653 LINE",
"134 496 OFFCURVE",
"183 285 OFFCURVE",
"257 159 CURVE SMOOTH",
"301 85 OFFCURVE",
"355 90 OFFCURVE",
"402 118 CURVE SMOOTH"
);
},
{
closed = 1;
nodes = (
"826 303 OFFCURVE",
"853 314 OFFCURVE",
"875 318 CURVE",
"849 388 OFFCURVE",
"754 553 OFFCURVE",
"697 623 CURVE",
"644 590 LINE",
"698 526 OFFCURVE",
"789 361 OFFCURVE",
"812 293 CURVE"
);
}
);
width = 1000;
},
{
layerId = "34DF84D2-5107-44DD-934E-BD8E209466D9";
paths = (
{
closed = 1;
nodes = (
"430 148 OFFCURVE",
"482 207 OFFCURVE",
"502 238 CURVE",
"493 245 OFFCURVE",
"483 256 OFFCURVE",
"476 268 CURVE",
"459 234 OFFCURVE",
"413 182 OFFCURVE",
"377 157 CURVE SMOOTH",
"353 141 OFFCURVE",
"324 139 OFFCURVE",
"297 186 CURVE SMOOTH",
"223 311 OFFCURVE",
"186 497 OFFCURVE",
"188 644 CURVE",
"153 645 LINE",
"150 495 OFFCURVE",
"194 297 OFFCURVE",
"264 171 CURVE SMOOTH",
"307 94 OFFCURVE",
"358 103 OFFCURVE",
"394 126 CURVE SMOOTH"
);
},
{
closed = 1;
nodes = (
"828 301 OFFCURVE",
"846 308 OFFCURVE",
"858 310 CURVE",
"833 373 OFFCURVE",
"744 534 OFFCURVE",
"692 605 CURVE",
"661 587 LINE",
"711 519 OFFCURVE",
"800 360 OFFCURVE",
"821 295 CURVE"
);
}
);
width = 1000;
},
{
layerId = "5617B79D-1A8B-4E71-B6B7-038AD2857106";
paths = (
{
closed = 1;
nodes = (
"452 135 OFFCURVE",
"502 186 OFFCURVE",
"532 232 CURVE",
"514 249 OFFCURVE",
"488 285 OFFCURVE",
"479 309 CURVE",
"458 274 OFFCURVE",
"416 229 OFFCURVE",
"383 207 CURVE SMOOTH",
"359 190 OFFCURVE",
"334 191 OFFCURVE",
"312 228 CURVE SMOOTH",
"251 331 OFFCURVE",
"209 525 OFFCURVE",
"215 660 CURVE",
"121 661 LINE",
"119 498 OFFCURVE",
"172 274 OFFCURVE",
"250 147 CURVE",
"295 76 OFFCURVE",
"352 77 OFFCURVE",
"409 110 CURVE SMOOTH"
);
},
{
closed = 1;
nodes = (
"823 305 OFFCURVE",
"860 320 OFFCURVE",
"891 326 CURVE",
"865 402 OFFCURVE",
"764 571 OFFCURVE",
"702 640 CURVE",
"628 593 LINE",
"685 532 OFFCURVE",
"779 363 OFFCURVE",
"803 290 CURVE"
);
}
);
width = 1000;
},
{
layerId = "542E90B0-D43E-4A29-B40D-A2B642C3CEF5";
paths = (
{
closed = 1;
nodes = (
"474 121 OFFCURVE",
"521 165 OFFCURVE",
"562 226 CURVE",
"535 253 OFFCURVE",
"494 314 OFFCURVE",
"483 350 CURVE",
"457 314 OFFCURVE",
"419 276 OFFCURVE",
"389 256 CURVE SMOOTH",
"364 240 OFFCURVE",
"345 244 OFFCURVE",
"327 271 CURVE",
"278 350 OFFCURVE",
"232 552 OFFCURVE",
"241 676 CURVE",
"90 677 LINE",
"87 501 OFFCURVE",
"148 251 OFFCURVE",
"237 124 CURVE SMOOTH",
"282 58 OFFCURVE",
"346 51 OFFCURVE",
"423 93 CURVE SMOOTH"
);
},
{
closed = 1;
nodes = (
"819 309 OFFCURVE",
"873 332 OFFCURVE",
"924 342 CURVE",
"896 431 OFFCURVE",
"785 609 OFFCURVE",
"712 676 CURVE",
"595 600 LINE",
"658 546 OFFCURVE",
"757 366 OFFCURVE",
"784 286 CURVE"
);
}
);
width = 1000;
},
{
layerId = "98035891-75EF-42AC-A061-1C72A0965E4A";
paths = (
{
closed = 1;
nodes = (
"463 128 OFFCURVE",
"511 176 OFFCURVE",
"547 229 CURVE",
"525 251 OFFCURVE",
"491 299 OFFCURVE",
"481 329 CURVE",
"457 294 OFFCURVE",
"418 252 OFFCURVE",
"386 231 CURVE SMOOTH",
"361 215 OFFCURVE",
"339 218 OFFCURVE",
"320 250 CURVE SMOOTH",
"264 340 OFFCURVE",
"220 538 OFFCURVE",
"228 668 CURVE",
"106 669 LINE",
"103 499 OFFCURVE",
"160 262 OFFCURVE",
"244 135 CURVE SMOOTH",
"289 67 OFFCURVE",
"349 64 OFFCURVE",
"416 101 CURVE SMOOTH"
);
},
{
closed = 1;
nodes = (
"821 307 OFFCURVE",
"866 326 OFFCURVE",
"908 334 CURVE",
"880 416 OFFCURVE",
"774 590 OFFCURVE",
"707 658 CURVE",
"611 597 LINE",
"671 539 OFFCURVE",
"768 364 OFFCURVE",
"794 288 CURVE"
);
}
);
userData = {
com.schriftgestaltung.Glyphs.lastChange = "2020-03-22 07:45:29 +0000";
};
width = 1000;
}
);
unicode = 3044;
},
{
glyphname = "ismall-hira";
lastChange = "2021-05-17 22:56:00 +0000";
layers = (
{
layerId = master01;
paths = (
{
closed = 1;
nodes = (
"457 87 OFFCURVE",
"496 128 OFFCURVE",
"516 158 CURVE",
"505 167 OFFCURVE",
"491 189 OFFCURVE",
"484 203 CURVE",
"470 177 OFFCURVE",
"436 141 OFFCURVE",
"410 124 CURVE SMOOTH",
"392 112 OFFCURVE",
"373 111 OFFCURVE",
"355 141 CURVE SMOOTH",
"305 225 OFFCURVE",
"275 368 OFFCURVE",
"279 473 CURVE",
"224 474 LINE",
"222 355 OFFCURVE",
"259 195 OFFCURVE",
"316 100 CURVE SMOOTH",
"349 45 OFFCURVE",
"391 47 OFFCURVE",
"427 69 CURVE SMOOTH"
);
},
{
closed = 1;
nodes = (
"743 209 OFFCURVE",
"767 220 OFFCURVE",
"784 224 CURVE",
"761 281 OFFCURVE",
"692 399 OFFCURVE",
"649 453 CURVE",
"604 427 LINE",
"646 376 OFFCURVE",
"713 254 OFFCURVE",
"732 201 CURVE"
);
}
);
width = 1000;
},
{
layerId = "34DF84D2-5107-44DD-934E-BD8E209466D9";
paths = (
{
closed = 1;
nodes = (
"450 95 OFFCURVE",
"489 138 OFFCURVE",
"505 163 CURVE",
"497 169 OFFCURVE",
"488 180 OFFCURVE",
"482 190 CURVE",
"469 165 OFFCURVE",
"435 127 OFFCURVE",
"408 108 CURVE SMOOTH",
"390 96 OFFCURVE",
"369 94 OFFCURVE",
"349 128 CURVE SMOOTH",
"295 220 OFFCURVE",
"266 361 OFFCURVE",
"269 470 CURVE",
"236 470 LINE",
"234 356 OFFCURVE",
"268 205 OFFCURVE",
"321 111 CURVE SMOOTH",
"354 54 OFFCURVE",
"392 59 OFFCURVE",
"422 78 CURVE SMOOTH"
);
},
{
closed = 1;
nodes = (
"745 211 OFFCURVE",
"761 217 OFFCURVE",
"772 219 CURVE",
"752 269 OFFCURVE",
"685 389 OFFCURVE",
"645 442 CURVE",
"617 426 LINE",
"656 375 OFFCURVE",
"722 255 OFFCURVE",
"739 206 CURVE"
);
}
);
width = 1000;
},
{
layerId = "5617B79D-1A8B-4E71-B6B7-038AD2857106";
paths = (
{
closed = 1;
nodes = (
"465 79 OFFCURVE",
"504 118 OFFCURVE",
"527 153 CURVE",
"513 166 OFFCURVE",
"493 197 OFFCURVE",
"486 216 CURVE",
"470 190 OFFCURVE",
"437 156 OFFCURVE",
"412 140 CURVE SMOOTH",
"394 128 OFFCURVE",
"378 127 OFFCURVE",
"361 154 CURVE SMOOTH",
"316 229 OFFCURVE",
"284 375 OFFCURVE",
"289 476 CURVE",
"213 477 LINE",
"211 354 OFFCURVE",
"251 185 OFFCURVE",
"310 90 CURVE SMOOTH",
"344 37 OFFCURVE",
"389 35 OFFCURVE",
"432 60 CURVE SMOOTH"
);
},
{
closed = 1;
nodes = (
"741 208 OFFCURVE",
"773 222 OFFCURVE",
"795 228 CURVE",
"770 294 OFFCURVE",
"700 410 OFFCURVE",
"653 464 CURVE",
"592 428 LINE",
"637 377 OFFCURVE",
"705 253 OFFCURVE",
"725 197 CURVE"
);
}
);
width = 1000;
},
{
layerId = "542E90B0-D43E-4A29-B40D-A2B642C3CEF5";
paths = (
{
closed = 1;
nodes = (
"480 64 OFFCURVE",
"519 97 OFFCURVE",
"549 143 CURVE",
"530 163 OFFCURVE",
"498 215 OFFCURVE",
"490 242 CURVE",
"471 215 OFFCURVE",
"439 186 OFFCURVE",
"417 171 CURVE",
"398 160 OFFCURVE",
"387 159 OFFCURVE",
"374 179 CURVE SMOOTH",
"336 239 OFFCURVE",
"302 390 OFFCURVE",
"309 483 CURVE",
"189 484 LINE",
"187 352 OFFCURVE",
"233 164 OFFCURVE",
"300 69 CURVE SMOOTH",
"334 20 OFFCURVE",
"385 11 OFFCURVE",
"442 43 CURVE SMOOTH"
);
},
{
closed = 1;
nodes = (
"737 205 OFFCURVE",
"785 227 OFFCURVE",
"819 238 CURVE",
"788 319 OFFCURVE",
"715 430 OFFCURVE",
"661 487 CURVE",
"566 429 LINE",
"618 378 OFFCURVE",
"687 251 OFFCURVE",
"712 188 CURVE"
);
}
);
width = 1000;
},
{
layerId = "98035891-75EF-42AC-A061-1C72A0965E4A";
paths = (
{
closed = 1;
nodes = (
"473 72 OFFCURVE",
"511 107 OFFCURVE",
"538 148 CURVE",
"522 164 OFFCURVE",
"496 206 OFFCURVE",
"488 229 CURVE",
"470 202 OFFCURVE",
"438 171 OFFCURVE",
"414 156 CURVE SMOOTH",
"396 144 OFFCURVE",
"382 143 OFFCURVE",
"368 167 CURVE SMOOTH",
"326 234 OFFCURVE",
"293 383 OFFCURVE",
"299 480 CURVE",
"201 480 LINE",
"199 353 OFFCURVE",
"242 175 OFFCURVE",
"305 79 CURVE SMOOTH",
"339 28 OFFCURVE",
"387 23 OFFCURVE",
"437 52 CURVE SMOOTH"
);
},
{
closed = 1;
nodes = (
"739 207 OFFCURVE",
"779 225 OFFCURVE",
"807 233 CURVE",
"779 306 OFFCURVE",
"707 420 OFFCURVE",
"657 476 CURVE",
"579 429 LINE",
"628 378 OFFCURVE",
"696 252 OFFCURVE",
"719 192 CURVE"
);
}
);
userData = {
com.schriftgestaltung.Glyphs.lastChange = "2020-03-22 07:45:29 +0000";
};
width = 1000;
}
);
unicode = 3043;
},
{
glyphname = "u-hira";
lastChange = "2021-05-17 22:56:00 +0000";
layers = (
{
layerId = master01;
paths = (
{
closed = 1;
nodes = (
"601 34 OFFCURVE",
"704 202 OFFCURVE",
"704 383 CURVE SMOOTH",
"704 504 OFFCURVE",
"623 570 OFFCURVE",
"525 570 CURVE SMOOTH",
"426 570 OFFCURVE",
"298 520 OFFCURVE",
"221 479 CURVE",
"234 467 OFFCURVE",
"255 435 OFFCURVE",
"261 421 CURVE",
"324 467 OFFCURVE",
"440 508 OFFCURVE",
"525 508 CURVE SMOOTH",
"587 508 OFFCURVE",
"639 469 OFFCURVE",
"639 383 CURVE SMOOTH",
"639 217 OFFCURVE",
"535 59 OFFCURVE",
"404 -26 CURVE",
"423 -31 OFFCURVE",
"453 -50 OFFCURVE",
"466 -63 CURVE"
);
},
{
closed = 1;
nodes = (
"641 732 LINE",
"585 746 OFFCURVE",
"432 800 OFFCURVE",
"390 825 CURVE",
"359 770 LINE",
"407 742 OFFCURVE",
"570 685 OFFCURVE",
"620 672 CURVE"
);
}
);
width = 1000;
},
{
layerId = "34DF84D2-5107-44DD-934E-BD8E209466D9";
paths = (
{
closed = 1;
nodes = (
"585 43 OFFCURVE",
"689 212 OFFCURVE",
"689 391 CURVE SMOOTH",
"689 505 OFFCURVE",
"612 566 OFFCURVE",
"526 566 CURVE SMOOTH",
"433 566 OFFCURVE",
"301 514 OFFCURVE",
"232 474 CURVE",
"240 468 OFFCURVE",
"253 451 OFFCURVE",
"257 442 CURVE",
"320 489 OFFCURVE",
"442 530 OFFCURVE",
"526 530 CURVE SMOOTH",
"593 530 OFFCURVE",
"653 486 OFFCURVE",
"653 391 CURVE SMOOTH",
"653 223 OFFCURVE",
"549 57 OFFCURVE",
"418 -33 CURVE",
"428 -37 OFFCURVE",
"443 -48 OFFCURVE",
"450 -56 CURVE"
);
},
{
closed = 1;
nodes = (
"630 722 LINE",
"579 736 OFFCURVE",
"426 792 OFFCURVE",
"386 817 CURVE",
"368 786 LINE",
"412 759 OFFCURVE",
"575 701 OFFCURVE",
"619 689 CURVE"
);
}
);
width = 1000;
},
{
layerId = "5617B79D-1A8B-4E71-B6B7-038AD2857106";
paths = (
{
closed = 1;
nodes = (
"617 26 OFFCURVE",
"719 192 OFFCURVE",
"719 376 CURVE SMOOTH",
"719 503 OFFCURVE",
"634 574 OFFCURVE",
"524 574 CURVE SMOOTH",
"418 574 OFFCURVE",
"295 527 OFFCURVE",
"210 483 CURVE",
"228 467 OFFCURVE",
"257 419 OFFCURVE",
"266 399 CURVE",
"327 445 OFFCURVE",
"438 485 OFFCURVE",
"524 485 CURVE SMOOTH",
"581 485 OFFCURVE",
"625 451 OFFCURVE",
"625 376 CURVE SMOOTH",
"625 211 OFFCURVE",
"520 61 OFFCURVE",
"389 -19 CURVE",
"419 -26 OFFCURVE",
"463 -51 OFFCURVE",
"482 -69 CURVE"
);
},
{
closed = 1;
nodes = (
"651 741 LINE",
"591 755 OFFCURVE",
"439 808 OFFCURVE",
"394 833 CURVE",
"350 754 LINE",
"403 725 OFFCURVE",
"565 668 OFFCURVE",
"621 655 CURVE"
);
}
);
width = 1000;
},
{
layerId = "542E90B0-D43E-4A29-B40D-A2B642C3CEF5";
paths = (
{
closed = 1;
nodes = (
"649 9 OFFCURVE",
"748 171 OFFCURVE",
"748 361 CURVE SMOOTH",
"748 501 OFFCURVE",
"657 582 OFFCURVE",
"523 582 CURVE SMOOTH",
"404 582 OFFCURVE",
"290 540 OFFCURVE",
"189 492 CURVE",
"216 465 OFFCURVE",
"261 388 OFFCURVE",
"274 357 CURVE",
"333 401 OFFCURVE",
"434 441 OFFCURVE",
"523 441 CURVE SMOOTH",
"569 441 OFFCURVE",
"597 415 OFFCURVE",
"597 361 CURVE SMOOTH",
"597 199 OFFCURVE",
"491 65 OFFCURVE",
"361 -5 CURVE",
"410 -15 OFFCURVE",
"483 -53 OFFCURVE",
"514 -82 CURVE"
);
},
{
closed = 1;
nodes = (
"673 760 LINE",
"603 773 OFFCURVE",
"452 825 OFFCURVE",
"402 849 CURVE",
"332 722 LINE",
"393 692 OFFCURVE",
"554 636 OFFCURVE",
"623 621 CURVE"
);
}
);
width = 1000;
},
{
layerId = "98035891-75EF-42AC-A061-1C72A0965E4A";
paths = (
{
closed = 1;
nodes = (
"633 17 OFFCURVE",
"734 181 OFFCURVE",
"734 368 CURVE SMOOTH",
"734 502 OFFCURVE",
"645 578 OFFCURVE",
"524 578 CURVE SMOOTH",
"411 578 OFFCURVE",
"293 534 OFFCURVE",
"199 488 CURVE",
"222 466 OFFCURVE",
"259 404 OFFCURVE",
"270 378 CURVE",
"330 423 OFFCURVE",
"436 463 OFFCURVE",
"524 463 CURVE SMOOTH",
"575 463 OFFCURVE",
"611 433 OFFCURVE",
"611 368 CURVE SMOOTH",
"611 205 OFFCURVE",
"506 63 OFFCURVE",
"375 -12 CURVE",
"415 -21 OFFCURVE",
"473 -52 OFFCURVE",
"498 -75 CURVE"
);
},
{
closed = 1;
nodes = (
"662 751 LINE",
"597 764 OFFCURVE",
"445 817 OFFCURVE",
"398 841 CURVE",
"341 738 LINE",
"398 709 OFFCURVE",
"559 652 OFFCURVE",
"622 638 CURVE"
);
}
);
userData = {
com.schriftgestaltung.Glyphs.lastChange = "2020-03-22 07:45:29 +0000";
};
width = 1000;
}
);
unicode = 3046;
},
{
glyphname = "usmall-hira";
lastChange = "2021-05-17 22:56:00 +0000";
layers = (
{
layerId = master01;
paths = (
{
closed = 1;
nodes = (
"580 11 OFFCURVE",
"656 135 OFFCURVE",
"656 272 CURVE SMOOTH",
"656 364 OFFCURVE",
"594 415 OFFCURVE",
"519 415 CURVE SMOOTH",
"443 415 OFFCURVE",
"347 378 OFFCURVE",
"288 346 CURVE",
"298 337 OFFCURVE",
"315 309 OFFCURVE",
"321 297 CURVE",
"367 332 OFFCURVE",
"455 362 OFFCURVE",
"519 362 CURVE SMOOTH",
"564 362 OFFCURVE",
"602 334 OFFCURVE",
"602 272 CURVE SMOOTH",
"602 147 OFFCURVE",
"527 36 OFFCURVE",
"426 -29 CURVE",
"441 -36 OFFCURVE",
"461 -53 OFFCURVE",
"473 -66 CURVE"
);
},
{
closed = 1;
nodes = (
"609 537 LINE",
"566 547 OFFCURVE",
"450 588 OFFCURVE",
"418 606 CURVE",
"391 560 LINE",
"428 539 OFFCURVE",
"552 496 OFFCURVE",
"590 486 CURVE"
);
}
);
width = 1000;
},
{
layerId = "34DF84D2-5107-44DD-934E-BD8E209466D9";
paths = (
{
closed = 1;
nodes = (
"567 16 OFFCURVE",
"645 143 OFFCURVE",
"645 277 CURVE SMOOTH",
"645 364 OFFCURVE",
"586 411 OFFCURVE",
"519 411 CURVE SMOOTH",
"448 411 OFFCURVE",
"350 373 OFFCURVE",
"297 342 CURVE",
"303 337 OFFCURVE",
"315 320 OFFCURVE",
"319 313 CURVE",
"366 348 OFFCURVE",
"456 379 OFFCURVE",
"519 379 CURVE SMOOTH",
"569 379 OFFCURVE",
"612 347 OFFCURVE",
"612 277 CURVE SMOOTH",
"612 152 OFFCURVE",
"535 30 OFFCURVE",
"436 -37 CURVE",
"445 -41 OFFCURVE",
"458 -51 OFFCURVE",
"464 -59 CURVE"
);
},
{
closed = 1;
nodes = (
"600 529 LINE",
"561 540 OFFCURVE",
"445 581 OFFCURVE",
"415 600 CURVE",
"399 572 LINE",
"433 552 OFFCURVE",
"555 508 OFFCURVE",
"589 499 CURVE"
);
}
);
width = 1000;
},
{
layerId = "5617B79D-1A8B-4E71-B6B7-038AD2857106";
paths = (
{
closed = 1;
nodes = (
"593 6 OFFCURVE",
"667 127 OFFCURVE",
"667 267 CURVE SMOOTH",
"667 363 OFFCURVE",
"602 418 OFFCURVE",
"518 418 CURVE SMOOTH",
"438 418 OFFCURVE",
"344 383 OFFCURVE",
"279 350 CURVE",
"293 337 OFFCURVE",
"316 297 OFFCURVE",
"323 281 CURVE",
"369 315 OFFCURVE",
"453 346 OFFCURVE",
"518 346 CURVE SMOOTH",
"560 346 OFFCURVE",
"591 322 OFFCURVE",
"591 267 CURVE SMOOTH",
"591 143 OFFCURVE",
"519 42 OFFCURVE",
"416 -22 CURVE",
"437 -32 OFFCURVE",
"463 -56 OFFCURVE",
"481 -74 CURVE"
);
},
{
closed = 1;
nodes = (
"617 544 LINE",
"571 554 OFFCURVE",
"454 594 OFFCURVE",
"420 613 CURVE",
"384 548 LINE",
"424 526 OFFCURVE",
"549 484 OFFCURVE",
"592 473 CURVE"
);
}
);
width = 1000;
},
{
layerId = "542E90B0-D43E-4A29-B40D-A2B642C3CEF5";
paths = (
{
closed = 1;
nodes = (
"619 -5 OFFCURVE",
"689 111 OFFCURVE",
"689 256 CURVE SMOOTH",
"689 361 OFFCURVE",
"617 426 OFFCURVE",
"517 426 CURVE SMOOTH",
"428 426 OFFCURVE",
"338 394 OFFCURVE",
"262 358 CURVE",
"282 338 OFFCURVE",
"317 274 OFFCURVE",
"327 250 CURVE",
"372 283 OFFCURVE",
"451 313 OFFCURVE",
"517 313 CURVE SMOOTH",
"551 313 OFFCURVE",
"570 297 OFFCURVE",
"570 256 CURVE SMOOTH",
"570 135 OFFCURVE",
"504 55 OFFCURVE",
"397 -7 CURVE",
"429 -23 OFFCURVE",
"469 -60 OFFCURVE",
"497 -89 CURVE"
);
},
{
closed = 1;
nodes = (
"634 559 LINE",
"582 569 OFFCURVE",
"462 608 OFFCURVE",
"425 625 CURVE",
"369 524 LINE",
"415 501 OFFCURVE",
"542 459 OFFCURVE",
"594 448 CURVE"
);
}
);
width = 1000;
},
{
layerId = "98035891-75EF-42AC-A061-1C72A0965E4A";
paths = (
{
closed = 1;
nodes = (
"606 1 OFFCURVE",
"678 119 OFFCURVE",
"678 261 CURVE SMOOTH",
"678 362 OFFCURVE",
"610 422 OFFCURVE",
"518 422 CURVE SMOOTH",
"433 422 OFFCURVE",
"341 389 OFFCURVE",
"270 354 CURVE",
"288 338 OFFCURVE",
"317 285 OFFCURVE",
"325 266 CURVE",
"370 299 OFFCURVE",
"452 329 OFFCURVE",
"518 329 CURVE SMOOTH",
"556 329 OFFCURVE",
"580 310 OFFCURVE",
"580 261 CURVE SMOOTH",
"580 139 OFFCURVE",
"511 48 OFFCURVE",
"407 -14 CURVE",
"433 -27 OFFCURVE",
"466 -58 OFFCURVE",
"489 -82 CURVE"
);
},
{
closed = 1;
nodes = (
"626 552 LINE",
"577 562 OFFCURVE",
"458 601 OFFCURVE",
"423 619 CURVE",
"377 536 LINE",
"420 514 OFFCURVE",
"545 471 OFFCURVE",
"593 461 CURVE"
);
}
);
userData = {
com.schriftgestaltung.Glyphs.lastChange = "2020-03-22 07:45:29 +0000";
};
width = 1000;
}
);
unicode = 3045;
},
{
glyphname = "e-hira";
lastChange = "2021-05-17 22:56:00 +0000";
layers = (
{
layerId = master01;
paths = (
{
closed = 1;
nodes = (
"257 23 OFFCURVE",
"352 137 OFFCURVE",
"446 251 CURVE SMOOTH",
"473 284 OFFCURVE",
"503 288 OFFCURVE",
"527 277 CURVE SMOOTH",
"557 264 OFFCURVE",
"564 233 OFFCURVE",
"561 161 CURVE",
"553 13 OFFCURVE",
"598 -23 OFFCURVE",
"709 -23 CURVE SMOOTH",
"754 -23 OFFCURVE",
"825 -17 OFFCURVE",
"887 -7 CURVE",
"886 9 OFFCURVE",
"887 44 OFFCURVE",
"891 59 CURVE",
"847 49 OFFCURVE",
"762 40 OFFCURVE",
"717 40 CURVE SMOOTH",
"645 40 OFFCURVE",
"615 50 OFFCURVE",
"620 181 CURVE SMOOTH",
"624 272 OFFCURVE",
"606 301 OFFCURVE",
"570 320 CURVE SMOOTH",
"554 328 OFFCURVE",
"522 333 OFFCURVE",
"508 326 CURVE",
"576 411 OFFCURVE",
"648 501 OFFCURVE",
"671 522 CURVE",
"625 564 LINE",
"525 538 OFFCURVE",
"303 511 OFFCURVE",
"231 511 CURVE",
"242 449 LINE",
"300 454 OFFCURVE",
"464 474 OFFCURVE",
"562 493 CURVE",
"476 378 OFFCURVE",
"243 96 OFFCURVE",
"164 17 CURVE",
"217 -23 LINE"
);
},
{
closed = 1;
nodes = (
"648 713 LINE",
"595 726 OFFCURVE",
"444 784 OFFCURVE",
"410 806 CURVE",
"380 753 LINE",
"420 727 OFFCURVE",
"577 668 OFFCURVE",
"628 654 CURVE"
);
}
);
width = 1000;
},
{
layerId = "34DF84D2-5107-44DD-934E-BD8E209466D9";
paths = (
{
closed = 1;
nodes = (
"251 33 OFFCURVE",
"348 150 OFFCURVE",
"438 262 CURVE SMOOTH",
"470 302 OFFCURVE",
"505 304 OFFCURVE",
"530 293 CURVE SMOOTH",
"565 278 OFFCURVE",
"574 243 OFFCURVE",
"569 179 CURVE",
"559 23 OFFCURVE",
"606 -12 OFFCURVE",
"712 -12 CURVE SMOOTH",
"755 -12 OFFCURVE",
"820 -6 OFFCURVE",
"884 4 CURVE",
"883 13 OFFCURVE",
"883 32 OFFCURVE",
"886 42 CURVE",
"842 33 OFFCURVE",
"756 23 OFFCURVE",
"714 23 CURVE",
"634 24 OFFCURVE",
"597 35 OFFCURVE",
"605 179 CURVE",
"609 272 OFFCURVE",
"590 304 OFFCURVE",
"549 322 CURVE SMOOTH",
"532 329 OFFCURVE",
"500 332 OFFCURVE",
"487 325 CURVE",
"552 408 OFFCURVE",
"628 506 OFFCURVE",
"652 529 CURVE",
"624 555 LINE",
"522 530 OFFCURVE",
"311 502 OFFCURVE",
"243 502 CURVE",
"251 464 LINE",
"314 469 OFFCURVE",
"478 489 OFFCURVE",
"587 511 CURVE",
"498 389 OFFCURVE",
"258 92 OFFCURVE",
"179 9 CURVE",
"208 -13 LINE"
);
},
{
closed = 1;
nodes = (
"643 704 LINE",
"596 717 OFFCURVE",
"445 777 OFFCURVE",
"412 799 CURVE",
"394 768 LINE",
"429 745 OFFCURVE",
"584 683 OFFCURVE",
"632 670 CURVE"
);
}
);
width = 1000;
},
{
layerId = "5617B79D-1A8B-4E71-B6B7-038AD2857106";
paths = (
{
closed = 1;
nodes = (
"754 -34 OFFCURVE",
"831 -28 OFFCURVE",
"891 -18 CURVE",
"888 6 OFFCURVE",
"890 55 OFFCURVE",
"897 76 CURVE",
"851 65 OFFCURVE",
"768 56 OFFCURVE",
"720 56 CURVE SMOOTH",
"657 56 OFFCURVE",
"632 65 OFFCURVE",
"636 182 CURVE",
"638 271 OFFCURVE",
"623 299 OFFCURVE",
"591 317 CURVE SMOOTH",
"575 327 OFFCURVE",
"544 334 OFFCURVE",
"528 328 CURVE",
"599 413 OFFCURVE",
"669 497 OFFCURVE",
"691 516 CURVE",
"625 572 LINE",
"528 546 OFFCURVE",
"296 520 OFFCURVE",
"218 521 CURVE",
"233 434 LINE",
"286 438 OFFCURVE",
"450 458 OFFCURVE",
"537 475 CURVE",
"455 366 OFFCURVE",
"228 99 OFFCURVE",
"149 26 CURVE",
"226 -32 LINE",
"263 12 OFFCURVE",
"357 124 OFFCURVE",
"454 239 CURVE SMOOTH",
"476 266 OFFCURVE",
"500 272 OFFCURVE",
"524 261 CURVE SMOOTH",
"548 250 OFFCURVE",
"555 223 OFFCURVE",
"552 144 CURVE SMOOTH",
"547 3 OFFCURVE",
"591 -34 OFFCURVE",
"707 -34 CURVE SMOOTH"
);
},
{
closed = 1;
nodes = (
"654 723 LINE",
"594 736 OFFCURVE",
"444 791 OFFCURVE",
"408 814 CURVE",
"366 737 LINE",
"410 710 OFFCURVE",
"570 652 OFFCURVE",
"625 639 CURVE"
);
}
);
width = 1000;
},
{
layerId = "542E90B0-D43E-4A29-B40D-A2B642C3CEF5";
paths = (
{
closed = 1;
nodes = (
"752 -56 OFFCURVE",
"841 -50 OFFCURVE",
"898 -40 CURVE",
"894 -1 OFFCURVE",
"897 78 OFFCURVE",
"908 110 CURVE",
"860 97 OFFCURVE",
"780 89 OFFCURVE",
"727 89 CURVE SMOOTH",
"680 89 OFFCURVE",
"667 95 OFFCURVE",
"667 184 CURVE SMOOTH",
"667 270 OFFCURVE",
"657 295 OFFCURVE",
"634 313 CURVE SMOOTH",
"618 325 OFFCURVE",
"588 336 OFFCURVE",
"569 332 CURVE",
"646 418 OFFCURVE",
"710 488 OFFCURVE",
"731 504 CURVE",
"627 589 LINE",
"533 561 OFFCURVE",
"281 538 OFFCURVE",
"194 540 CURVE",
"215 404 LINE",
"258 407 OFFCURVE",
"422 427 OFFCURVE",
"486 438 CURVE",
"411 343 OFFCURVE",
"198 107 OFFCURVE",
"118 43 CURVE",
"243 -51 LINE",
"275 -8 OFFCURVE",
"365 98 OFFCURVE",
"470 216 CURVE",
"482 231 OFFCURVE",
"496 239 OFFCURVE",
"518 229 CURVE SMOOTH",
"531 223 OFFCURVE",
"535 202 OFFCURVE",
"535 108 CURVE SMOOTH",
"535 -17 OFFCURVE",
"576 -57 OFFCURVE",
"702 -56 CURVE"
);
},
{
closed = 1;
nodes = (
"664 742 LINE",
"591 755 OFFCURVE",
"443 805 OFFCURVE",
"404 829 CURVE",
"338 706 LINE",
"390 675 OFFCURVE",
"557 621 OFFCURVE",
"618 608 CURVE"
);
}
);
width = 1000;
},
{
layerId = "98035891-75EF-42AC-A061-1C72A0965E4A";
paths = (
{
closed = 1;
nodes = (
"753 -45 OFFCURVE",
"836 -39 OFFCURVE",
"894 -29 CURVE",
"891 2 OFFCURVE",
"893 66 OFFCURVE",
"903 93 CURVE",
"856 81 OFFCURVE",
"774 72 OFFCURVE",
"724 72 CURVE",
"669 73 OFFCURVE",
"649 80 OFFCURVE",
"651 183 CURVE SMOOTH",
"652 271 OFFCURVE",
"640 297 OFFCURVE",
"613 315 CURVE SMOOTH",
"597 326 OFFCURVE",
"566 335 OFFCURVE",
"548 330 CURVE",
"623 415 OFFCURVE",
"689 492 OFFCURVE",
"711 510 CURVE",
"626 581 LINE",
"530 554 OFFCURVE",
"289 529 OFFCURVE",
"206 530 CURVE",
"224 419 LINE",
"272 422 OFFCURVE",
"436 442 OFFCURVE",
"511 456 CURVE",
"433 354 OFFCURVE",
"213 103 OFFCURVE",
"133 34 CURVE",
"235 -41 LINE",
"269 2 OFFCURVE",
"361 111 OFFCURVE",
"462 228 CURVE SMOOTH",
"479 248 OFFCURVE",
"498 255 OFFCURVE",
"521 245 CURVE SMOOTH",
"540 237 OFFCURVE",
"545 212 OFFCURVE",
"543 126 CURVE SMOOTH",
"541 -7 OFFCURVE",
"583 -46 OFFCURVE",
"704 -45 CURVE"
);
},
{
closed = 1;
nodes = (
"659 732 LINE",
"592 745 OFFCURVE",
"444 798 OFFCURVE",
"406 821 CURVE",
"352 721 LINE",
"400 692 OFFCURVE",
"563 637 OFFCURVE",
"621 624 CURVE"
);
}
);
userData = {
com.schriftgestaltung.Glyphs.lastChange = "2020-03-22 07:45:29 +0000";
};
width = 1000;
}
);
unicode = 3048;
},
{
glyphname = "esmall-hira";
lastChange = "2021-05-17 22:56:00 +0000";
layers = (
{
layerId = master01;
paths = (
{
closed = 1;
nodes = (
"320 1 OFFCURVE",
"390 85 OFFCURVE",
"461 171 CURVE SMOOTH",
"481 195 OFFCURVE",
"502 198 OFFCURVE",
"519 190 CURVE SMOOTH",
"540 181 OFFCURVE",
"546 158 OFFCURVE",
"543 104 CURVE SMOOTH",
"538 -10 OFFCURVE",
"575 -34 OFFCURVE",
"657 -34 CURVE SMOOTH",
"691 -34 OFFCURVE",
"746 -30 OFFCURVE",
"792 -22 CURVE",
"791 -9 OFFCURVE",
"792 22 OFFCURVE",
"796 35 CURVE",
"761 26 OFFCURVE",
"698 19 OFFCURVE",
"663 20 CURVE",
"611 20 OFFCURVE",
"590 26 OFFCURVE",
"594 122 CURVE SMOOTH",
"597 191 OFFCURVE",
"584 212 OFFCURVE",
"557 226 CURVE SMOOTH",
"545 232 OFFCURVE",
"523 236 OFFCURVE",
"512 232 CURVE",
"560 291 OFFCURVE",
"616 360 OFFCURVE",
"633 376 CURVE",
"594 411 LINE",
"520 391 OFFCURVE",
"351 371 OFFCURVE",
"295 372 CURVE",
"304 319 LINE",
"349 323 OFFCURVE",
"466 337 OFFCURVE",
"540 351 CURVE",
"474 264 OFFCURVE",
"305 60 OFFCURVE",
"243 0 CURVE",
"289 -34 LINE"
);
},
{
closed = 1;
nodes = (
"613 523 LINE",
"572 533 OFFCURVE",
"462 575 OFFCURVE",
"432 593 CURVE",
"406 547 LINE",
"440 527 OFFCURVE",
"558 483 OFFCURVE",
"596 473 CURVE"
);
}
);
width = 1000;
},
{
layerId = "34DF84D2-5107-44DD-934E-BD8E209466D9";
paths = (
{
closed = 1;
nodes = (
"315 8 OFFCURVE",
"387 95 OFFCURVE",
"455 180 CURVE SMOOTH",
"478 208 OFFCURVE",
"503 211 OFFCURVE",
"522 202 CURVE SMOOTH",
"547 191 OFFCURVE",
"553 166 OFFCURVE",
"550 116 CURVE SMOOTH",
"543 0 OFFCURVE",
"578 -26 OFFCURVE",
"658 -26 CURVE SMOOTH",
"692 -26 OFFCURVE",
"741 -22 OFFCURVE",
"789 -14 CURVE",
"788 -6 OFFCURVE",
"788 13 OFFCURVE",
"791 21 CURVE",
"757 14 OFFCURVE",
"693 7 OFFCURVE",
"661 7 CURVE SMOOTH",
"603 7 OFFCURVE",
"577 15 OFFCURVE",
"582 120 CURVE SMOOTH",
"585 190 OFFCURVE",
"571 213 OFFCURVE",
"541 227 CURVE SMOOTH",
"529 232 OFFCURVE",
"505 235 OFFCURVE",
"495 230 CURVE",
"544 292 OFFCURVE",
"600 364 OFFCURVE",
"618 381 CURVE",
"593 404 LINE",
"517 385 OFFCURVE",
"357 364 OFFCURVE",
"304 364 CURVE",
"311 330 LINE",
"358 334 OFFCURVE",
"480 349 OFFCURVE",
"560 365 CURVE",
"493 274 OFFCURVE",
"315 56 OFFCURVE",
"256 -6 CURVE",
"283 -26 LINE"
);
},
{
closed = 1;
nodes = (
"609 515 LINE",
"572 525 OFFCURVE",
"459 570 OFFCURVE",
"433 586 CURVE",
"417 559 LINE",
"446 540 OFFCURVE",
"562 495 OFFCURVE",
"598 485 CURVE"
);
}
);
width = 1000;
},
{
layerId = "5617B79D-1A8B-4E71-B6B7-038AD2857106";
paths = (
{
closed = 1;
nodes = (
"691 -43 OFFCURVE",
"751 -38 OFFCURVE",
"795 -30 CURVE",
"793 -12 OFFCURVE",
"796 32 OFFCURVE",
"801 48 CURVE",
"765 39 OFFCURVE",
"703 32 OFFCURVE",
"666 32 CURVE SMOOTH",
"620 32 OFFCURVE",
"604 37 OFFCURVE",
"606 123 CURVE SMOOTH",
"608 191 OFFCURVE",
"596 212 OFFCURVE",
"573 226 CURVE SMOOTH",
"562 232 OFFCURVE",
"541 237 OFFCURVE",
"529 235 CURVE",
"576 291 OFFCURVE",
"631 356 OFFCURVE",
"649 371 CURVE",
"595 417 LINE",
"522 398 OFFCURVE",
"346 379 OFFCURVE",
"285 379 CURVE",
"297 308 LINE",
"340 311 OFFCURVE",
"453 325 OFFCURVE",
"519 337 CURVE",
"455 253 OFFCURVE",
"294 63 OFFCURVE",
"231 6 CURVE",
"296 -42 LINE",
"325 -7 OFFCURVE",
"394 76 OFFCURVE",
"467 163 CURVE SMOOTH",
"484 182 OFFCURVE",
"501 186 OFFCURVE",
"517 178 CURVE SMOOTH",
"534 171 OFFCURVE",
"538 149 OFFCURVE",
"536 92 CURVE SMOOTH",
"533 -20 OFFCURVE",
"571 -43 OFFCURVE",
"655 -43 CURVE SMOOTH"
);
},
{
closed = 1;
nodes = (
"618 530 LINE",
"572 540 OFFCURVE",
"465 580 OFFCURVE",
"430 599 CURVE",
"396 536 LINE",
"435 514 OFFCURVE",
"554 471 OFFCURVE",
"594 461 CURVE"
);
}
);
width = 1000;
},
{
layerId = "542E90B0-D43E-4A29-B40D-A2B642C3CEF5";
paths = (
{
closed = 1;
nodes = (
"691 -59 OFFCURVE",
"761 -54 OFFCURVE",
"802 -47 CURVE",
"799 -19 OFFCURVE",
"803 51 OFFCURVE",
"811 76 CURVE",
"772 65 OFFCURVE",
"712 58 OFFCURVE",
"670 58 CURVE SMOOTH",
"638 58 OFFCURVE",
"631 58 OFFCURVE",
"631 125 CURVE SMOOTH",
"631 192 OFFCURVE",
"622 211 OFFCURVE",
"605 224 CURVE SMOOTH",
"595 232 OFFCURVE",
"578 239 OFFCURVE",
"563 240 CURVE",
"608 289 OFFCURVE",
"663 348 OFFCURVE",
"679 361 CURVE",
"596 431 LINE",
"528 411 OFFCURVE",
"336 393 OFFCURVE",
"266 394 CURVE",
"283 285 LINE",
"322 289 OFFCURVE",
"426 301 OFFCURVE",
"479 309 CURVE",
"417 231 OFFCURVE",
"272 71 OFFCURVE",
"206 18 CURVE",
"308 -57 LINE",
"334 -23 OFFCURVE",
"400 56 OFFCURVE",
"480 146 CURVE SMOOTH",
"489 156 OFFCURVE",
"498 161 OFFCURVE",
"512 154 CURVE SMOOTH",
"520 150 OFFCURVE",
"523 132 OFFCURVE",
"523 67 CURVE SMOOTH",
"523 -41 OFFCURVE",
"563 -60 OFFCURVE",
"651 -60 CURVE"
);
},
{
closed = 1;
nodes = (
"627 545 LINE",
"572 555 OFFCURVE",
"470 589 OFFCURVE",
"427 612 CURVE",
"374 514 LINE",
"424 487 OFFCURVE",
"545 448 OFFCURVE",
"590 438 CURVE"
);
}
);
width = 1000;
},
{
layerId = "98035891-75EF-42AC-A061-1C72A0965E4A";
paths = (
{
closed = 1;
nodes = (
"691 -51 OFFCURVE",
"756 -46 OFFCURVE",
"799 -39 CURVE",
"796 -16 OFFCURVE",
"799 41 OFFCURVE",
"806 62 CURVE",
"768 52 OFFCURVE",
"707 45 OFFCURVE",
"668 45 CURVE SMOOTH",
"629 45 OFFCURVE",
"617 47 OFFCURVE",
"619 124 CURVE SMOOTH",
"620 192 OFFCURVE",
"609 211 OFFCURVE",
"589 225 CURVE SMOOTH",
"578 232 OFFCURVE",
"559 238 OFFCURVE",
"546 237 CURVE",
"592 290 OFFCURVE",
"647 352 OFFCURVE",
"664 366 CURVE",
"595 424 LINE",
"525 404 OFFCURVE",
"341 386 OFFCURVE",
"276 386 CURVE",
"290 297 LINE",
"331 300 OFFCURVE",
"440 313 OFFCURVE",
"499 323 CURVE",
"436 242 OFFCURVE",
"283 67 OFFCURVE",
"218 12 CURVE",
"302 -49 LINE",
"329 -15 OFFCURVE",
"397 66 OFFCURVE",
"474 154 CURVE",
"486 169 OFFCURVE",
"499 173 OFFCURVE",
"514 166 CURVE SMOOTH",
"527 161 OFFCURVE",
"530 141 OFFCURVE",
"529 79 CURVE SMOOTH",
"528 -31 OFFCURVE",
"567 -52 OFFCURVE",
"653 -51 CURVE"
);
},
{
closed = 1;
nodes = (
"623 537 LINE",
"572 547 OFFCURVE",
"468 585 OFFCURVE",
"428 605 CURVE",
"385 525 LINE",
"430 500 OFFCURVE",
"549 459 OFFCURVE",
"592 450 CURVE"
);
}
);
userData = {
com.schriftgestaltung.Glyphs.lastChange = "2020-03-22 07:45:29 +0000";
};
width = 1000;
}
);
unicode = 3047;
},
{
glyphname = "o-hira";
lastChange = "2021-05-17 22:56:00 +0000";
layers = (
{
layerId = master01;
paths = (
{
closed = 1;
nodes = (
"382 -12 OFFCURVE",
"394 -1 OFFCURVE",
"394 28 CURVE SMOOTH",
"394 293 LINE",
"449 310 OFFCURVE",
"512 320 OFFCURVE",
"580 320 CURVE",
"706 321 OFFCURVE",
"797 270 OFFCURVE",
"797 186 CURVE SMOOTH",
"797 112 OFFCURVE",
"742 70 OFFCURVE",
"664 71 CURVE SMOOTH",
"591 72 OFFCURVE",
"553 110 OFFCURVE",
"533 184 CURVE",
"524 178 OFFCURVE",
"484 162 OFFCURVE",
"473 159 CURVE",
"504 58 OFFCURVE",
"568 9 OFFCURVE",
"664 8 CURVE SMOOTH",
"779 6 OFFCURVE",
"863 69 OFFCURVE",
"863 186 CURVE SMOOTH",
"863 297 OFFCURVE",
"750 377 OFFCURVE",
"580 377 CURVE SMOOTH",
"513 377 OFFCURVE",
"450 368 OFFCURVE",
"394 352 CURVE",
"394 537 LINE",
"467 548 OFFCURVE",
"536 563 OFFCURVE",
"588 580 CURVE",
"580 641 LINE",
"535 624 OFFCURVE",
"466 609 OFFCURVE",
"394 599 CURVE",
"394 781 LINE",
"333 781 LINE",
"333 591 LINE",
"254 583 OFFCURVE",
"176 580 OFFCURVE",
"120 585 CURVE",
"125 521 LINE",
"187 518 OFFCURVE",
"260 522 OFFCURVE",
"333 530 CURVE",
"333 332 LINE",
"205 281 OFFCURVE",
"122 194 OFFCURVE",
"122 101 CURVE SMOOTH",
"122 5 OFFCURVE",
"229 -32 OFFCURVE",
"355 -15 CURVE SMOOTH"
);
},
{
closed = 1;
nodes = (
"239 37 OFFCURVE",
"185 55 OFFCURVE",
"185 103 CURVE SMOOTH",
"185 165 OFFCURVE",
"242 228 OFFCURVE",
"333 270 CURVE",
"333 60 LINE SMOOTH",
"333 46 OFFCURVE",
"327 42 OFFCURVE",
"309 41 CURVE SMOOTH"
);
},
{
closed = 1;
nodes = (
"874 445 OFFCURVE",
"903 485 OFFCURVE",
"910 492 CURVE",
"859 535 OFFCURVE",
"747 603 OFFCURVE",
"684 630 CURVE",
"648 580 LINE",
"720 552 OFFCURVE",
"824 486 OFFCURVE",
"871 439 CURVE"
);
}
);
width = 1000;
},
{
layerId = "34DF84D2-5107-44DD-934E-BD8E209466D9";
paths = (
{
closed = 1;
nodes = (
"368 -6 OFFCURVE",
"376 0 OFFCURVE",
"376 18 CURVE SMOOTH",
"376 291 LINE",
"435 311 OFFCURVE",
"505 323 OFFCURVE",
"580 323 CURVE SMOOTH",
"709 323 OFFCURVE",
"817 272 OFFCURVE",
"817 178 CURVE SMOOTH",
"817 93 OFFCURVE",
"750 50 OFFCURVE",
"663 51 CURVE SMOOTH",
"577 52 OFFCURVE",
"535 95 OFFCURVE",
"514 179 CURVE",
"513 178 OFFCURVE",
"479 165 OFFCURVE",
"478 165 CURVE",
"509 64 OFFCURVE",
"569 16 OFFCURVE",
"663 15 CURVE SMOOTH",
"769 13 OFFCURVE",
"852 68 OFFCURVE",
"852 181 CURVE SMOOTH",
"852 286 OFFCURVE",
"738 357 OFFCURVE",
"580 357 CURVE SMOOTH",
"507 357 OFFCURVE",
"437 346 OFFCURVE",
"376 326 CURVE",
"376 539 LINE",
"451 550 OFFCURVE",
"524 565 OFFCURVE",
"579 584 CURVE",
"572 620 LINE",
"523 602 OFFCURVE",
"451 586 OFFCURVE",
"376 575 CURVE",
"376 775 LINE",
"340 775 LINE",
"340 571 LINE",
"263 562 OFFCURVE",
"184 559 OFFCURVE",
"125 564 CURVE",
"130 525 LINE",
"192 522 OFFCURVE",
"267 526 OFFCURVE",
"340 535 CURVE",
"340 314 LINE",
"216 267 OFFCURVE",
"132 184 OFFCURVE",
"132 93 CURVE SMOOTH",
"132 3 OFFCURVE",
"240 -24 OFFCURVE",
"355 -7 CURVE"
);
},
{
closed = 1;
nodes = (
"237 17 OFFCURVE",
"168 36 OFFCURVE",
"168 94 CURVE SMOOTH",
"168 165 OFFCURVE",
"235 235 OFFCURVE",
"340 278 CURVE",
"340 42 LINE SMOOTH",
"340 29 OFFCURVE",
"336 25 OFFCURVE",
"322 24 CURVE SMOOTH"
);
},
{
closed = 1;
nodes = (
"898 475 LINE",
"850 515 OFFCURVE",
"734 585 OFFCURVE",
"675 611 CURVE",
"653 581 LINE",
"727 552 OFFCURVE",
"828 489 OFFCURVE",
"874 442 CURVE"
);
}
);
width = 1000;
},
{
layerId = "5617B79D-1A8B-4E71-B6B7-038AD2857106";
paths = (
{
closed = 1;
nodes = (
"396 -18 OFFCURVE",
"412 -2 OFFCURVE",
"412 37 CURVE SMOOTH",
"412 294 LINE",
"462 309 OFFCURVE",
"520 318 OFFCURVE",
"581 318 CURVE SMOOTH",
"702 318 OFFCURVE",
"777 268 OFFCURVE",
"777 193 CURVE SMOOTH",
"777 131 OFFCURVE",
"733 91 OFFCURVE",
"666 92 CURVE",
"605 92 OFFCURVE",
"571 125 OFFCURVE",
"552 190 CURVE",
"534 177 OFFCURVE",
"489 159 OFFCURVE",
"468 152 CURVE",
"499 51 OFFCURVE",
"566 1 OFFCURVE",
"666 0 CURVE SMOOTH",
"789 -1 OFFCURVE",
"873 69 OFFCURVE",
"873 192 CURVE SMOOTH",
"873 309 OFFCURVE",
"762 398 OFFCURVE",
"581 398 CURVE",
"520 397 OFFCURVE",
"463 390 OFFCURVE",
"412 378 CURVE",
"412 535 LINE",
"482 545 OFFCURVE",
"548 560 OFFCURVE",
"598 577 CURVE",
"587 662 LINE",
"546 646 OFFCURVE",
"482 633 OFFCURVE",
"412 622 CURVE",
"412 787 LINE",
"326 787 LINE",
"326 612 LINE",
"246 604 OFFCURVE",
"168 602 OFFCURVE",
"115 607 CURVE",
"121 517 LINE",
"181 514 OFFCURVE",
"253 517 OFFCURVE",
"326 524 CURVE",
"326 350 LINE",
"195 296 OFFCURVE",
"113 203 OFFCURVE",
"113 109 CURVE SMOOTH",
"113 8 OFFCURVE",
"217 -41 OFFCURVE",
"355 -23 CURVE SMOOTH"
);
},
{
closed = 1;
nodes = (
"241 57 OFFCURVE",
"202 74 OFFCURVE",
"202 113 CURVE SMOOTH",
"202 166 OFFCURVE",
"249 221 OFFCURVE",
"326 260 CURVE",
"326 79 LINE SMOOTH",
"326 62 OFFCURVE",
"317 59 OFFCURVE",
"296 58 CURVE SMOOTH"
);
},
{
closed = 1;
nodes = (
"873 447 OFFCURVE",
"907 495 OFFCURVE",
"921 509 CURVE",
"868 556 OFFCURVE",
"759 621 OFFCURVE",
"693 649 CURVE",
"643 578 LINE",
"713 551 OFFCURVE",
"819 483 OFFCURVE",
"867 435 CURVE"
);
}
);
width = 1000;
},
{
layerId = "542E90B0-D43E-4A29-B40D-A2B642C3CEF5";
paths = (
{
closed = 1;
nodes = (
"424 -31 OFFCURVE",
"448 -4 OFFCURVE",
"448 55 CURVE SMOOTH",
"448 296 LINE",
"489 306 OFFCURVE",
"534 312 OFFCURVE",
"582 312 CURVE SMOOTH",
"695 312 OFFCURVE",
"737 264 OFFCURVE",
"737 209 CURVE SMOOTH",
"737 169 OFFCURVE",
"717 132 OFFCURVE",
"668 132 CURVE SMOOTH",
"632 132 OFFCURVE",
"606 154 OFFCURVE",
"591 201 CURVE",
"556 176 OFFCURVE",
"498 152 OFFCURVE",
"458 140 CURVE",
"488 39 OFFCURVE",
"563 -15 OFFCURVE",
"669 -15 CURVE SMOOTH",
"810 -15 OFFCURVE",
"894 70 OFFCURVE",
"894 204 CURVE SMOOTH",
"894 332 OFFCURVE",
"786 438 OFFCURVE",
"582 438 CURVE SMOOTH",
"534 438 OFFCURVE",
"490 434 OFFCURVE",
"448 427 CURVE",
"448 531 LINE",
"512 541 OFFCURVE",
"571 555 OFFCURVE",
"616 571 CURVE",
"603 705 LINE",
"568 691 OFFCURVE",
"512 678 OFFCURVE",
"448 669 CURVE",
"448 800 LINE",
"312 800 LINE",
"312 653 LINE",
"231 647 OFFCURVE",
"154 645 OFFCURVE",
"106 650 CURVE",
"112 509 LINE",
"170 506 OFFCURVE",
"240 508 OFFCURVE",
"312 514 CURVE",
"312 386 LINE",
"173 325 OFFCURVE",
"93 222 OFFCURVE",
"93 125 CURVE SMOOTH",
"93 13 OFFCURVE",
"195 -59 OFFCURVE",
"355 -39 CURVE SMOOTH"
);
},
{
closed = 1;
nodes = (
"245 95 OFFCURVE",
"236 111 OFFCURVE",
"236 133 CURVE SMOOTH",
"236 168 OFFCURVE",
"264 205 OFFCURVE",
"312 237 CURVE",
"312 116 LINE SMOOTH",
"312 96 OFFCURVE",
"298 89 OFFCURVE",
"270 92 CURVE SMOOTH"
);
},
{
closed = 1;
nodes = (
"872 453 OFFCURVE",
"917 514 OFFCURVE",
"945 543 CURVE",
"887 596 OFFCURVE",
"785 656 OFFCURVE",
"710 686 CURVE",
"633 575 LINE",
"698 550 OFFCURVE",
"810 476 OFFCURVE",
"861 429 CURVE"
);
}
);
width = 1000;
},
{
layerId = "98035891-75EF-42AC-A061-1C72A0965E4A";
paths = (
{
closed = 1;
nodes = (
"410 -25 OFFCURVE",
"430 -3 OFFCURVE",
"430 46 CURVE SMOOTH",
"430 295 LINE",
"476 308 OFFCURVE",
"527 315 OFFCURVE",
"581 315 CURVE SMOOTH",
"698 315 OFFCURVE",
"757 266 OFFCURVE",
"757 201 CURVE SMOOTH",
"757 150 OFFCURVE",
"725 112 OFFCURVE",
"667 112 CURVE SMOOTH",
"618 112 OFFCURVE",
"588 139 OFFCURVE",
"571 195 CURVE",
"545 177 OFFCURVE",
"493 155 OFFCURVE",
"463 146 CURVE",
"493 45 OFFCURVE",
"565 -7 OFFCURVE",
"668 -7 CURVE",
"800 -8 OFFCURVE",
"883 70 OFFCURVE",
"883 198 CURVE SMOOTH",
"883 321 OFFCURVE",
"774 418 OFFCURVE",
"582 418 CURVE SMOOTH",
"527 418 OFFCURVE",
"477 412 OFFCURVE",
"430 402 CURVE",
"430 533 LINE",
"497 543 OFFCURVE",
"560 557 OFFCURVE",
"607 574 CURVE",
"595 684 LINE",
"557 669 OFFCURVE",
"497 656 OFFCURVE",
"430 646 CURVE",
"430 793 LINE",
"319 794 LINE",
"319 633 LINE",
"239 625 OFFCURVE",
"161 623 OFFCURVE",
"111 628 CURVE",
"117 513 LINE",
"175 510 OFFCURVE",
"246 513 OFFCURVE",
"319 519 CURVE",
"319 368 LINE",
"184 310 OFFCURVE",
"103 212 OFFCURVE",
"103 117 CURVE SMOOTH",
"103 10 OFFCURVE",
"206 -50 OFFCURVE",
"355 -31 CURVE"
);
},
{
closed = 1;
nodes = (
"243 76 OFFCURVE",
"219 92 OFFCURVE",
"219 123 CURVE SMOOTH",
"219 167 OFFCURVE",
"257 213 OFFCURVE",
"319 250 CURVE",
"319 97 LINE SMOOTH",
"319 79 OFFCURVE",
"308 74 OFFCURVE",
"283 75 CURVE SMOOTH"
);
},
{
closed = 1;
nodes = (
"873 450 OFFCURVE",
"912 504 OFFCURVE",
"933 526 CURVE",
"877 576 OFFCURVE",
"772 638 OFFCURVE",
"701 667 CURVE",
"638 577 LINE",
"705 551 OFFCURVE",
"815 479 OFFCURVE",
"864 432 CURVE"
);
}
);
userData = {
com.schriftgestaltung.Glyphs.lastChange = "2020-03-22 07:45:29 +0000";
};
width = 1000;
}
);
unicode = 304A;
},
{
glyphname = "osmall-hira";
lastChange = "2021-05-17 22:56:00 +0000";
layers = (
{
layerId = master01;
paths = (
{
closed = 1;
nodes = (
"411 -25 OFFCURVE",
"421 -15 OFFCURVE",
"421 3 CURVE SMOOTH",
"421 199 LINE",
"466 214 OFFCURVE",
"517 223 OFFCURVE",
"570 223 CURVE SMOOTH",
"661 223 OFFCURVE",
"721 187 OFFCURVE",
"721 126 CURVE SMOOTH",
"721 71 OFFCURVE",
"678 43 OFFCURVE",
"621 44 CURVE",
"570 44 OFFCURVE",
"541 72 OFFCURVE",
"528 127 CURVE",
"519 122 OFFCURVE",
"487 109 OFFCURVE",
"477 106 CURVE",
"499 25 OFFCURVE",
"552 -11 OFFCURVE",
"621 -11 CURVE SMOOTH",
"710 -11 OFFCURVE",
"778 37 OFFCURVE",
"778 126 CURVE SMOOTH",
"778 211 OFFCURVE",
"697 272 OFFCURVE",
"570 272 CURVE SMOOTH",
"518 272 OFFCURVE",
"467 264 OFFCURVE",
"421 251 CURVE",
"421 387 LINE",
"475 395 OFFCURVE",
"526 406 OFFCURVE",
"565 420 CURVE",
"558 471 LINE",
"525 458 OFFCURVE",
"475 447 OFFCURVE",
"421 439 CURVE",
"421 573 LINE",
"369 573 LINE",
"369 433 LINE",
"310 427 OFFCURVE",
"252 425 OFFCURVE",
"211 429 CURVE",
"215 375 LINE",
"260 373 OFFCURVE",
"315 375 OFFCURVE",
"369 381 CURVE",
"369 233 LINE",
"272 192 OFFCURVE",
"207 126 OFFCURVE",
"207 61 CURVE SMOOTH",
"207 -15 OFFCURVE",
"291 -41 OFFCURVE",
"391 -28 CURVE SMOOTH"
);
},
{
closed = 1;
nodes = (
"299 16 OFFCURVE",
"259 28 OFFCURVE",
"259 63 CURVE SMOOTH",
"259 102 OFFCURVE",
"303 146 OFFCURVE",
"369 179 CURVE",
"369 34 LINE SMOOTH",
"369 23 OFFCURVE",
"365 20 OFFCURVE",
"352 19 CURVE SMOOTH"
);
},
{
closed = 1;
nodes = (
"812 350 LINE",
"774 382 OFFCURVE",
"688 434 OFFCURVE",
"640 454 CURVE",
"610 412 LINE",
"663 391 OFFCURVE",
"746 339 OFFCURVE",
"779 305 CURVE"
);
}
);
width = 1000;
},
{
layerId = "34DF84D2-5107-44DD-934E-BD8E209466D9";
paths = (
{
closed = 1;
nodes = (
"402 -20 OFFCURVE",
"408 -14 OFFCURVE",
"408 -4 CURVE SMOOTH",
"408 198 LINE",
"456 215 OFFCURVE",
"512 226 OFFCURVE",
"571 226 CURVE SMOOTH",
"667 226 OFFCURVE",
"737 189 OFFCURVE",
"737 121 CURVE SMOOTH",
"737 59 OFFCURVE",
"683 27 OFFCURVE",
"620 28 CURVE SMOOTH",
"561 29 OFFCURVE",
"528 60 OFFCURVE",
"514 121 CURVE",
"512 119 OFFCURVE",
"484 110 OFFCURVE",
"482 109 CURVE",
"503 29 OFFCURVE",
"553 -5 OFFCURVE",
"620 -5 CURVE SMOOTH",
"702 -5 OFFCURVE",
"770 37 OFFCURVE",
"770 122 CURVE SMOOTH",
"770 202 OFFCURVE",
"691 258 OFFCURVE",
"571 257 CURVE",
"514 257 OFFCURVE",
"458 247 OFFCURVE",
"408 231 CURVE",
"408 390 LINE",
"464 397 OFFCURVE",
"518 409 OFFCURVE",
"559 422 CURVE",
"553 455 LINE",
"517 442 OFFCURVE",
"464 430 OFFCURVE",
"408 422 CURVE",
"408 568 LINE",
"376 568 LINE",
"376 418 LINE",
"318 411 OFFCURVE",
"259 409 OFFCURVE",
"215 413 CURVE",
"219 379 LINE",
"265 376 OFFCURVE",
"321 379 OFFCURVE",
"376 385 CURVE",
"376 219 LINE",
"281 180 OFFCURVE",
"214 118 OFFCURVE",
"214 56 CURVE SMOOTH",
"214 -13 OFFCURVE",
"298 -35 OFFCURVE",
"392 -22 CURVE SMOOTH"
);
},
{
closed = 1;
nodes = (
"297 2 OFFCURVE",
"247 16 OFFCURVE",
"247 56 CURVE SMOOTH",
"247 100 OFFCURVE",
"298 150 OFFCURVE",
"376 185 CURVE",
"376 21 LINE SMOOTH",
"376 11 OFFCURVE",
"373 8 OFFCURVE",
"361 7 CURVE SMOOTH"
);
},
{
closed = 1;
nodes = (
"804 338 LINE",
"767 368 OFFCURVE",
"681 421 OFFCURVE",
"636 440 CURVE",
"616 413 LINE",
"671 392 OFFCURVE",
"749 343 OFFCURVE",
"783 308 CURVE"
);
}
);
width = 1000;
},
{
layerId = "5617B79D-1A8B-4E71-B6B7-038AD2857106";
paths = (
{
closed = 1;
nodes = (
"420 -31 OFFCURVE",
"435 -17 OFFCURVE",
"435 10 CURVE SMOOTH",
"435 201 LINE",
"475 213 OFFCURVE",
"521 220 OFFCURVE",
"570 220 CURVE SMOOTH",
"656 220 OFFCURVE",
"705 185 OFFCURVE",
"705 132 CURVE SMOOTH",
"705 84 OFFCURVE",
"672 59 OFFCURVE",
"622 59 CURVE SMOOTH",
"579 59 OFFCURVE",
"554 83 OFFCURVE",
"541 133 CURVE",
"527 124 OFFCURVE",
"489 108 OFFCURVE",
"472 103 CURVE",
"496 21 OFFCURVE",
"551 -17 OFFCURVE",
"623 -17 CURVE SMOOTH",
"717 -17 OFFCURVE",
"786 36 OFFCURVE",
"786 130 CURVE SMOOTH",
"786 220 OFFCURVE",
"702 287 OFFCURVE",
"570 287 CURVE SMOOTH",
"522 287 OFFCURVE",
"477 281 OFFCURVE",
"435 270 CURVE",
"435 385 LINE",
"486 393 OFFCURVE",
"535 404 OFFCURVE",
"571 417 CURVE",
"563 486 LINE",
"533 475 OFFCURVE",
"486 464 OFFCURVE",
"435 457 CURVE",
"435 578 LINE",
"363 578 LINE",
"363 448 LINE",
"303 442 OFFCURVE",
"246 441 OFFCURVE",
"206 444 CURVE",
"211 371 LINE",
"255 369 OFFCURVE",
"309 371 OFFCURVE",
"363 377 CURVE",
"363 246 LINE",
"264 204 OFFCURVE",
"199 135 OFFCURVE",
"199 66 CURVE SMOOTH",
"199 -17 OFFCURVE",
"285 -48 OFFCURVE",
"391 -34 CURVE"
);
},
{
closed = 1;
nodes = (
"301 30 OFFCURVE",
"272 41 OFFCURVE",
"272 70 CURVE SMOOTH",
"272 104 OFFCURVE",
"307 142 OFFCURVE",
"363 172 CURVE",
"363 47 LINE SMOOTH",
"363 35 OFFCURVE",
"358 31 OFFCURVE",
"344 31 CURVE"
);
},
{
closed = 1;
nodes = (
"820 362 LINE",
"780 396 OFFCURVE",
"695 447 OFFCURVE",
"644 468 CURVE",
"603 411 LINE",
"655 390 OFFCURVE",
"744 334 OFFCURVE",
"775 301 CURVE"
);
}
);
width = 1000;
},
{
layerId = "542E90B0-D43E-4A29-B40D-A2B642C3CEF5";
paths = (
{
closed = 1;
nodes = (
"437 -41 OFFCURVE",
"462 -20 OFFCURVE",
"462 24 CURVE SMOOTH",
"462 202 LINE",
"494 210 OFFCURVE",
"530 214 OFFCURVE",
"569 214 CURVE SMOOTH",
"645 214 OFFCURVE",
"674 181 OFFCURVE",
"674 143 CURVE SMOOTH",
"674 109 OFFCURVE",
"660 90 OFFCURVE",
"623 90 CURVE SMOOTH",
"596 90 OFFCURVE",
"580 106 OFFCURVE",
"569 146 CURVE",
"542 129 OFFCURVE",
"494 107 OFFCURVE",
"463 97 CURVE",
"489 12 OFFCURVE",
"549 -29 OFFCURVE",
"625 -29 CURVE SMOOTH",
"732 -29 OFFCURVE",
"801 34 OFFCURVE",
"801 137 CURVE SMOOTH",
"801 237 OFFCURVE",
"714 316 OFFCURVE",
"569 316 CURVE SMOOTH",
"531 316 OFFCURVE",
"495 313 OFFCURVE",
"462 306 CURVE",
"462 381 LINE",
"508 389 OFFCURVE",
"551 399 OFFCURVE",
"584 411 CURVE",
"573 517 LINE",
"548 507 OFFCURVE",
"508 498 OFFCURVE",
"462 491 CURVE",
"462 588 LINE",
"350 589 LINE",
"350 478 LINE",
"290 474 OFFCURVE",
"233 472 OFFCURVE",
"198 476 CURVE",
"203 364 LINE",
"245 362 OFFCURVE",
"296 364 OFFCURVE",
"350 368 CURVE",
"350 273 LINE",
"247 227 OFFCURVE",
"183 152 OFFCURVE",
"183 77 CURVE SMOOTH",
"183 -20 OFFCURVE",
"272 -61 OFFCURVE",
"389 -47 CURVE SMOOTH"
);
},
{
closed = 1;
nodes = (
"305 57 OFFCURVE",
"298 66 OFFCURVE",
"298 83 CURVE SMOOTH",
"298 108 OFFCURVE",
"317 134 OFFCURVE",
"350 156 CURVE",
"350 74 LINE SMOOTH",
"350 58 OFFCURVE",
"344 53 OFFCURVE",
"327 55 CURVE SMOOTH"
);
},
{
closed = 1;
nodes = (
"837 385 LINE",
"793 423 OFFCURVE",
"708 473 OFFCURVE",
"653 496 CURVE",
"590 408 LINE",
"639 389 OFFCURVE",
"739 325 OFFCURVE",
"767 294 CURVE"
);
}
);
width = 1000;
},
{
layerId = "98035891-75EF-42AC-A061-1C72A0965E4A";
paths = (
{
closed = 1;
nodes = (
"428 -36 OFFCURVE",
"448 -19 OFFCURVE",
"448 17 CURVE SMOOTH",
"448 202 LINE",
"485 211 OFFCURVE",
"526 217 OFFCURVE",
"569 217 CURVE SMOOTH",
"650 217 OFFCURVE",
"690 183 OFFCURVE",
"690 137 CURVE SMOOTH",
"690 96 OFFCURVE",
"666 74 OFFCURVE",
"623 74 CURVE",
"588 75 OFFCURVE",
"567 94 OFFCURVE",
"555 140 CURVE",
"534 126 OFFCURVE",
"491 107 OFFCURVE",
"468 100 CURVE",
"492 17 OFFCURVE",
"550 -23 OFFCURVE",
"624 -23 CURVE SMOOTH",
"725 -23 OFFCURVE",
"794 35 OFFCURVE",
"794 133 CURVE SMOOTH",
"794 229 OFFCURVE",
"708 301 OFFCURVE",
"569 301 CURVE SMOOTH",
"527 301 OFFCURVE",
"486 297 OFFCURVE",
"448 289 CURVE",
"448 383 LINE",
"497 391 OFFCURVE",
"543 401 OFFCURVE",
"577 414 CURVE",
"568 502 LINE",
"541 491 OFFCURVE",
"497 481 OFFCURVE",
"448 474 CURVE",
"448 583 LINE",
"356 584 LINE",
"356 463 LINE",
"297 458 OFFCURVE",
"239 457 OFFCURVE",
"202 460 CURVE",
"207 368 LINE",
"250 366 OFFCURVE",
"303 367 OFFCURVE",
"356 372 CURVE",
"356 259 LINE",
"255 216 OFFCURVE",
"191 144 OFFCURVE",
"191 72 CURVE SMOOTH",
"191 -18 OFFCURVE",
"279 -55 OFFCURVE",
"390 -41 CURVE SMOOTH"
);
},
{
closed = 1;
nodes = (
"303 44 OFFCURVE",
"285 53 OFFCURVE",
"285 76 CURVE SMOOTH",
"285 106 OFFCURVE",
"312 138 OFFCURVE",
"356 164 CURVE",
"356 61 LINE SMOOTH",
"356 46 OFFCURVE",
"351 42 OFFCURVE",
"335 43 CURVE SMOOTH"
);
},
{
closed = 1;
nodes = (
"828 373 LINE",
"787 409 OFFCURVE",
"702 460 OFFCURVE",
"648 482 CURVE",
"597 409 LINE",
"647 390 OFFCURVE",
"742 329 OFFCURVE",
"771 298 CURVE"
);
}
);
userData = {
com.schriftgestaltung.Glyphs.lastChange = "2020-03-22 07:45:29 +0000";
};
width = 1000;
}
);
unicode = 3049;
},
{
glyphname = "ka-hira";
lastChange = "2021-05-17 22:56:00 +0000";
layers = (
{
layerId = master01;
paths = (
{
closed = 1;
nodes = (
"231 90 OFFCURVE",
"325 281 OFFCURVE",
"386 468 CURVE",
"424 471 OFFCURVE",
"459 473 OFFCURVE",
"484 473 CURVE SMOOTH",
"541 473 OFFCURVE",
"582 451 OFFCURVE",
"541 266 CURVE SMOOTH",
"509 122 OFFCURVE",
"484 73 OFFCURVE",
"422 73 CURVE SMOOTH",
"388 73 OFFCURVE",
"357 84 OFFCURVE",
"325 107 CURVE",
"327 91 OFFCURVE",
"325 61 OFFCURVE",
"323 43 CURVE",
"357 19 OFFCURVE",
"391 12 OFFCURVE",
"428 12 CURVE SMOOTH",
"526 12 OFFCURVE",
"568 89 OFFCURVE",
"601 253 CURVE",
"647 474 OFFCURVE",
"593 529 OFFCURVE",
"494 529 CURVE SMOOTH",
"471 529 OFFCURVE",
"439 527 OFFCURVE",
"404 524 CURVE",
"429 608 OFFCURVE",
"446 689 OFFCURVE",
"451 758 CURVE",
"388 768 LINE",
"384 695 OFFCURVE",
"366 608 OFFCURVE",
"339 518 CURVE",
"252 509 OFFCURVE",
"159 497 OFFCURVE",
"109 493 CURVE",
"112 485 OFFCURVE",
"125 440 OFFCURVE",
"125 431 CURVE",
"167 440 OFFCURVE",
"245 452 OFFCURVE",
"321 461 CURVE",
"263 288 OFFCURVE",
"177 116 OFFCURVE",
"95 27 CURVE",
"105 25 OFFCURVE",
"140 0 OFFCURVE",
"147 -6 CURVE"
);
},
{
closed = 1;
nodes = (
"958 309 LINE",
"915 374 OFFCURVE",
"799 493 OFFCURVE",
"726 541 CURVE",
"681 499 LINE",
"747 457 OFFCURVE",
"863 338 OFFCURVE",
"909 264 CURVE"
);
}
);
width = 1000;
},
{
layerId = "34DF84D2-5107-44DD-934E-BD8E209466D9";
paths = (
{
closed = 1;
nodes = (
"225 96 OFFCURVE",
"320 289 OFFCURVE",
"381 475 CURVE",
"424 479 OFFCURVE",
"465 482 OFFCURVE",
"495 482 CURVE SMOOTH",
"555 482 OFFCURVE",
"602 459 OFFCURVE",
"556 255 CURVE SMOOTH",
"525 118 OFFCURVE",
"500 59 OFFCURVE",
"431 59 CURVE SMOOTH",
"394 59 OFFCURVE",
"366 71 OFFCURVE",
"334 98 CURVE",
"334 88 OFFCURVE",
"331 70 OFFCURVE",
"329 59 CURVE",
"364 31 OFFCURVE",
"397 24 OFFCURVE",
"433 24 CURVE SMOOTH",
"521 24 OFFCURVE",
"560 108 OFFCURVE",
"590 246 CURVE SMOOTH",
"638 463 OFFCURVE",
"589 517 OFFCURVE",
"496 517 CURVE SMOOTH",
"468 517 OFFCURVE",
"431 514 OFFCURVE",
"392 510 CURVE",
"418 600 OFFCURVE",
"437 686 OFFCURVE",
"441 758 CURVE",
"406 763 LINE",
"402 689 OFFCURVE",
"383 599 OFFCURVE",
"354 506 CURVE",
"269 496 OFFCURVE",
"178 482 OFFCURVE",
"125 478 CURVE",
"126 477 OFFCURVE",
"138 442 OFFCURVE",
"138 441 CURVE",
"180 449 OFFCURVE",
"263 462 OFFCURVE",
"343 471 CURVE",
"283 292 OFFCURVE",
"193 111 OFFCURVE",
"112 23 CURVE",
"113 23 OFFCURVE",
"139 4 OFFCURVE",
"140 4 CURVE"
);
},
{
closed = 1;
nodes = (
"945 306 LINE",
"902 369 OFFCURVE",
"790 482 OFFCURVE",
"711 530 CURVE",
"688 505 LINE",
"758 463 OFFCURVE",
"870 353 OFFCURVE",
"919 279 CURVE"
);
}
);
width = 1000;
},
{
layerId = "5617B79D-1A8B-4E71-B6B7-038AD2857106";
paths = (
{
closed = 1;
nodes = (
"237 84 OFFCURVE",
"329 274 OFFCURVE",
"392 460 CURVE",
"424 462 OFFCURVE",
"453 464 OFFCURVE",
"474 464 CURVE SMOOTH",
"526 464 OFFCURVE",
"561 443 OFFCURVE",
"526 278 CURVE SMOOTH",
"494 126 OFFCURVE",
"467 87 OFFCURVE",
"413 87 CURVE SMOOTH",
"382 87 OFFCURVE",
"347 97 OFFCURVE",
"316 116 CURVE",
"320 93 OFFCURVE",
"319 51 OFFCURVE",
"318 27 CURVE",
"350 7 OFFCURVE",
"385 0 OFFCURVE",
"422 0 CURVE SMOOTH",
"530 0 OFFCURVE",
"575 70 OFFCURVE",
"612 260 CURVE SMOOTH",
"656 486 OFFCURVE",
"596 541 OFFCURVE",
"493 541 CURVE SMOOTH",
"474 541 OFFCURVE",
"447 540 OFFCURVE",
"416 538 CURVE",
"439 616 OFFCURVE",
"455 692 OFFCURVE",
"461 757 CURVE",
"371 773 LINE",
"366 701 OFFCURVE",
"349 617 OFFCURVE",
"323 530 CURVE",
"235 521 OFFCURVE",
"140 511 OFFCURVE",
"93 507 CURVE",
"99 493 OFFCURVE",
"111 438 OFFCURVE",
"113 421 CURVE",
"154 431 OFFCURVE",
"227 442 OFFCURVE",
"299 451 CURVE",
"242 284 OFFCURVE",
"160 121 OFFCURVE",
"78 31 CURVE",
"96 26 OFFCURVE",
"141 -4 OFFCURVE",
"154 -16 CURVE"
);
},
{
closed = 1;
nodes = (
"972 313 LINE",
"928 380 OFFCURVE",
"809 504 OFFCURVE",
"741 552 CURVE",
"674 494 LINE",
"737 451 OFFCURVE",
"856 322 OFFCURVE",
"900 249 CURVE"
);
}
);
width = 1000;
},
{
layerId = "542E90B0-D43E-4A29-B40D-A2B642C3CEF5";
paths = (
{
closed = 1;
nodes = (
"248 72 OFFCURVE",
"339 258 OFFCURVE",
"402 444 CURVE",
"422 445 OFFCURVE",
"440 445 OFFCURVE",
"453 445 CURVE SMOOTH",
"498 445 OFFCURVE",
"521 426 OFFCURVE",
"496 301 CURVE SMOOTH",
"463 134 OFFCURVE",
"435 116 OFFCURVE",
"396 116 CURVE SMOOTH",
"369 116 OFFCURVE",
"328 124 OFFCURVE",
"297 133 CURVE",
"306 97 OFFCURVE",
"307 32 OFFCURVE",
"306 -6 CURVE",
"336 -18 OFFCURVE",
"373 -24 OFFCURVE",
"411 -24 CURVE SMOOTH",
"540 -24 OFFCURVE",
"591 32 OFFCURVE",
"634 275 CURVE SMOOTH",
"676 508 OFFCURVE",
"603 565 OFFCURVE",
"491 565 CURVE SMOOTH",
"478 565 OFFCURVE",
"461 565 OFFCURVE",
"440 564 CURVE",
"459 632 OFFCURVE",
"473 698 OFFCURVE",
"481 757 CURVE",
"335 783 LINE",
"329 714 OFFCURVE",
"315 635 OFFCURVE",
"293 554 CURVE",
"200 548 OFFCURVE",
"103 540 OFFCURVE",
"60 536 CURVE",
"72 508 OFFCURVE",
"84 435 OFFCURVE",
"87 401 CURVE",
"128 413 OFFCURVE",
"191 423 OFFCURVE",
"255 431 CURVE",
"201 277 OFFCURVE",
"126 130 OFFCURVE",
"43 39 CURVE",
"79 29 OFFCURVE",
"143 -12 OFFCURVE",
"168 -35 CURVE"
);
},
{
closed = 1;
nodes = (
"999 319 LINE",
"954 391 OFFCURVE",
"827 525 OFFCURVE",
"770 574 CURVE",
"660 483 LINE",
"716 440 OFFCURVE",
"841 292 OFFCURVE",
"880 219 CURVE"
);
}
);
width = 1000;
},
{
layerId = "98035891-75EF-42AC-A061-1C72A0965E4A";
paths = (
{
closed = 1;
nodes = (
"242 78 OFFCURVE",
"334 266 OFFCURVE",
"397 452 CURVE",
"423 454 OFFCURVE",
"446 455 OFFCURVE",
"464 455 CURVE SMOOTH",
"512 455 OFFCURVE",
"541 435 OFFCURVE",
"511 289 CURVE SMOOTH",
"478 130 OFFCURVE",
"451 102 OFFCURVE",
"404 102 CURVE SMOOTH",
"375 102 OFFCURVE",
"338 110 OFFCURVE",
"306 124 CURVE",
"313 95 OFFCURVE",
"313 42 OFFCURVE",
"312 11 CURVE",
"343 -5 OFFCURVE",
"379 -12 OFFCURVE",
"417 -12 CURVE SMOOTH",
"535 -12 OFFCURVE",
"583 51 OFFCURVE",
"623 268 CURVE SMOOTH",
"666 497 OFFCURVE",
"599 553 OFFCURVE",
"492 553 CURVE SMOOTH",
"476 553 OFFCURVE",
"454 552 OFFCURVE",
"428 551 CURVE",
"449 624 OFFCURVE",
"464 695 OFFCURVE",
"471 757 CURVE",
"353 778 LINE",
"347 708 OFFCURVE",
"332 626 OFFCURVE",
"308 542 CURVE",
"217 535 OFFCURVE",
"121 525 OFFCURVE",
"76 522 CURVE",
"85 500 OFFCURVE",
"98 437 OFFCURVE",
"100 411 CURVE",
"141 422 OFFCURVE",
"209 433 OFFCURVE",
"277 441 CURVE",
"222 281 OFFCURVE",
"143 125 OFFCURVE",
"60 35 CURVE",
"87 28 OFFCURVE",
"142 -8 OFFCURVE",
"161 -25 CURVE"
);
},
{
closed = 1;
nodes = (
"985 316 LINE",
"941 386 OFFCURVE",
"818 515 OFFCURVE",
"755 563 CURVE",
"667 489 LINE",
"727 445 OFFCURVE",
"848 307 OFFCURVE",
"890 234 CURVE"
);
}
);
userData = {
com.schriftgestaltung.Glyphs.lastChange = "2020-03-22 07:45:29 +0000";
};
width = 1000;
}
);
unicode = 304B;
},
{
glyphname = "ga-hira";
lastChange = "2021-05-17 22:56:00 +0000";
layers = (
{
layerId = master01;
paths = (
{
closed = 1;
nodes = (
"231 90 OFFCURVE",
"325 281 OFFCURVE",
"386 468 CURVE",
"424 471 OFFCURVE",
"459 473 OFFCURVE",
"484 473 CURVE SMOOTH",
"541 473 OFFCURVE",
"582 451 OFFCURVE",
"541 266 CURVE SMOOTH",
"509 122 OFFCURVE",
"483 73 OFFCURVE",
"422 73 CURVE SMOOTH",
"388 73 OFFCURVE",
"357 84 OFFCURVE",
"325 107 CURVE",
"327 91 OFFCURVE",
"325 61 OFFCURVE",
"323 43 CURVE",
"357 19 OFFCURVE",
"391 12 OFFCURVE",
"428 12 CURVE SMOOTH",
"525 12 OFFCURVE",
"568 89 OFFCURVE",
"601 253 CURVE",
"647 474 OFFCURVE",
"592 529 OFFCURVE",
"494 529 CURVE SMOOTH",
"471 529 OFFCURVE",
"439 527 OFFCURVE",
"404 524 CURVE",
"429 608 OFFCURVE",
"445 689 OFFCURVE",
"451 758 CURVE",
"388 768 LINE",
"384 695 OFFCURVE",
"366 608 OFFCURVE",
"339 518 CURVE",
"252 509 OFFCURVE",
"159 497 OFFCURVE",
"109 493 CURVE",
"112 485 OFFCURVE",
"125 440 OFFCURVE",
"125 431 CURVE",
"167 440 OFFCURVE",
"245 452 OFFCURVE",
"321 461 CURVE",
"263 288 OFFCURVE",
"177 116 OFFCURVE",
"95 27 CURVE",
"105 25 OFFCURVE",
"140 0 OFFCURVE",
"147 -6 CURVE"
);
},
{
closed = 1;
nodes = (
"958 309 LINE",
"915 374 OFFCURVE",
"799 493 OFFCURVE",
"726 541 CURVE",
"681 499 LINE",
"747 457 OFFCURVE",
"863 338 OFFCURVE",
"909 264 CURVE"
);
},
{
closed = 1;
nodes = (
"914 575 LINE",
"881 601 OFFCURVE",
"799 649 OFFCURVE",
"759 666 CURVE",
"734 630 LINE",
"778 612 OFFCURVE",
"850 570 OFFCURVE",
"887 538 CURVE"
);
},
{
closed = 1;
nodes = (
"969 667 LINE",
"935 692 OFFCURVE",
"852 738 OFFCURVE",
"811 753 CURVE",
"787 716 LINE",
"831 700 OFFCURVE",
"905 660 OFFCURVE",
"943 630 CURVE"
);
}
);
width = 1000;
},
{
layerId = "34DF84D2-5107-44DD-934E-BD8E209466D9";
paths = (
{
closed = 1;
nodes = (
"225 96 OFFCURVE",
"320 289 OFFCURVE",
"380 475 CURVE",
"424 479 OFFCURVE",
"465 482 OFFCURVE",
"495 482 CURVE SMOOTH",
"555 482 OFFCURVE",
"602 459 OFFCURVE",
"556 255 CURVE SMOOTH",
"525 118 OFFCURVE",
"500 59 OFFCURVE",
"431 59 CURVE SMOOTH",
"394 59 OFFCURVE",
"366 71 OFFCURVE",
"334 98 CURVE",
"334 88 OFFCURVE",
"331 70 OFFCURVE",
"329 59 CURVE",
"364 31 OFFCURVE",
"397 24 OFFCURVE",
"433 24 CURVE SMOOTH",
"521 24 OFFCURVE",
"560 108 OFFCURVE",
"590 246 CURVE SMOOTH",
"638 463 OFFCURVE",
"589 517 OFFCURVE",
"496 517 CURVE SMOOTH",
"468 517 OFFCURVE",
"431 514 OFFCURVE",
"392 510 CURVE",
"418 600 OFFCURVE",
"437 686 OFFCURVE",
"441 758 CURVE",
"406 763 LINE",
"402 689 OFFCURVE",
"383 599 OFFCURVE",
"354 506 CURVE",
"269 496 OFFCURVE",
"178 482 OFFCURVE",
"125 478 CURVE",
"126 477 OFFCURVE",
"138 442 OFFCURVE",
"138 441 CURVE",
"180 449 OFFCURVE",
"263 462 OFFCURVE",
"343 471 CURVE",
"283 292 OFFCURVE",
"193 111 OFFCURVE",
"112 23 CURVE",
"113 23 OFFCURVE",
"139 4 OFFCURVE",
"140 4 CURVE"
);
},
{
closed = 1;
nodes = (
"945 306 LINE",
"902 369 OFFCURVE",
"790 482 OFFCURVE",
"711 530 CURVE",
"688 505 LINE",
"758 463 OFFCURVE",
"870 353 OFFCURVE",
"919 279 CURVE"
);
},
{
closed = 1;
nodes = (
"916 559 LINE",
"881 585 OFFCURVE",
"794 633 OFFCURVE",
"752 650 CURVE",
"735 624 LINE",
"780 607 OFFCURVE",
"859 563 OFFCURVE",
"897 532 CURVE"
);
},
{
closed = 1;
nodes = (
"964 649 LINE",
"929 674 OFFCURVE",
"840 718 OFFCURVE",
"797 734 CURVE",
"781 707 LINE",
"827 692 OFFCURVE",
"908 651 OFFCURVE",
"947 622 CURVE"
);
}
);
width = 1000;
},
{
layerId = "5617B79D-1A8B-4E71-B6B7-038AD2857106";
paths = (
{
closed = 1;
nodes = (
"237 84 OFFCURVE",
"329 274 OFFCURVE",
"392 460 CURVE",
"424 462 OFFCURVE",
"453 464 OFFCURVE",
"474 464 CURVE SMOOTH",
"526 464 OFFCURVE",
"561 443 OFFCURVE",
"526 278 CURVE SMOOTH",
"493 126 OFFCURVE",
"467 87 OFFCURVE",
"413 87 CURVE SMOOTH",
"382 87 OFFCURVE",
"347 97 OFFCURVE",
"316 116 CURVE",
"320 93 OFFCURVE",
"319 51 OFFCURVE",
"318 27 CURVE",
"350 7 OFFCURVE",
"385 0 OFFCURVE",
"422 0 CURVE SMOOTH",
"530 0 OFFCURVE",
"575 70 OFFCURVE",
"612 260 CURVE SMOOTH",
"656 485 OFFCURVE",
"596 541 OFFCURVE",
"493 541 CURVE SMOOTH",
"474 541 OFFCURVE",
"447 540 OFFCURVE",
"416 538 CURVE",
"439 616 OFFCURVE",
"455 692 OFFCURVE",
"461 757 CURVE",
"371 773 LINE",
"366 701 OFFCURVE",
"349 617 OFFCURVE",
"323 530 CURVE",
"234 521 OFFCURVE",
"140 511 OFFCURVE",
"93 507 CURVE",
"99 492 OFFCURVE",
"111 438 OFFCURVE",
"113 421 CURVE",
"154 431 OFFCURVE",
"227 442 OFFCURVE",
"299 451 CURVE",
"242 284 OFFCURVE",
"160 121 OFFCURVE",
"78 31 CURVE",
"96 26 OFFCURVE",
"141 -4 OFFCURVE",
"154 -16 CURVE"
);
},
{
closed = 1;
nodes = (
"972 313 LINE",
"928 380 OFFCURVE",
"809 504 OFFCURVE",
"741 552 CURVE",
"674 494 LINE",
"737 451 OFFCURVE",
"856 322 OFFCURVE",
"900 249 CURVE"
);
},
{
closed = 1;
nodes = (
"913 591 LINE",
"881 617 OFFCURVE",
"804 665 OFFCURVE",
"767 682 CURVE",
"733 635 LINE",
"775 617 OFFCURVE",
"841 576 OFFCURVE",
"877 544 CURVE"
);
},
{
closed = 1;
nodes = (
"974 686 LINE",
"942 711 OFFCURVE",
"863 757 OFFCURVE",
"826 773 CURVE",
"793 726 LINE",
"835 709 OFFCURVE",
"902 669 OFFCURVE",
"939 638 CURVE"
);
}
);
width = 1000;
},
{
layerId = "542E90B0-D43E-4A29-B40D-A2B642C3CEF5";
paths = (
{
closed = 1;
nodes = (
"248 72 OFFCURVE",
"339 258 OFFCURVE",
"402 444 CURVE",
"422 445 OFFCURVE",
"440 445 OFFCURVE",
"453 445 CURVE SMOOTH",
"498 445 OFFCURVE",
"521 426 OFFCURVE",
"496 301 CURVE SMOOTH",
"463 134 OFFCURVE",
"435 116 OFFCURVE",
"396 116 CURVE SMOOTH",
"369 116 OFFCURVE",
"328 124 OFFCURVE",
"297 133 CURVE",
"306 97 OFFCURVE",
"307 32 OFFCURVE",
"306 -6 CURVE",
"336 -18 OFFCURVE",
"373 -24 OFFCURVE",
"411 -24 CURVE SMOOTH",
"540 -24 OFFCURVE",
"591 32 OFFCURVE",
"634 275 CURVE SMOOTH",
"676 508 OFFCURVE",
"603 565 OFFCURVE",
"491 565 CURVE SMOOTH",
"478 565 OFFCURVE",
"461 565 OFFCURVE",
"440 564 CURVE",
"459 632 OFFCURVE",
"473 698 OFFCURVE",
"481 757 CURVE",
"335 783 LINE",
"329 714 OFFCURVE",
"315 635 OFFCURVE",
"293 554 CURVE",
"200 548 OFFCURVE",
"103 540 OFFCURVE",
"60 536 CURVE",
"72 508 OFFCURVE",
"84 435 OFFCURVE",
"87 401 CURVE",
"128 413 OFFCURVE",
"191 423 OFFCURVE",
"255 431 CURVE",
"201 277 OFFCURVE",
"126 130 OFFCURVE",
"43 39 CURVE",
"79 29 OFFCURVE",
"143 -12 OFFCURVE",
"168 -35 CURVE"
);
},
{
closed = 1;
nodes = (
"999 319 LINE",
"954 391 OFFCURVE",
"827 525 OFFCURVE",
"770 574 CURVE",
"660 483 LINE",
"716 440 OFFCURVE",
"841 292 OFFCURVE",
"880 219 CURVE"
);
},
{
closed = 1;
nodes = (
"910 624 LINE",
"881 649 OFFCURVE",
"813 697 OFFCURVE",
"781 713 CURVE",
"731 647 LINE",
"769 627 OFFCURVE",
"823 589 OFFCURVE",
"857 555 CURVE"
);
},
{
closed = 1;
nodes = (
"984 722 LINE",
"955 748 OFFCURVE",
"887 795 OFFCURVE",
"855 811 CURVE",
"805 745 LINE",
"843 725 OFFCURVE",
"897 688 OFFCURVE",
"931 654 CURVE"
);
}
);
width = 1000;
},
{
layerId = "98035891-75EF-42AC-A061-1C72A0965E4A";
paths = (
{
closed = 1;
nodes = (
"242 78 OFFCURVE",
"334 266 OFFCURVE",
"397 452 CURVE",
"423 454 OFFCURVE",
"446 455 OFFCURVE",
"464 455 CURVE SMOOTH",
"512 455 OFFCURVE",
"541 435 OFFCURVE",
"511 289 CURVE SMOOTH",
"478 130 OFFCURVE",
"451 102 OFFCURVE",
"404 102 CURVE SMOOTH",
"375 102 OFFCURVE",
"338 110 OFFCURVE",
"306 124 CURVE",
"313 95 OFFCURVE",
"313 42 OFFCURVE",
"312 10 CURVE",
"343 -5 OFFCURVE",
"379 -12 OFFCURVE",
"417 -12 CURVE SMOOTH",
"535 -12 OFFCURVE",
"583 51 OFFCURVE",
"623 268 CURVE SMOOTH",
"666 497 OFFCURVE",
"599 553 OFFCURVE",
"492 553 CURVE SMOOTH",
"476 553 OFFCURVE",
"454 552 OFFCURVE",
"428 551 CURVE",
"449 624 OFFCURVE",
"464 695 OFFCURVE",
"471 757 CURVE",
"353 778 LINE",
"347 708 OFFCURVE",
"332 626 OFFCURVE",
"308 542 CURVE",
"217 535 OFFCURVE",
"121 525 OFFCURVE",
"76 521 CURVE",
"85 500 OFFCURVE",
"98 437 OFFCURVE",
"100 411 CURVE",
"141 422 OFFCURVE",
"209 433 OFFCURVE",
"277 441 CURVE",
"222 281 OFFCURVE",
"143 125 OFFCURVE",
"60 35 CURVE",
"87 27 OFFCURVE",
"142 -8 OFFCURVE",
"161 -26 CURVE"
);
},
{
closed = 1;
nodes = (
"985 316 LINE",
"941 386 OFFCURVE",
"818 515 OFFCURVE",
"755 563 CURVE",
"667 489 LINE",
"727 445 OFFCURVE",
"848 307 OFFCURVE",
"890 234 CURVE"
);
},
{
closed = 1;
nodes = (
"911 608 LINE",
"881 633 OFFCURVE",
"808 681 OFFCURVE",
"774 697 CURVE",
"732 641 LINE",
"772 622 OFFCURVE",
"832 583 OFFCURVE",
"867 550 CURVE"
);
},
{
closed = 1;
nodes = (
"979 704 LINE",
"948 729 OFFCURVE",
"875 776 OFFCURVE",
"841 792 CURVE",
"799 735 LINE",
"839 717 OFFCURVE",
"899 679 OFFCURVE",
"935 646 CURVE"
);
}
);
userData = {
com.schriftgestaltung.Glyphs.lastChange = "2020-03-22 07:45:29 +0000";
};
width = 1000;
}
);
unicode = 304C;
},
{
glyphname = "ki-hira";
lastChange = "2021-05-17 22:56:00 +0000";
layers = (
{
layerId = master01;
paths = (
{
closed = 1;
nodes = (
"658 -25 OFFCURVE",
"666 6 OFFCURVE",
"675 22 CURVE",
"497 15 OFFCURVE",
"343 33 OFFCURVE",
"343 147 CURVE SMOOTH",
"343 235 OFFCURVE",
"521 276 OFFCURVE",
"699 204 CURVE",
"736 250 LINE",
"682 295 OFFCURVE",
"630 364 OFFCURVE",
"585 439 CURVE",
"686 459 OFFCURVE",
"776 482 OFFCURVE",
"819 503 CURVE",
"795 557 LINE",
"755 537 OFFCURVE",
"661 514 OFFCURVE",
"554 494 CURVE",
"532 536 OFFCURVE",
"512 579 OFFCURVE",
"495 620 CURVE",
"577 633 OFFCURVE",
"653 648 OFFCURVE",
"697 663 CURVE",
"680 720 LINE",
"635 704 OFFCURVE",
"558 688 OFFCURVE",
"474 675 CURVE",
"455 728 OFFCURVE",
"443 775 OFFCURVE",
"439 810 CURVE",
"374 802 LINE",
"379 769 OFFCURVE",
"393 721 OFFCURVE",
"413 666 CURVE",
"329 655 OFFCURVE",
"246 648 OFFCURVE",
"188 648 CURVE",
"201 590 LINE",
"262 591 OFFCURVE",
"349 599 OFFCURVE",
"434 611 CURVE",
"451 569 OFFCURVE",
"471 526 OFFCURVE",
"493 483 CURVE",
"362 460 OFFCURVE",
"226 444 OFFCURVE",
"156 446 CURVE",
"171 388 LINE",
"247 387 OFFCURVE",
"389 404 OFFCURVE",
"523 428 CURVE",
"555 373 OFFCURVE",
"590 322 OFFCURVE",
"626 281 CURVE",
"457 314 OFFCURVE",
"278 273 OFFCURVE",
"278 144 CURVE SMOOTH",
"278 -13 OFFCURVE",
"443 -49 OFFCURVE",
"656 -41 CURVE"
);
}
);
width = 1000;
},
{
layerId = "34DF84D2-5107-44DD-934E-BD8E209466D9";
paths = (
{
closed = 1;
nodes = (
"660 -24 OFFCURVE",
"664 -6 OFFCURVE",
"668 3 CURVE",
"492 -2 OFFCURVE",
"331 17 OFFCURVE",
"331 142 CURVE SMOOTH",
"331 237 OFFCURVE",
"513 278 OFFCURVE",
"705 211 CURVE",
"722 241 LINE",
"667 288 OFFCURVE",
"613 361 OFFCURVE",
"567 440 CURVE",
"675 460 OFFCURVE",
"772 483 OFFCURVE",
"810 502 CURVE",
"795 534 LINE",
"759 516 OFFCURVE",
"659 493 OFFCURVE",
"548 473 CURVE",
"521 522 OFFCURVE",
"497 573 OFFCURVE",
"478 621 CURVE",
"565 634 OFFCURVE",
"645 650 OFFCURVE",
"689 665 CURVE",
"678 698 LINE",
"635 683 OFFCURVE",
"553 668 OFFCURVE",
"465 655 CURVE",
"443 713 OFFCURVE",
"429 765 OFFCURVE",
"425 803 CURVE",
"386 799 LINE",
"392 763 OFFCURVE",
"408 710 OFFCURVE",
"430 650 CURVE",
"342 638 OFFCURVE",
"252 630 OFFCURVE",
"192 629 CURVE",
"201 595 LINE",
"265 596 OFFCURVE",
"356 604 OFFCURVE",
"444 616 CURVE",
"463 568 OFFCURVE",
"486 517 OFFCURVE",
"513 467 CURVE",
"375 443 OFFCURVE",
"227 424 OFFCURVE",
"160 425 CURVE",
"172 391 LINE",
"243 390 OFFCURVE",
"392 409 OFFCURVE",
"531 433 CURVE",
"568 367 OFFCURVE",
"611 304 OFFCURVE",
"656 258 CURVE",
"489 297 OFFCURVE",
"295 270 OFFCURVE",
"295 141 CURVE SMOOTH",
"295 -10 OFFCURVE",
"461 -38 OFFCURVE",
"659 -33 CURVE"
);
}
);
width = 1000;
},
{
layerId = "5617B79D-1A8B-4E71-B6B7-038AD2857106";
paths = (
{
closed = 1;
nodes = (
"655 -26 OFFCURVE",
"668 18 OFFCURVE",
"683 42 CURVE",
"501 33 OFFCURVE",
"355 49 OFFCURVE",
"355 152 CURVE SMOOTH",
"355 234 OFFCURVE",
"529 275 OFFCURVE",
"693 196 CURVE",
"749 259 LINE",
"697 301 OFFCURVE",
"647 366 OFFCURVE",
"604 439 CURVE",
"697 458 OFFCURVE",
"781 481 OFFCURVE",
"827 504 CURVE",
"796 581 LINE",
"752 559 OFFCURVE",
"662 535 OFFCURVE",
"561 515 CURVE",
"543 549 OFFCURVE",
"527 584 OFFCURVE",
"512 618 CURVE",
"590 631 OFFCURVE",
"661 647 OFFCURVE",
"705 662 CURVE",
"682 742 LINE",
"637 725 OFFCURVE",
"563 708 OFFCURVE",
"483 695 CURVE",
"467 742 OFFCURVE",
"456 785 OFFCURVE",
"453 817 CURVE",
"361 806 LINE",
"367 774 OFFCURVE",
"379 731 OFFCURVE",
"396 682 CURVE",
"317 672 OFFCURVE",
"239 666 OFFCURVE",
"183 667 CURVE",
"201 586 LINE",
"260 586 OFFCURVE",
"342 594 OFFCURVE",
"425 605 CURVE",
"439 570 OFFCURVE",
"456 534 OFFCURVE",
"474 499 CURVE",
"350 478 OFFCURVE",
"224 464 OFFCURVE",
"151 467 CURVE",
"171 385 LINE",
"251 384 OFFCURVE",
"386 399 OFFCURVE",
"515 422 CURVE",
"541 379 OFFCURVE",
"568 338 OFFCURVE",
"597 303 CURVE",
"425 330 OFFCURVE",
"261 276 OFFCURVE",
"261 147 CURVE SMOOTH",
"261 -15 OFFCURVE",
"424 -60 OFFCURVE",
"653 -49 CURVE"
);
}
);
width = 1000;
},
{
layerId = "542E90B0-D43E-4A29-B40D-A2B642C3CEF5";
paths = (
{
closed = 1;
nodes = (
"650 -29 OFFCURVE",
"672 43 OFFCURVE",
"697 81 CURVE",
"510 67 OFFCURVE",
"379 81 OFFCURVE",
"379 163 CURVE SMOOTH",
"379 230 OFFCURVE",
"545 273 OFFCURVE",
"682 182 CURVE",
"776 277 LINE",
"728 315 OFFCURVE",
"682 373 OFFCURVE",
"640 439 CURVE",
"720 458 OFFCURVE",
"792 481 OFFCURVE",
"843 506 CURVE",
"796 628 LINE",
"747 602 OFFCURVE",
"665 578 OFFCURVE",
"574 558 CURVE",
"564 577 OFFCURVE",
"555 597 OFFCURVE",
"547 616 CURVE",
"616 629 OFFCURVE",
"678 644 OFFCURVE",
"722 659 CURVE",
"686 785 LINE",
"640 766 OFFCURVE",
"574 749 OFFCURVE",
"503 735 CURVE",
"491 772 OFFCURVE",
"484 805 OFFCURVE",
"481 831 CURVE",
"336 813 LINE",
"341 786 OFFCURVE",
"349 752 OFFCURVE",
"362 713 CURVE",
"292 705 OFFCURVE",
"226 702 OFFCURVE",
"173 704 CURVE",
"200 577 LINE",
"255 577 OFFCURVE",
"329 584 OFFCURVE",
"406 594 CURVE",
"415 573 OFFCURVE",
"424 552 OFFCURVE",
"434 531 CURVE",
"326 514 OFFCURVE",
"218 505 OFFCURVE",
"143 509 CURVE",
"169 379 LINE",
"257 378 OFFCURVE",
"379 389 OFFCURVE",
"498 410 CURVE",
"511 388 OFFCURVE",
"524 368 OFFCURVE",
"537 347 CURVE",
"360 363 OFFCURVE",
"226 282 OFFCURVE",
"226 154 CURVE SMOOTH",
"226 -20 OFFCURVE",
"386 -81 OFFCURVE",
"648 -66 CURVE"
);
}
);
width = 1000;
},
{
layerId = "98035891-75EF-42AC-A061-1C72A0965E4A";
paths = (
{
closed = 1;
nodes = (
"652 -28 OFFCURVE",
"670 31 OFFCURVE",
"690 62 CURVE",
"506 50 OFFCURVE",
"367 65 OFFCURVE",
"367 158 CURVE SMOOTH",
"367 232 OFFCURVE",
"537 274 OFFCURVE",
"688 189 CURVE",
"762 268 LINE",
"713 308 OFFCURVE",
"665 370 OFFCURVE",
"622 439 CURVE",
"709 458 OFFCURVE",
"786 481 OFFCURVE",
"835 505 CURVE",
"796 604 LINE",
"749 580 OFFCURVE",
"664 556 OFFCURVE",
"567 536 CURVE",
"554 563 OFFCURVE",
"541 590 OFFCURVE",
"530 617 CURVE",
"603 630 OFFCURVE",
"670 645 OFFCURVE",
"714 661 CURVE",
"684 763 LINE",
"638 745 OFFCURVE",
"568 728 OFFCURVE",
"493 715 CURVE",
"479 757 OFFCURVE",
"470 795 OFFCURVE",
"467 824 CURVE",
"349 810 LINE",
"354 780 OFFCURVE",
"364 742 OFFCURVE",
"379 698 CURVE",
"305 688 OFFCURVE",
"233 684 OFFCURVE",
"178 685 CURVE",
"201 581 LINE",
"257 582 OFFCURVE",
"336 589 OFFCURVE",
"416 600 CURVE",
"427 572 OFFCURVE",
"440 543 OFFCURVE",
"454 515 CURVE",
"338 496 OFFCURVE",
"221 485 OFFCURVE",
"147 488 CURVE",
"170 382 LINE",
"255 381 OFFCURVE",
"382 394 OFFCURVE",
"507 416 CURVE",
"526 384 OFFCURVE",
"546 353 OFFCURVE",
"567 325 CURVE",
"393 346 OFFCURVE",
"243 279 OFFCURVE",
"243 150 CURVE SMOOTH",
"243 -17 OFFCURVE",
"405 -70 OFFCURVE",
"650 -57 CURVE"
);
}
);
userData = {
com.schriftgestaltung.Glyphs.lastChange = "2020-03-22 07:45:29 +0000";
};
width = 1000;
}
);
unicode = 304D;
},
{
glyphname = "gi-hira";
lastChange = "2021-05-17 22:56:00 +0000";
layers = (
{
layerId = master01;
paths = (
{
closed = 1;
nodes = (
"655 -25 OFFCURVE",
"663 6 OFFCURVE",
"672 22 CURVE",
"494 15 OFFCURVE",
"340 33 OFFCURVE",
"340 147 CURVE SMOOTH",
"340 235 OFFCURVE",
"518 277 OFFCURVE",
"696 204 CURVE",
"733 250 LINE",
"679 295 OFFCURVE",
"627 364 OFFCURVE",
"582 439 CURVE",
"683 459 OFFCURVE",
"773 482 OFFCURVE",
"816 503 CURVE",
"792 557 LINE",
"752 537 OFFCURVE",
"658 514 OFFCURVE",
"551 494 CURVE",
"529 536 OFFCURVE",
"509 579 OFFCURVE",
"492 620 CURVE",
"574 633 OFFCURVE",
"650 648 OFFCURVE",
"694 663 CURVE",
"677 720 LINE",
"632 704 OFFCURVE",
"555 688 OFFCURVE",
"471 675 CURVE",
"452 728 OFFCURVE",
"440 775 OFFCURVE",
"436 810 CURVE",
"371 802 LINE",
"376 769 OFFCURVE",
"390 721 OFFCURVE",
"410 666 CURVE",
"326 655 OFFCURVE",
"243 648 OFFCURVE",
"184 648 CURVE",
"198 590 LINE",
"259 591 OFFCURVE",
"346 599 OFFCURVE",
"431 611 CURVE",
"448 569 OFFCURVE",
"468 526 OFFCURVE",
"490 483 CURVE",
"359 460 OFFCURVE",
"222 444 OFFCURVE",
"153 446 CURVE",
"168 388 LINE",
"244 387 OFFCURVE",
"386 404 OFFCURVE",
"520 428 CURVE",
"552 373 OFFCURVE",
"586 322 OFFCURVE",
"623 281 CURVE",
"454 314 OFFCURVE",
"275 273 OFFCURVE",
"275 144 CURVE SMOOTH",
"275 -13 OFFCURVE",
"439 -49 OFFCURVE",
"653 -41 CURVE"
);
},
{
closed = 1;
nodes = (
"879 636 LINE",
"853 669 OFFCURVE",
"785 737 OFFCURVE",
"751 763 CURVE",
"718 734 LINE",
"756 706 OFFCURVE",
"815 647 OFFCURVE",
"843 607 CURVE"
);
},
{
closed = 1;
nodes = (
"955 712 LINE",
"928 744 OFFCURVE",
"859 809 OFFCURVE",
"824 834 CURVE",
"791 805 LINE",
"830 778 OFFCURVE",
"891 721 OFFCURVE",
"920 682 CURVE"
);
}
);
width = 1000;
},
{
layerId = "34DF84D2-5107-44DD-934E-BD8E209466D9";
paths = (
{
closed = 1;
nodes = (
"657 -24 OFFCURVE",
"661 -6 OFFCURVE",
"665 3 CURVE",
"489 -2 OFFCURVE",
"328 17 OFFCURVE",
"328 142 CURVE SMOOTH",
"328 237 OFFCURVE",
"510 278 OFFCURVE",
"701 211 CURVE",
"719 241 LINE",
"664 288 OFFCURVE",
"610 361 OFFCURVE",
"564 440 CURVE",
"672 460 OFFCURVE",
"769 483 OFFCURVE",
"807 502 CURVE",
"792 534 LINE",
"755 516 OFFCURVE",
"656 493 OFFCURVE",
"545 473 CURVE",
"518 522 OFFCURVE",
"494 573 OFFCURVE",
"475 621 CURVE",
"561 634 OFFCURVE",
"642 650 OFFCURVE",
"686 665 CURVE",
"675 698 LINE",
"632 683 OFFCURVE",
"550 668 OFFCURVE",
"461 655 CURVE",
"440 713 OFFCURVE",
"426 765 OFFCURVE",
"422 803 CURVE",
"383 799 LINE",
"389 763 OFFCURVE",
"405 710 OFFCURVE",
"427 650 CURVE",
"339 638 OFFCURVE",
"249 630 OFFCURVE",
"189 629 CURVE",
"198 595 LINE",
"262 596 OFFCURVE",
"352 604 OFFCURVE",
"440 616 CURVE",
"460 568 OFFCURVE",
"483 517 OFFCURVE",
"510 467 CURVE",
"372 443 OFFCURVE",
"224 424 OFFCURVE",
"157 425 CURVE",
"169 391 LINE",
"240 390 OFFCURVE",
"389 409 OFFCURVE",
"528 433 CURVE",
"565 367 OFFCURVE",
"608 304 OFFCURVE",
"653 258 CURVE",
"486 297 OFFCURVE",
"292 270 OFFCURVE",
"292 141 CURVE SMOOTH",
"292 -10 OFFCURVE",
"458 -38 OFFCURVE",
"656 -33 CURVE"
);
},
{
closed = 1;
nodes = (
"872 622 LINE",
"846 656 OFFCURVE",
"773 725 OFFCURVE",
"737 752 CURVE",
"714 731 LINE",
"754 703 OFFCURVE",
"819 640 OFFCURVE",
"847 601 CURVE"
);
},
{
closed = 1;
nodes = (
"942 697 LINE",
"914 729 OFFCURVE",
"839 796 OFFCURVE",
"802 821 CURVE",
"779 799 LINE",
"821 773 OFFCURVE",
"888 713 OFFCURVE",
"918 675 CURVE"
);
}
);
width = 1000;
},
{
layerId = "5617B79D-1A8B-4E71-B6B7-038AD2857106";
paths = (
{
closed = 1;
nodes = (
"652 -26 OFFCURVE",
"665 19 OFFCURVE",
"680 42 CURVE",
"498 33 OFFCURVE",
"352 49 OFFCURVE",
"352 152 CURVE SMOOTH",
"352 234 OFFCURVE",
"526 275 OFFCURVE",
"690 197 CURVE",
"746 259 LINE",
"695 302 OFFCURVE",
"644 367 OFFCURVE",
"601 439 CURVE",
"695 459 OFFCURVE",
"778 482 OFFCURVE",
"824 504 CURVE",
"793 581 LINE",
"749 559 OFFCURVE",
"659 535 OFFCURVE",
"558 515 CURVE",
"540 550 OFFCURVE",
"524 585 OFFCURVE",
"509 618 CURVE",
"587 631 OFFCURVE",
"658 647 OFFCURVE",
"702 662 CURVE",
"679 742 LINE",
"634 725 OFFCURVE",
"560 708 OFFCURVE",
"480 695 CURVE",
"464 743 OFFCURVE",
"453 785 OFFCURVE",
"450 817 CURVE",
"358 806 LINE",
"364 775 OFFCURVE",
"376 731 OFFCURVE",
"393 682 CURVE",
"314 672 OFFCURVE",
"236 666 OFFCURVE",
"180 667 CURVE",
"198 586 LINE",
"257 587 OFFCURVE",
"339 594 OFFCURVE",
"422 605 CURVE",
"437 571 OFFCURVE",
"453 535 OFFCURVE",
"471 499 CURVE",
"347 478 OFFCURVE",
"221 465 OFFCURVE",
"148 467 CURVE",
"168 385 LINE",
"248 384 OFFCURVE",
"383 399 OFFCURVE",
"512 422 CURVE",
"538 379 OFFCURVE",
"565 338 OFFCURVE",
"594 303 CURVE",
"422 330 OFFCURVE",
"258 276 OFFCURVE",
"258 148 CURVE SMOOTH",
"258 -15 OFFCURVE",
"421 -59 OFFCURVE",
"650 -49 CURVE"
);
},
{
closed = 1;
nodes = (
"885 650 LINE",
"861 683 OFFCURVE",
"798 749 OFFCURVE",
"766 774 CURVE",
"722 737 LINE",
"758 709 OFFCURVE",
"812 653 OFFCURVE",
"839 613 CURVE"
);
},
{
closed = 1;
nodes = (
"968 727 LINE",
"943 759 OFFCURVE",
"878 823 OFFCURVE",
"846 848 CURVE",
"802 810 LINE",
"839 783 OFFCURVE",
"894 728 OFFCURVE",
"922 689 CURVE"
);
}
);
width = 1000;
},
{
layerId = "542E90B0-D43E-4A29-B40D-A2B642C3CEF5";
paths = (
{
closed = 1;
nodes = (
"647 -29 OFFCURVE",
"669 44 OFFCURVE",
"694 82 CURVE",
"507 68 OFFCURVE",
"376 81 OFFCURVE",
"376 163 CURVE SMOOTH",
"376 231 OFFCURVE",
"542 273 OFFCURVE",
"679 182 CURVE",
"773 278 LINE",
"725 315 OFFCURVE",
"679 373 OFFCURVE",
"637 439 CURVE",
"717 458 OFFCURVE",
"789 481 OFFCURVE",
"841 506 CURVE",
"793 628 LINE",
"744 603 OFFCURVE",
"663 578 OFFCURVE",
"571 558 CURVE",
"562 578 OFFCURVE",
"553 597 OFFCURVE",
"544 617 CURVE",
"613 630 OFFCURVE",
"676 645 OFFCURVE",
"719 660 CURVE",
"683 786 LINE",
"637 767 OFFCURVE",
"571 749 OFFCURVE",
"500 736 CURVE",
"488 773 OFFCURVE",
"481 805 OFFCURVE",
"479 831 CURVE",
"333 814 LINE",
"338 787 OFFCURVE",
"347 752 OFFCURVE",
"359 714 CURVE",
"290 706 OFFCURVE",
"223 702 OFFCURVE",
"170 704 CURVE",
"198 577 LINE",
"252 578 OFFCURVE",
"326 584 OFFCURVE",
"404 594 CURVE",
"412 574 OFFCURVE",
"422 553 OFFCURVE",
"431 532 CURVE",
"323 515 OFFCURVE",
"215 506 OFFCURVE",
"140 509 CURVE",
"166 379 LINE",
"255 378 OFFCURVE",
"376 390 OFFCURVE",
"495 410 CURVE",
"508 389 OFFCURVE",
"521 368 OFFCURVE",
"534 348 CURVE",
"358 363 OFFCURVE",
"223 282 OFFCURVE",
"223 154 CURVE SMOOTH",
"223 -19 OFFCURVE",
"383 -80 OFFCURVE",
"645 -65 CURVE"
);
},
{
closed = 1;
nodes = (
"898 678 LINE",
"876 710 OFFCURVE",
"822 772 OFFCURVE",
"795 796 CURVE",
"730 743 LINE",
"762 715 OFFCURVE",
"805 666 OFFCURVE",
"831 625 CURVE"
);
},
{
closed = 1;
nodes = (
"993 756 LINE",
"971 788 OFFCURVE",
"917 850 OFFCURVE",
"890 874 CURVE",
"825 821 LINE",
"857 793 OFFCURVE",
"901 744 OFFCURVE",
"926 703 CURVE"
);
}
);
width = 1000;
},
{
layerId = "98035891-75EF-42AC-A061-1C72A0965E4A";
paths = (
{
closed = 1;
nodes = (
"650 -28 OFFCURVE",
"667 31 OFFCURVE",
"687 62 CURVE",
"503 50 OFFCURVE",
"364 65 OFFCURVE",
"364 158 CURVE SMOOTH",
"364 232 OFFCURVE",
"534 274 OFFCURVE",
"685 189 CURVE",
"759 269 LINE",
"710 308 OFFCURVE",
"662 370 OFFCURVE",
"619 439 CURVE",
"706 458 OFFCURVE",
"783 481 OFFCURVE",
"832 505 CURVE",
"793 604 LINE",
"746 581 OFFCURVE",
"661 557 OFFCURVE",
"565 536 CURVE",
"551 563 OFFCURVE",
"538 591 OFFCURVE",
"527 617 CURVE",
"600 630 OFFCURVE",
"667 646 OFFCURVE",
"711 661 CURVE",
"681 764 LINE",
"635 746 OFFCURVE",
"566 729 OFFCURVE",
"490 715 CURVE",
"476 757 OFFCURVE",
"467 795 OFFCURVE",
"464 824 CURVE",
"346 810 LINE",
"351 781 OFFCURVE",
"361 742 OFFCURVE",
"376 698 CURVE",
"302 689 OFFCURVE",
"230 684 OFFCURVE",
"175 685 CURVE",
"198 582 LINE",
"255 582 OFFCURVE",
"333 589 OFFCURVE",
"413 600 CURVE",
"425 572 OFFCURVE",
"437 544 OFFCURVE",
"451 515 CURVE",
"335 496 OFFCURVE",
"218 485 OFFCURVE",
"144 488 CURVE",
"167 382 LINE",
"252 381 OFFCURVE",
"380 394 OFFCURVE",
"504 416 CURVE",
"523 384 OFFCURVE",
"543 354 OFFCURVE",
"564 325 CURVE",
"390 347 OFFCURVE",
"241 279 OFFCURVE",
"241 151 CURVE SMOOTH",
"241 -17 OFFCURVE",
"402 -70 OFFCURVE",
"648 -57 CURVE"
);
},
{
closed = 1;
nodes = (
"892 664 LINE",
"869 697 OFFCURVE",
"810 760 OFFCURVE",
"780 785 CURVE",
"726 740 LINE",
"760 712 OFFCURVE",
"809 660 OFFCURVE",
"835 619 CURVE"
);
},
{
closed = 1;
nodes = (
"980 741 LINE",
"957 774 OFFCURVE",
"897 836 OFFCURVE",
"868 861 CURVE",
"814 816 LINE",
"848 788 OFFCURVE",
"897 736 OFFCURVE",
"924 696 CURVE"
);
}
);
userData = {
com.schriftgestaltung.Glyphs.lastChange = "2020-03-22 07:45:29 +0000";
};
width = 1000;
}
);
unicode = 304E;
},
{
glyphname = "ku-hira";
lastChange = "2021-05-17 22:56:00 +0000";
layers = (
{
layerId = master01;
paths = (
{
closed = 1;
nodes = (
"629 -57 OFFCURVE",
"669 -28 OFFCURVE",
"681 -23 CURVE",
"622 72 OFFCURVE",
"463 278 OFFCURVE",
"371 371 CURVE SMOOTH",
"350 393 OFFCURVE",
"349 410 OFFCURVE",
"372 430 CURVE",
"459 512 OFFCURVE",
"610 680 OFFCURVE",
"668 770 CURVE",
"609 810 LINE",
"561 717 OFFCURVE",
"406 544 OFFCURVE",
"316 460 CURVE SMOOTH",
"267 414 OFFCURVE",
"267 390 OFFCURVE",
"312 345 CURVE SMOOTH",
"401 254 OFFCURVE",
"563 44 OFFCURVE",
"621 -65 CURVE"
);
}
);
width = 1000;
},
{
layerId = "34DF84D2-5107-44DD-934E-BD8E209466D9";
paths = (
{
closed = 1;
nodes = (
"631 -59 OFFCURVE",
"660 -34 OFFCURVE",
"661 -34 CURVE",
"601 66 OFFCURVE",
"453 264 OFFCURVE",
"351 369 CURVE SMOOTH",
"328 392 OFFCURVE",
"327 409 OFFCURVE",
"353 433 CURVE SMOOTH",
"446 518 OFFCURVE",
"592 684 OFFCURVE",
"649 779 CURVE",
"617 800 LINE",
"572 717 OFFCURVE",
"427 551 OFFCURVE",
"333 461 CURVE SMOOTH",
"281 411 OFFCURVE",
"282 391 OFFCURVE",
"326 345 CURVE SMOOTH",
"421 244 OFFCURVE",
"574 43 OFFCURVE",
"630 -60 CURVE"
);
}
);
width = 1000;
},
{
layerId = "5617B79D-1A8B-4E71-B6B7-038AD2857106";
paths = (
{
closed = 1;
nodes = (
"628 -54 OFFCURVE",
"677 -22 OFFCURVE",
"700 -12 CURVE",
"642 79 OFFCURVE",
"474 291 OFFCURVE",
"392 374 CURVE SMOOTH",
"372 394 OFFCURVE",
"371 410 OFFCURVE",
"391 428 CURVE SMOOTH",
"473 506 OFFCURVE",
"628 675 OFFCURVE",
"687 761 CURVE",
"601 820 LINE",
"550 718 OFFCURVE",
"386 537 OFFCURVE",
"299 458 CURVE SMOOTH",
"253 416 OFFCURVE",
"252 390 OFFCURVE",
"297 345 CURVE SMOOTH",
"381 263 OFFCURVE",
"552 46 OFFCURVE",
"612 -70 CURVE"
);
}
);
width = 1000;
},
{
layerId = "542E90B0-D43E-4A29-B40D-A2B642C3CEF5";
paths = (
{
closed = 1;
nodes = (
"625 -49 OFFCURVE",
"694 -9 OFFCURVE",
"739 9 CURVE",
"683 91 OFFCURVE",
"496 318 OFFCURVE",
"433 379 CURVE SMOOTH",
"415 396 OFFCURVE",
"416 410 OFFCURVE",
"429 424 CURVE SMOOTH",
"500 495 OFFCURVE",
"665 666 OFFCURVE",
"726 743 CURVE",
"585 839 LINE",
"529 719 OFFCURVE",
"344 522 OFFCURVE",
"265 456 CURVE SMOOTH",
"224 422 OFFCURVE",
"222 388 OFFCURVE",
"269 345 CURVE SMOOTH",
"341 281 OFFCURVE",
"530 48 OFFCURVE",
"593 -80 CURVE"
);
}
);
width = 1000;
},
{
layerId = "98035891-75EF-42AC-A061-1C72A0965E4A";
paths = (
{
closed = 1;
nodes = (
"626 -52 OFFCURVE",
"686 -15 OFFCURVE",
"719 -2 CURVE",
"663 85 OFFCURVE",
"485 305 OFFCURVE",
"412 377 CURVE SMOOTH",
"394 395 OFFCURVE",
"394 410 OFFCURVE",
"410 426 CURVE SMOOTH",
"486 501 OFFCURVE",
"647 671 OFFCURVE",
"707 752 CURVE",
"593 829 LINE",
"540 719 OFFCURVE",
"365 530 OFFCURVE",
"282 457 CURVE SMOOTH",
"238 419 OFFCURVE",
"237 389 OFFCURVE",
"283 345 CURVE SMOOTH",
"362 272 OFFCURVE",
"541 47 OFFCURVE",
"602 -75 CURVE"
);
}
);
userData = {
com.schriftgestaltung.Glyphs.lastChange = "2020-03-22 07:45:29 +0000";
};
width = 1000;
}
);
unicode = 304F;
},
{
glyphname = "gu-hira";
lastChange = "2021-05-17 22:56:00 +0000";
layers = (
{
layerId = master01;
paths = (
{
closed = 1;
nodes = (
"630 -57 OFFCURVE",
"670 -28 OFFCURVE",
"681 -23 CURVE",
"623 72 OFFCURVE",
"464 278 OFFCURVE",
"372 371 CURVE SMOOTH",
"351 393 OFFCURVE",
"350 410 OFFCURVE",
"373 430 CURVE",
"460 512 OFFCURVE",
"611 680 OFFCURVE",
"669 770 CURVE",
"610 810 LINE",
"562 717 OFFCURVE",
"407 544 OFFCURVE",
"317 460 CURVE SMOOTH",
"268 414 OFFCURVE",
"268 390 OFFCURVE",
"312 345 CURVE SMOOTH",
"402 254 OFFCURVE",
"564 44 OFFCURVE",
"622 -65 CURVE"
);
},
{
closed = 1;
nodes = (
"851 511 LINE",
"825 544 OFFCURVE",
"757 610 OFFCURVE",
"722 637 CURVE",
"689 607 LINE",
"727 580 OFFCURVE",
"787 521 OFFCURVE",
"816 481 CURVE"
);
},
{
closed = 1;
nodes = (
"926 587 LINE",
"900 619 OFFCURVE",
"829 684 OFFCURVE",
"794 709 CURVE",
"762 679 LINE",
"801 652 OFFCURVE",
"862 595 OFFCURVE",
"892 556 CURVE"
);
}
);
width = 1000;
},
{
layerId = "34DF84D2-5107-44DD-934E-BD8E209466D9";
paths = (
{
closed = 1;
nodes = (
"631 -59 OFFCURVE",
"660 -34 OFFCURVE",
"661 -34 CURVE",
"601 66 OFFCURVE",
"453 264 OFFCURVE",
"351 369 CURVE SMOOTH",
"328 392 OFFCURVE",
"327 409 OFFCURVE",
"353 433 CURVE SMOOTH",
"446 518 OFFCURVE",
"592 684 OFFCURVE",
"649 779 CURVE",
"617 800 LINE",
"572 717 OFFCURVE",
"427 551 OFFCURVE",
"333 461 CURVE SMOOTH",
"281 411 OFFCURVE",
"283 391 OFFCURVE",
"326 345 CURVE SMOOTH",
"421 244 OFFCURVE",
"574 43 OFFCURVE",
"630 -60 CURVE"
);
},
{
closed = 1;
nodes = (
"843 503 LINE",
"816 536 OFFCURVE",
"744 605 OFFCURVE",
"707 633 CURVE",
"684 611 LINE",
"724 584 OFFCURVE",
"789 521 OFFCURVE",
"818 481 CURVE"
);
},
{
closed = 1;
nodes = (
"912 578 LINE",
"884 610 OFFCURVE",
"809 676 OFFCURVE",
"772 702 CURVE",
"749 680 LINE",
"791 654 OFFCURVE",
"858 594 OFFCURVE",
"888 555 CURVE"
);
}
);
width = 1000;
},
{
layerId = "5617B79D-1A8B-4E71-B6B7-038AD2857106";
paths = (
{
closed = 1;
nodes = (
"629 -54 OFFCURVE",
"679 -22 OFFCURVE",
"702 -12 CURVE",
"644 79 OFFCURVE",
"476 291 OFFCURVE",
"393 374 CURVE SMOOTH",
"373 394 OFFCURVE",
"373 410 OFFCURVE",
"393 428 CURVE",
"474 506 OFFCURVE",
"630 675 OFFCURVE",
"689 761 CURVE",
"602 820 LINE",
"552 718 OFFCURVE",
"387 537 OFFCURVE",
"300 458 CURVE SMOOTH",
"254 416 OFFCURVE",
"254 390 OFFCURVE",
"299 345 CURVE SMOOTH",
"383 263 OFFCURVE",
"554 46 OFFCURVE",
"613 -70 CURVE"
);
},
{
closed = 1;
nodes = (
"859 518 LINE",
"834 551 OFFCURVE",
"770 616 OFFCURVE",
"738 641 CURVE",
"695 603 LINE",
"731 575 OFFCURVE",
"786 520 OFFCURVE",
"813 480 CURVE"
);
},
{
closed = 1;
nodes = (
"940 596 LINE",
"915 628 OFFCURVE",
"849 691 OFFCURVE",
"817 715 CURVE",
"774 677 LINE",
"811 651 OFFCURVE",
"867 597 OFFCURVE",
"895 557 CURVE"
);
}
);
width = 1000;
},
{
layerId = "542E90B0-D43E-4A29-B40D-A2B642C3CEF5";
paths = (
{
closed = 1;
nodes = (
"628 -49 OFFCURVE",
"697 -9 OFFCURVE",
"742 9 CURVE",
"687 91 OFFCURVE",
"499 318 OFFCURVE",
"436 379 CURVE SMOOTH",
"419 396 OFFCURVE",
"419 410 OFFCURVE",
"433 424 CURVE SMOOTH",
"503 495 OFFCURVE",
"668 666 OFFCURVE",
"729 743 CURVE",
"588 839 LINE",
"532 719 OFFCURVE",
"347 522 OFFCURVE",
"268 456 CURVE SMOOTH",
"227 422 OFFCURVE",
"225 388 OFFCURVE",
"272 345 CURVE",
"345 281 OFFCURVE",
"533 48 OFFCURVE",
"596 -80 CURVE"
);
},
{
closed = 1;
nodes = (
"875 534 LINE",
"852 565 OFFCURVE",
"796 626 OFFCURVE",
"769 649 CURVE",
"706 594 LINE",
"738 567 OFFCURVE",
"783 519 OFFCURVE",
"809 478 CURVE"
);
},
{
closed = 1;
nodes = (
"968 614 LINE",
"945 645 OFFCURVE",
"889 706 OFFCURVE",
"862 729 CURVE",
"799 675 LINE",
"831 647 OFFCURVE",
"876 599 OFFCURVE",
"902 559 CURVE"
);
}
);
width = 1000;
},
{
layerId = "98035891-75EF-42AC-A061-1C72A0965E4A";
paths = (
{
closed = 1;
nodes = (
"629 -52 OFFCURVE",
"688 -15 OFFCURVE",
"722 -2 CURVE",
"665 85 OFFCURVE",
"487 305 OFFCURVE",
"415 377 CURVE SMOOTH",
"396 395 OFFCURVE",
"396 410 OFFCURVE",
"413 426 CURVE SMOOTH",
"489 501 OFFCURVE",
"649 671 OFFCURVE",
"709 752 CURVE",
"595 829 LINE",
"542 719 OFFCURVE",
"367 530 OFFCURVE",
"284 457 CURVE SMOOTH",
"241 419 OFFCURVE",
"239 389 OFFCURVE",
"286 345 CURVE SMOOTH",
"364 272 OFFCURVE",
"544 47 OFFCURVE",
"605 -75 CURVE"
);
},
{
closed = 1;
nodes = (
"867 526 LINE",
"843 558 OFFCURVE",
"783 621 OFFCURVE",
"753 645 CURVE",
"700 599 LINE",
"734 571 OFFCURVE",
"784 519 OFFCURVE",
"811 479 CURVE"
);
},
{
closed = 1;
nodes = (
"954 605 LINE",
"930 637 OFFCURVE",
"869 698 OFFCURVE",
"839 722 CURVE",
"786 676 LINE",
"821 649 OFFCURVE",
"871 598 OFFCURVE",
"899 558 CURVE"
);
}
);
userData = {
com.schriftgestaltung.Glyphs.lastChange = "2020-03-22 07:45:29 +0000";
};
width = 1000;
}
);
unicode = 3050;
},
{
glyphname = "ke-hira";
lastChange = "2021-05-17 22:56:00 +0000";
layers = (
{
layerId = master01;
paths = (
{
closed = 1;
nodes = (
"621 46 OFFCURVE",
"696 183 OFFCURVE",
"696 394 CURVE SMOOTH",
"696 511 LINE",
"770 518 OFFCURVE",
"838 524 OFFCURVE",
"873 530 CURVE",
"873 595 LINE",
"835 586 OFFCURVE",
"769 578 OFFCURVE",
"696 571 CURVE",
"696 781 LINE",
"633 781 LINE",
"633 565 LINE",
"533 557 OFFCURVE",
"433 553 OFFCURVE",
"382 556 CURVE",
"391 490 LINE",
"434 492 OFFCURVE",
"533 498 OFFCURVE",
"633 506 CURVE",
"633 394 LINE SMOOTH",
"633 195 OFFCURVE",
"558 78 OFFCURVE",
"418 7 CURVE",
"435 -4 OFFCURVE",
"453 -25 OFFCURVE",
"464 -42 CURVE"
);
},
{
closed = 1;
nodes = (
"248 116 LINE",
"221 234 OFFCURVE",
"215 589 OFFCURVE",
"238 715 CURVE",
"173 724 LINE",
"153 590 OFFCURVE",
"160 232 OFFCURVE",
"185 96 CURVE"
);
}
);
width = 1000;
},
{
layerId = "34DF84D2-5107-44DD-934E-BD8E209466D9";
paths = (
{
closed = 1;
nodes = (
"605 53 OFFCURVE",
"679 188 OFFCURVE",
"679 389 CURVE SMOOTH",
"679 523 LINE",
"757 529 OFFCURVE",
"829 536 OFFCURVE",
"866 540 CURVE",
"866 579 LINE",
"826 570 OFFCURVE",
"755 562 OFFCURVE",
"679 555 CURVE",
"679 772 LINE",
"644 772 LINE",
"644 552 LINE",
"540 543 OFFCURVE",
"433 537 OFFCURVE",
"380 540 CURVE",
"387 502 LINE",
"430 504 OFFCURVE",
"539 511 OFFCURVE",
"644 520 CURVE",
"644 389 LINE SMOOTH",
"644 192 OFFCURVE",
"566 67 OFFCURVE",
"432 -5 CURVE",
"441 -10 OFFCURVE",
"454 -24 OFFCURVE",
"459 -33 CURVE"
);
},
{
closed = 1;
nodes = (
"232 116 LINE",
"206 232 OFFCURVE",
"198 580 OFFCURVE",
"221 706 CURVE",
"183 711 LINE",
"164 579 OFFCURVE",
"170 236 OFFCURVE",
"195 101 CURVE"
);
}
);
width = 1000;
},
{
layerId = "5617B79D-1A8B-4E71-B6B7-038AD2857106";
paths = (
{
closed = 1;
nodes = (
"638 39 OFFCURVE",
"712 178 OFFCURVE",
"712 398 CURVE SMOOTH",
"712 500 LINE",
"783 507 OFFCURVE",
"847 513 OFFCURVE",
"880 519 CURVE",
"880 612 LINE",
"844 603 OFFCURVE",
"782 594 OFFCURVE",
"712 587 CURVE",
"712 789 LINE",
"622 789 LINE",
"622 579 LINE",
"527 572 OFFCURVE",
"433 569 OFFCURVE",
"384 572 CURVE",
"396 479 LINE",
"437 480 OFFCURVE",
"528 486 OFFCURVE",
"622 493 CURVE",
"622 398 LINE SMOOTH",
"622 197 OFFCURVE",
"549 88 OFFCURVE",
"404 20 CURVE",
"430 3 OFFCURVE",
"453 -27 OFFCURVE",
"470 -52 CURVE"
);
},
{
closed = 1;
nodes = (
"265 116 LINE",
"236 235 OFFCURVE",
"231 598 OFFCURVE",
"255 724 CURVE",
"162 737 LINE",
"143 602 OFFCURVE",
"150 227 OFFCURVE",
"174 90 CURVE"
);
}
);
width = 1000;
},
{
layerId = "542E90B0-D43E-4A29-B40D-A2B642C3CEF5";
paths = (
{
closed = 1;
nodes = (
"671 25 OFFCURVE",
"745 167 OFFCURVE",
"745 408 CURVE SMOOTH",
"745 478 LINE",
"810 485 OFFCURVE",
"865 492 OFFCURVE",
"894 498 CURVE",
"894 645 LINE",
"862 635 OFFCURVE",
"808 626 OFFCURVE",
"745 619 CURVE",
"745 806 LINE",
"600 806 LINE",
"600 607 LINE",
"515 602 OFFCURVE",
"433 601 OFFCURVE",
"387 604 CURVE",
"405 457 LINE",
"443 457 OFFCURVE",
"519 460 OFFCURVE",
"600 466 CURVE",
"600 408 LINE SMOOTH",
"600 201 OFFCURVE",
"533 110 OFFCURVE",
"375 44 CURVE",
"418 15 OFFCURVE",
"452 -30 OFFCURVE",
"481 -72 CURVE"
);
},
{
closed = 1;
nodes = (
"298 115 LINE",
"267 239 OFFCURVE",
"264 616 OFFCURVE",
"290 741 CURVE",
"142 762 LINE",
"122 626 OFFCURVE",
"129 218 OFFCURVE",
"154 80 CURVE"
);
}
);
width = 1000;
},
{
layerId = "98035891-75EF-42AC-A061-1C72A0965E4A";
paths = (
{
closed = 1;
nodes = (
"654 32 OFFCURVE",
"729 172 OFFCURVE",
"729 403 CURVE SMOOTH",
"729 489 LINE",
"797 496 OFFCURVE",
"856 502 OFFCURVE",
"887 508 CURVE",
"887 629 LINE",
"853 619 OFFCURVE",
"795 610 OFFCURVE",
"729 603 CURVE",
"729 798 LINE",
"611 798 LINE",
"611 593 LINE",
"521 587 OFFCURVE",
"433 585 OFFCURVE",
"385 588 CURVE",
"401 468 LINE",
"440 468 OFFCURVE",
"523 473 OFFCURVE",
"611 480 CURVE",
"611 403 LINE SMOOTH",
"611 199 OFFCURVE",
"541 99 OFFCURVE",
"389 32 CURVE",
"424 9 OFFCURVE",
"452 -28 OFFCURVE",
"476 -62 CURVE"
);
},
{
closed = 1;
nodes = (
"281 115 LINE",
"252 237 OFFCURVE",
"247 607 OFFCURVE",
"273 733 CURVE",
"152 749 LINE",
"132 614 OFFCURVE",
"139 223 OFFCURVE",
"164 85 CURVE"
);
}
);
userData = {
com.schriftgestaltung.Glyphs.lastChange = "2020-03-22 07:45:29 +0000";
};
width = 1000;
}
);
unicode = 3051;
},
{
glyphname = "ge-hira";
lastChange = "2021-05-17 22:56:00 +0000";
layers = (
{
layerId = master01;
paths = (
{
closed = 1;
nodes = (
"619 46 OFFCURVE",
"693 183 OFFCURVE",
"693 394 CURVE SMOOTH",
"693 508 LINE",
"768 514 OFFCURVE",
"836 521 OFFCURVE",
"870 526 CURVE",
"870 592 LINE",
"832 583 OFFCURVE",
"766 574 OFFCURVE",
"693 567 CURVE",
"693 781 LINE",
"630 781 LINE",
"630 562 LINE",
"531 554 OFFCURVE",
"431 550 OFFCURVE",
"380 553 CURVE",
"389 487 LINE",
"431 488 OFFCURVE",
"531 495 OFFCURVE",
"630 503 CURVE",
"630 394 LINE SMOOTH",
"630 195 OFFCURVE",
"555 78 OFFCURVE",
"415 7 CURVE",
"433 -4 OFFCURVE",
"451 -25 OFFCURVE",
"462 -42 CURVE"
);
},
{
closed = 1;
nodes = (
"246 116 LINE",
"219 234 OFFCURVE",
"212 589 OFFCURVE",
"236 715 CURVE",
"170 724 LINE",
"151 590 OFFCURVE",
"158 232 OFFCURVE",
"182 96 CURVE"
);
},
{
closed = 1;
nodes = (
"910 652 LINE",
"885 686 OFFCURVE",
"819 754 OFFCURVE",
"786 781 CURVE",
"751 753 LINE",
"788 725 OFFCURVE",
"847 665 OFFCURVE",
"874 624 CURVE"
);
},
{
closed = 1;
nodes = (
"988 724 LINE",
"962 757 OFFCURVE",
"894 823 OFFCURVE",
"860 849 CURVE",
"826 821 LINE",
"864 794 OFFCURVE",
"924 736 OFFCURVE",
"952 696 CURVE"
);
}
);
width = 1000;
},
{
layerId = "34DF84D2-5107-44DD-934E-BD8E209466D9";
paths = (
{
closed = 1;
nodes = (
"602 53 OFFCURVE",
"676 188 OFFCURVE",
"676 389 CURVE SMOOTH",
"676 522 LINE",
"754 529 OFFCURVE",
"826 535 OFFCURVE",
"862 540 CURVE",
"863 578 LINE",
"822 570 OFFCURVE",
"752 561 OFFCURVE",
"676 554 CURVE",
"676 772 LINE",
"640 772 LINE",
"640 551 LINE",
"537 543 OFFCURVE",
"430 537 OFFCURVE",
"377 540 CURVE",
"383 501 LINE",
"427 503 OFFCURVE",
"535 511 OFFCURVE",
"640 519 CURVE",
"640 389 LINE SMOOTH",
"640 192 OFFCURVE",
"563 67 OFFCURVE",
"429 -5 CURVE",
"438 -10 OFFCURVE",
"450 -24 OFFCURVE",
"456 -33 CURVE"
);
},
{
closed = 1;
nodes = (
"229 116 LINE",
"202 232 OFFCURVE",
"195 580 OFFCURVE",
"218 706 CURVE",
"180 711 LINE",
"161 579 OFFCURVE",
"167 236 OFFCURVE",
"192 101 CURVE"
);
},
{
closed = 1;
nodes = (
"908 640 LINE",
"881 674 OFFCURVE",
"809 743 OFFCURVE",
"773 770 CURVE",
"749 749 LINE",
"789 721 OFFCURVE",
"854 658 OFFCURVE",
"883 619 CURVE"
);
},
{
closed = 1;
nodes = (
"978 715 LINE",
"950 747 OFFCURVE",
"875 813 OFFCURVE",
"838 839 CURVE",
"815 817 LINE",
"856 791 OFFCURVE",
"924 731 OFFCURVE",
"954 692 CURVE"
);
}
);
width = 1000;
},
{
layerId = "5617B79D-1A8B-4E71-B6B7-038AD2857106";
paths = (
{
closed = 1;
nodes = (
"636 39 OFFCURVE",
"711 178 OFFCURVE",
"711 398 CURVE SMOOTH",
"711 494 LINE",
"782 500 OFFCURVE",
"845 507 OFFCURVE",
"878 513 CURVE",
"878 606 LINE",
"843 596 OFFCURVE",
"780 588 OFFCURVE",
"711 581 CURVE",
"711 789 LINE",
"620 789 LINE",
"620 573 LINE",
"525 566 OFFCURVE",
"432 563 OFFCURVE",
"382 566 CURVE",
"394 473 LINE",
"435 474 OFFCURVE",
"526 479 OFFCURVE",
"620 486 CURVE",
"620 398 LINE SMOOTH",
"620 197 OFFCURVE",
"548 88 OFFCURVE",
"402 20 CURVE",
"428 3 OFFCURVE",
"451 -27 OFFCURVE",
"468 -52 CURVE"
);
},
{
closed = 1;
nodes = (
"263 116 LINE",
"235 235 OFFCURVE",
"229 598 OFFCURVE",
"254 724 CURVE",
"161 737 LINE",
"141 602 OFFCURVE",
"148 227 OFFCURVE",
"173 90 CURVE"
);
},
{
closed = 1;
nodes = (
"912 664 LINE",
"890 697 OFFCURVE",
"829 765 OFFCURVE",
"799 792 CURVE",
"752 758 LINE",
"787 729 OFFCURVE",
"839 671 OFFCURVE",
"864 629 CURVE"
);
},
{
closed = 1;
nodes = (
"998 734 LINE",
"975 767 OFFCURVE",
"913 833 OFFCURVE",
"882 859 CURVE",
"836 825 LINE",
"871 797 OFFCURVE",
"924 740 OFFCURVE",
"950 699 CURVE"
);
}
);
width = 1000;
},
{
layerId = "542E90B0-D43E-4A29-B40D-A2B642C3CEF5";
paths = (
{
closed = 1;
nodes = (
"671 25 OFFCURVE",
"745 167 OFFCURVE",
"745 408 CURVE SMOOTH",
"745 466 LINE",
"810 472 OFFCURVE",
"865 479 OFFCURVE",
"894 485 CURVE",
"894 633 LINE",
"862 623 OFFCURVE",
"808 614 OFFCURVE",
"745 607 CURVE",
"745 806 LINE",
"600 806 LINE",
"600 595 LINE",
"515 590 OFFCURVE",
"433 588 OFFCURVE",
"387 592 CURVE",
"405 444 LINE",
"443 444 OFFCURVE",
"519 448 OFFCURVE",
"600 454 CURVE",
"600 408 LINE SMOOTH",
"600 201 OFFCURVE",
"533 110 OFFCURVE",
"375 44 CURVE",
"418 15 OFFCURVE",
"452 -30 OFFCURVE",
"481 -72 CURVE"
);
},
{
closed = 1;
nodes = (
"298 115 LINE",
"267 239 OFFCURVE",
"264 616 OFFCURVE",
"290 741 CURVE",
"142 762 LINE",
"122 626 OFFCURVE",
"129 218 OFFCURVE",
"154 80 CURVE"
);
},
{
closed = 1;
nodes = (
"917 687 LINE",
"898 721 OFFCURVE",
"849 788 OFFCURVE",
"824 814 CURVE",
"756 767 LINE",
"785 737 OFFCURVE",
"823 683 OFFCURVE",
"845 640 CURVE"
);
},
{
closed = 1;
nodes = (
"1019 753 LINE",
"1000 787 OFFCURVE",
"951 854 OFFCURVE",
"926 880 CURVE",
"857 833 LINE",
"886 802 OFFCURVE",
"925 749 OFFCURVE",
"947 706 CURVE"
);
}
);
width = 1000;
},
{
layerId = "98035891-75EF-42AC-A061-1C72A0965E4A";
paths = (
{
closed = 1;
nodes = (
"653 32 OFFCURVE",
"728 172 OFFCURVE",
"728 403 CURVE SMOOTH",
"728 480 LINE",
"796 486 OFFCURVE",
"855 493 OFFCURVE",
"886 499 CURVE",
"886 619 LINE",
"852 609 OFFCURVE",
"794 601 OFFCURVE",
"728 594 CURVE",
"728 798 LINE",
"610 798 LINE",
"610 584 LINE",
"520 578 OFFCURVE",
"433 575 OFFCURVE",
"385 579 CURVE",
"400 459 LINE",
"439 459 OFFCURVE",
"522 463 OFFCURVE",
"610 470 CURVE",
"610 403 LINE SMOOTH",
"610 199 OFFCURVE",
"540 99 OFFCURVE",
"389 32 CURVE",
"423 9 OFFCURVE",
"451 -28 OFFCURVE",
"475 -62 CURVE"
);
},
{
closed = 1;
nodes = (
"281 115 LINE",
"251 237 OFFCURVE",
"246 607 OFFCURVE",
"272 733 CURVE",
"151 749 LINE",
"132 614 OFFCURVE",
"139 223 OFFCURVE",
"163 85 CURVE"
);
},
{
closed = 1;
nodes = (
"915 676 LINE",
"894 709 OFFCURVE",
"839 777 OFFCURVE",
"811 803 CURVE",
"754 763 LINE",
"786 733 OFFCURVE",
"831 677 OFFCURVE",
"855 635 CURVE"
);
},
{
closed = 1;
nodes = (
"1008 744 LINE",
"987 777 OFFCURVE",
"932 844 OFFCURVE",
"904 870 CURVE",
"847 829 LINE",
"879 800 OFFCURVE",
"925 745 OFFCURVE",
"949 703 CURVE"
);
}
);
userData = {
com.schriftgestaltung.Glyphs.lastChange = "2020-03-22 07:45:29 +0000";
};
width = 1000;
}
);
unicode = 3052;
},
{
glyphname = "ko-hira";
lastChange = "2021-05-17 22:56:00 +0000";
layers = (
{
layerId = master01;
paths = (
{
closed = 1;
nodes = (
"574 46 OFFCURVE",
"718 61 OFFCURVE",
"796 87 CURVE",
"793 96 OFFCURVE",
"787 146 OFFCURVE",
"788 158 CURVE",
"713 131 OFFCURVE",
"571 111 OFFCURVE",
"438 111 CURVE SMOOTH",
"334 111 OFFCURVE",
"274 152 OFFCURVE",
"256 227 CURVE",
"196 200 LINE",
"235 86 OFFCURVE",
"311 46 OFFCURVE",
"438 46 CURVE SMOOTH"
);
},
{
closed = 1;
nodes = (
"400 607 OFFCURVE",
"610 613 OFFCURVE",
"695 639 CURVE",
"693 705 LINE",
"608 677 OFFCURVE",
"390 672 OFFCURVE",
"306 702 CURVE",
"308 636 LINE"
);
}
);
width = 1000;
},
{
layerId = "34DF84D2-5107-44DD-934E-BD8E209466D9";
paths = (
{
closed = 1;
nodes = (
"572 58 OFFCURVE",
"709 74 OFFCURVE",
"786 99 CURVE",
"786 99 OFFCURVE",
"782 138 OFFCURVE",
"782 139 CURVE",
"710 113 OFFCURVE",
"574 93 OFFCURVE",
"437 93 CURVE SMOOTH",
"329 93 OFFCURVE",
"265 136 OFFCURVE",
"246 215 CURVE",
"210 203 LINE",
"245 101 OFFCURVE",
"313 58 OFFCURVE",
"437 58 CURVE SMOOTH"
);
},
{
closed = 1;
nodes = (
"414 620 OFFCURVE",
"599 626 OFFCURVE",
"686 653 CURVE",
"683 690 LINE",
"602 663 OFFCURVE",
"396 657 OFFCURVE",
"318 687 CURVE",
"321 650 LINE"
);
}
);
width = 1000;
},
{
layerId = "5617B79D-1A8B-4E71-B6B7-038AD2857106";
paths = (
{
closed = 1;
nodes = (
"576 34 OFFCURVE",
"726 49 OFFCURVE",
"806 75 CURVE",
"800 93 OFFCURVE",
"792 155 OFFCURVE",
"793 176 CURVE",
"717 149 OFFCURVE",
"569 129 OFFCURVE",
"439 129 CURVE SMOOTH",
"338 129 OFFCURVE",
"283 168 OFFCURVE",
"265 240 CURVE",
"182 197 LINE",
"225 72 OFFCURVE",
"308 34 OFFCURVE",
"439 34 CURVE SMOOTH"
);
},
{
closed = 1;
nodes = (
"386 595 OFFCURVE",
"620 600 OFFCURVE",
"705 626 CURVE",
"703 720 LINE",
"614 692 OFFCURVE",
"383 686 OFFCURVE",
"294 717 CURVE",
"295 623 LINE"
);
}
);
width = 1000;
},
{
layerId = "542E90B0-D43E-4A29-B40D-A2B642C3CEF5";
paths = (
{
closed = 1;
nodes = (
"581 10 OFFCURVE",
"743 25 OFFCURVE",
"826 51 CURVE",
"814 87 OFFCURVE",
"802 172 OFFCURVE",
"804 214 CURVE",
"723 186 OFFCURVE",
"564 165 OFFCURVE",
"440 165 CURVE SMOOTH",
"347 165 OFFCURVE",
"300 200 OFFCURVE",
"284 266 CURVE",
"154 192 LINE",
"205 43 OFFCURVE",
"302 10 OFFCURVE",
"440 10 CURVE SMOOTH"
);
},
{
closed = 1;
nodes = (
"359 570 OFFCURVE",
"640 574 OFFCURVE",
"724 599 CURVE",
"724 750 LINE",
"627 720 OFFCURVE",
"369 714 OFFCURVE",
"269 746 CURVE",
"269 596 LINE"
);
}
);
width = 1000;
},
{
layerId = "98035891-75EF-42AC-A061-1C72A0965E4A";
paths = (
{
closed = 1;
nodes = (
"578 22 OFFCURVE",
"735 37 OFFCURVE",
"816 63 CURVE",
"807 90 OFFCURVE",
"797 163 OFFCURVE",
"798 195 CURVE",
"720 167 OFFCURVE",
"566 147 OFFCURVE",
"439 147 CURVE SMOOTH",
"343 147 OFFCURVE",
"291 184 OFFCURVE",
"274 253 CURVE",
"168 195 LINE",
"215 58 OFFCURVE",
"305 22 OFFCURVE",
"439 22 CURVE SMOOTH"
);
},
{
closed = 1;
nodes = (
"373 582 OFFCURVE",
"630 587 OFFCURVE",
"714 613 CURVE",
"714 735 LINE",
"621 706 OFFCURVE",
"376 700 OFFCURVE",
"281 731 CURVE",
"282 610 LINE"
);
}
);
userData = {
com.schriftgestaltung.Glyphs.lastChange = "2020-03-22 07:45:29 +0000";
};
width = 1000;
}
);
unicode = 3053;
},
{
glyphname = "go-hira";
lastChange = "2021-05-17 22:56:00 +0000";
layers = (
{
layerId = master01;
paths = (
{
closed = 1;
nodes = (
"574 46 OFFCURVE",
"718 61 OFFCURVE",
"796 87 CURVE",
"793 96 OFFCURVE",
"787 146 OFFCURVE",
"787 158 CURVE",
"713 131 OFFCURVE",
"571 111 OFFCURVE",
"438 111 CURVE SMOOTH",
"334 111 OFFCURVE",
"274 152 OFFCURVE",
"255 227 CURVE",
"196 200 LINE",
"235 86 OFFCURVE",
"310 46 OFFCURVE",
"438 46 CURVE SMOOTH"
);
},
{
closed = 1;
nodes = (
"400 607 OFFCURVE",
"609 613 OFFCURVE",
"695 639 CURVE",
"693 705 LINE",
"608 677 OFFCURVE",
"389 672 OFFCURVE",
"306 702 CURVE",
"308 636 LINE"
);
},
{
closed = 1;
nodes = (
"897 623 LINE",
"872 657 OFFCURVE",
"804 724 OFFCURVE",
"770 750 CURVE",
"736 721 LINE",
"774 694 OFFCURVE",
"834 634 OFFCURVE",
"861 594 CURVE"
);
},
{
closed = 1;
nodes = (
"974 699 LINE",
"947 731 OFFCURVE",
"878 796 OFFCURVE",
"843 822 CURVE",
"810 792 LINE",
"848 765 OFFCURVE",
"910 708 OFFCURVE",
"939 669 CURVE"
);
}
);
width = 1000;
},
{
layerId = "34DF84D2-5107-44DD-934E-BD8E209466D9";
paths = (
{
closed = 1;
nodes = (
"572 58 OFFCURVE",
"709 74 OFFCURVE",
"786 99 CURVE",
"786 99 OFFCURVE",
"782 138 OFFCURVE",
"782 139 CURVE",
"710 113 OFFCURVE",
"573 93 OFFCURVE",
"437 93 CURVE SMOOTH",
"329 93 OFFCURVE",
"265 136 OFFCURVE",
"246 215 CURVE",
"210 203 LINE",
"245 101 OFFCURVE",
"313 58 OFFCURVE",
"437 58 CURVE SMOOTH"
);
},
{
closed = 1;
nodes = (
"414 620 OFFCURVE",
"599 626 OFFCURVE",
"686 653 CURVE",
"682 690 LINE",
"602 663 OFFCURVE",
"396 657 OFFCURVE",
"318 687 CURVE",
"321 650 LINE"
);
},
{
closed = 1;
nodes = (
"893 618 LINE",
"867 652 OFFCURVE",
"794 721 OFFCURVE",
"758 748 CURVE",
"735 727 LINE",
"775 699 OFFCURVE",
"840 637 OFFCURVE",
"868 597 CURVE"
);
},
{
closed = 1;
nodes = (
"963 693 LINE",
"935 726 OFFCURVE",
"860 792 OFFCURVE",
"823 817 CURVE",
"800 795 LINE",
"841 769 OFFCURVE",
"909 709 OFFCURVE",
"939 671 CURVE"
);
}
);
width = 1000;
},
{
layerId = "5617B79D-1A8B-4E71-B6B7-038AD2857106";
paths = (
{
closed = 1;
nodes = (
"576 34 OFFCURVE",
"726 49 OFFCURVE",
"806 75 CURVE",
"800 93 OFFCURVE",
"792 155 OFFCURVE",
"793 176 CURVE",
"716 149 OFFCURVE",
"569 129 OFFCURVE",
"439 129 CURVE SMOOTH",
"338 129 OFFCURVE",
"283 168 OFFCURVE",
"265 240 CURVE",
"182 197 LINE",
"225 72 OFFCURVE",
"308 34 OFFCURVE",
"439 34 CURVE SMOOTH"
);
},
{
closed = 1;
nodes = (
"386 595 OFFCURVE",
"620 600 OFFCURVE",
"705 626 CURVE",
"703 720 LINE",
"614 692 OFFCURVE",
"383 686 OFFCURVE",
"294 717 CURVE",
"295 623 LINE"
);
},
{
closed = 1;
nodes = (
"901 628 LINE",
"877 661 OFFCURVE",
"814 727 OFFCURVE",
"782 753 CURVE",
"738 716 LINE",
"774 688 OFFCURVE",
"828 632 OFFCURVE",
"855 591 CURVE"
);
},
{
closed = 1;
nodes = (
"984 704 LINE",
"959 736 OFFCURVE",
"895 801 OFFCURVE",
"863 826 CURVE",
"819 789 LINE",
"855 761 OFFCURVE",
"910 706 OFFCURVE",
"938 666 CURVE"
);
}
);
width = 1000;
},
{
layerId = "542E90B0-D43E-4A29-B40D-A2B642C3CEF5";
paths = (
{
closed = 1;
nodes = (
"581 10 OFFCURVE",
"743 25 OFFCURVE",
"826 51 CURVE",
"814 87 OFFCURVE",
"802 172 OFFCURVE",
"804 214 CURVE",
"723 186 OFFCURVE",
"564 165 OFFCURVE",
"440 165 CURVE SMOOTH",
"347 165 OFFCURVE",
"300 200 OFFCURVE",
"284 266 CURVE",
"154 192 LINE",
"205 43 OFFCURVE",
"302 10 OFFCURVE",
"440 10 CURVE SMOOTH"
);
},
{
closed = 1;
nodes = (
"359 570 OFFCURVE",
"640 574 OFFCURVE",
"724 599 CURVE",
"724 750 LINE",
"627 720 OFFCURVE",
"369 714 OFFCURVE",
"269 746 CURVE",
"269 596 LINE"
);
},
{
closed = 1;
nodes = (
"909 638 LINE",
"887 670 OFFCURVE",
"833 733 OFFCURVE",
"807 757 CURVE",
"742 705 LINE",
"773 677 OFFCURVE",
"816 627 OFFCURVE",
"841 585 CURVE"
);
},
{
closed = 1;
nodes = (
"1005 715 LINE",
"983 747 OFFCURVE",
"929 810 OFFCURVE",
"903 834 CURVE",
"838 782 LINE",
"869 753 OFFCURVE",
"912 704 OFFCURVE",
"937 662 CURVE"
);
}
);
width = 1000;
},
{
layerId = "98035891-75EF-42AC-A061-1C72A0965E4A";
paths = (
{
closed = 1;
nodes = (
"578 22 OFFCURVE",
"735 37 OFFCURVE",
"816 63 CURVE",
"807 90 OFFCURVE",
"797 163 OFFCURVE",
"798 195 CURVE",
"720 167 OFFCURVE",
"566 147 OFFCURVE",
"439 147 CURVE SMOOTH",
"343 147 OFFCURVE",
"291 184 OFFCURVE",
"274 253 CURVE",
"168 195 LINE",
"215 57 OFFCURVE",
"305 22 OFFCURVE",
"439 22 CURVE SMOOTH"
);
},
{
closed = 1;
nodes = (
"373 582 OFFCURVE",
"630 587 OFFCURVE",
"714 613 CURVE",
"714 735 LINE",
"621 706 OFFCURVE",
"376 700 OFFCURVE",
"281 731 CURVE",
"282 610 LINE"
);
},
{
closed = 1;
nodes = (
"905 633 LINE",
"882 666 OFFCURVE",
"824 730 OFFCURVE",
"794 755 CURVE",
"740 711 LINE",
"773 682 OFFCURVE",
"822 629 OFFCURVE",
"848 588 CURVE"
);
},
{
closed = 1;
nodes = (
"994 709 LINE",
"971 742 OFFCURVE",
"912 805 OFFCURVE",
"883 830 CURVE",
"828 785 LINE",
"862 757 OFFCURVE",
"911 705 OFFCURVE",
"937 664 CURVE"
);
}
);
userData = {
com.schriftgestaltung.Glyphs.lastChange = "2020-03-22 07:45:29 +0000";
};
width = 1000;
}
);
unicode = 3054;
},
{
glyphname = "sa-hira";
lastChange = "2021-05-17 22:56:00 +0000";
layers = (
{
layerId = master01;
paths = (
{
closed = 1;
nodes = (
"658 -11 OFFCURVE",
"668 23 OFFCURVE",
"678 42 CURVE",
"490 26 OFFCURVE",
"313 62 OFFCURVE",
"313 184 CURVE SMOOTH",
"313 305 OFFCURVE",
"532 327 OFFCURVE",
"699 258 CURVE",
"738 307 LINE",
"652 368 OFFCURVE",
"583 459 OFFCURVE",
"541 557 CURVE",
"666 569 OFFCURVE",
"782 585 OFFCURVE",
"849 600 CURVE",
"835 663 LINE",
"772 645 OFFCURVE",
"650 626 OFFCURVE",
"520 614 CURVE",
"500 674 OFFCURVE",
"490 736 OFFCURVE",
"492 794 CURVE",
"426 794 LINE",
"426 733 OFFCURVE",
"437 670 OFFCURVE",
"457 608 CURVE",
"331 597 OFFCURVE",
"206 593 OFFCURVE",
"125 599 CURVE",
"136 534 LINE",
"224 533 OFFCURVE",
"351 540 OFFCURVE",
"478 551 CURVE",
"510 474 OFFCURVE",
"555 401 OFFCURVE",
"610 341 CURVE",
"423 376 OFFCURVE",
"249 323 OFFCURVE",
"249 184 CURVE SMOOTH",
"249 21 OFFCURVE",
"439 -39 OFFCURVE",
"656 -28 CURVE"
);
}
);
width = 1000;
},
{
layerId = "34DF84D2-5107-44DD-934E-BD8E209466D9";
paths = (
{
closed = 1;
nodes = (
"658 -7 OFFCURVE",
"662 14 OFFCURVE",
"666 25 CURVE",
"485 9 OFFCURVE",
"300 49 OFFCURVE",
"300 183 CURVE SMOOTH",
"300 310 OFFCURVE",
"522 332 OFFCURVE",
"701 270 CURVE",
"724 302 LINE",
"635 364 OFFCURVE",
"563 462 OFFCURVE",
"520 566 CURVE",
"648 579 OFFCURVE",
"768 595 OFFCURVE",
"838 610 CURVE",
"825 647 LINE",
"763 631 OFFCURVE",
"640 612 OFFCURVE",
"508 599 CURVE",
"486 662 OFFCURVE",
"475 726 OFFCURVE",
"477 786 CURVE",
"438 786 LINE",
"438 723 OFFCURVE",
"450 658 OFFCURVE",
"471 595 CURVE",
"345 584 OFFCURVE",
"217 578 OFFCURVE",
"132 583 CURVE",
"141 544 LINE",
"230 544 OFFCURVE",
"358 552 OFFCURVE",
"483 563 CURVE",
"520 471 OFFCURVE",
"576 386 OFFCURVE",
"646 320 CURVE",
"457 363 OFFCURVE",
"264 324 OFFCURVE",
"264 183 CURVE SMOOTH",
"264 31 OFFCURVE",
"445 -27 OFFCURVE",
"657 -16 CURVE"
);
}
);
width = 1000;
},
{
layerId = "5617B79D-1A8B-4E71-B6B7-038AD2857106";
paths = (
{
closed = 1;
nodes = (
"658 -15 OFFCURVE",
"674 33 OFFCURVE",
"690 58 CURVE",
"496 44 OFFCURVE",
"327 76 OFFCURVE",
"327 186 CURVE SMOOTH",
"327 301 OFFCURVE",
"541 322 OFFCURVE",
"696 246 CURVE",
"752 311 LINE",
"668 372 OFFCURVE",
"604 456 OFFCURVE",
"562 548 CURVE",
"683 560 OFFCURVE",
"796 575 OFFCURVE",
"861 590 CURVE",
"845 678 LINE",
"781 659 OFFCURVE",
"661 641 OFFCURVE",
"532 628 CURVE",
"514 686 OFFCURVE",
"506 745 OFFCURVE",
"507 803 CURVE",
"414 803 LINE",
"414 744 OFFCURVE",
"424 681 OFFCURVE",
"443 620 CURVE",
"318 611 OFFCURVE",
"196 608 OFFCURVE",
"118 614 CURVE",
"132 523 LINE",
"217 522 OFFCURVE",
"345 529 OFFCURVE",
"472 540 CURVE",
"499 475 OFFCURVE",
"536 414 OFFCURVE",
"580 360 CURVE",
"394 388 OFFCURVE",
"234 323 OFFCURVE",
"234 186 CURVE SMOOTH",
"234 11 OFFCURVE",
"433 -50 OFFCURVE",
"655 -39 CURVE"
);
}
);
width = 1000;
},
{
layerId = "542E90B0-D43E-4A29-B40D-A2B642C3CEF5";
paths = (
{
closed = 1;
nodes = (
"657 -23 OFFCURVE",
"686 53 OFFCURVE",
"715 91 CURVE",
"507 80 OFFCURVE",
"354 103 OFFCURVE",
"354 189 CURVE SMOOTH",
"354 292 OFFCURVE",
"560 313 OFFCURVE",
"690 222 CURVE",
"779 321 LINE",
"702 379 OFFCURVE",
"644 451 OFFCURVE",
"604 530 CURVE",
"719 542 OFFCURVE",
"823 556 OFFCURVE",
"883 569 CURVE",
"865 709 LINE",
"800 688 OFFCURVE",
"683 669 OFFCURVE",
"557 657 CURVE",
"543 710 OFFCURVE",
"537 765 OFFCURVE",
"537 820 CURVE",
"390 820 LINE",
"390 764 OFFCURVE",
"399 705 OFFCURVE",
"414 646 CURVE",
"291 639 OFFCURVE",
"175 638 OFFCURVE",
"105 646 CURVE",
"122 503 LINE",
"205 501 OFFCURVE",
"332 507 OFFCURVE",
"460 517 CURVE",
"480 474 OFFCURVE",
"502 433 OFFCURVE",
"528 395 CURVE",
"345 410 OFFCURVE",
"204 325 OFFCURVE",
"204 189 CURVE SMOOTH",
"204 -10 OFFCURVE",
"421 -73 OFFCURVE",
"652 -61 CURVE"
);
}
);
width = 1000;
},
{
layerId = "98035891-75EF-42AC-A061-1C72A0965E4A";
paths = (
{
closed = 1;
nodes = (
"657 -19 OFFCURVE",
"680 43 OFFCURVE",
"702 74 CURVE",
"501 62 OFFCURVE",
"340 89 OFFCURVE",
"340 187 CURVE SMOOTH",
"340 297 OFFCURVE",
"551 318 OFFCURVE",
"693 234 CURVE",
"765 316 LINE",
"685 375 OFFCURVE",
"624 453 OFFCURVE",
"583 539 CURVE",
"701 551 OFFCURVE",
"809 565 OFFCURVE",
"872 579 CURVE",
"855 694 LINE",
"791 673 OFFCURVE",
"672 655 OFFCURVE",
"544 643 CURVE",
"529 698 OFFCURVE",
"521 755 OFFCURVE",
"522 811 CURVE",
"402 811 LINE",
"402 754 OFFCURVE",
"411 693 OFFCURVE",
"428 633 CURVE",
"305 625 OFFCURVE",
"185 623 OFFCURVE",
"112 630 CURVE",
"127 513 LINE",
"211 512 OFFCURVE",
"338 518 OFFCURVE",
"466 528 CURVE",
"490 475 OFFCURVE",
"519 424 OFFCURVE",
"553 378 CURVE",
"369 399 OFFCURVE",
"219 323 OFFCURVE",
"219 187 CURVE SMOOTH",
"219 1 OFFCURVE",
"427 -62 OFFCURVE",
"653 -50 CURVE"
);
}
);
userData = {
com.schriftgestaltung.Glyphs.lastChange = "2020-03-22 07:45:29 +0000";
};
width = 1000;
}
);
unicode = 3055;
},
{
glyphname = "za-hira";
lastChange = "2021-05-17 22:56:00 +0000";
layers = (
{
layerId = master01;
paths = (
{
closed = 1;
nodes = (
"657 -11 OFFCURVE",
"668 25 OFFCURVE",
"677 42 CURVE",
"490 26 OFFCURVE",
"313 62 OFFCURVE",
"313 184 CURVE SMOOTH",
"313 305 OFFCURVE",
"531 327 OFFCURVE",
"698 258 CURVE",
"737 307 LINE",
"651 368 OFFCURVE",
"583 458 OFFCURVE",
"541 555 CURVE",
"643 566 OFFCURVE",
"737 580 OFFCURVE",
"798 593 CURVE",
"784 656 LINE",
"728 640 OFFCURVE",
"628 624 OFFCURVE",
"519 612 CURVE",
"499 673 OFFCURVE",
"489 735 OFFCURVE",
"491 794 CURVE",
"425 794 LINE",
"425 733 OFFCURVE",
"436 669 OFFCURVE",
"457 606 CURVE",
"335 595 OFFCURVE",
"210 590 OFFCURVE",
"124 596 CURVE",
"135 532 LINE",
"229 531 OFFCURVE",
"355 538 OFFCURVE",
"478 549 CURVE",
"510 473 OFFCURVE",
"555 401 OFFCURVE",
"609 341 CURVE",
"422 376 OFFCURVE",
"248 323 OFFCURVE",
"248 184 CURVE SMOOTH",
"248 21 OFFCURVE",
"438 -39 OFFCURVE",
"655 -28 CURVE"
);
},
{
closed = 1;
nodes = (
"905 644 LINE",
"880 678 OFFCURVE",
"814 746 OFFCURVE",
"780 773 CURVE",
"746 746 LINE",
"783 717 OFFCURVE",
"842 657 OFFCURVE",
"869 616 CURVE"
);
},
{
closed = 1;
nodes = (
"983 718 LINE",
"957 750 OFFCURVE",
"889 817 OFFCURVE",
"855 842 CURVE",
"821 814 LINE",
"859 787 OFFCURVE",
"919 729 OFFCURVE",
"947 689 CURVE"
);
}
);
width = 1000;
},
{
layerId = "34DF84D2-5107-44DD-934E-BD8E209466D9";
paths = (
{
closed = 1;
nodes = (
"658 -7 OFFCURVE",
"662 14 OFFCURVE",
"666 25 CURVE",
"485 9 OFFCURVE",
"300 49 OFFCURVE",
"300 183 CURVE SMOOTH",
"300 310 OFFCURVE",
"522 332 OFFCURVE",
"701 270 CURVE",
"724 302 LINE",
"636 364 OFFCURVE",
"564 460 OFFCURVE",
"521 563 CURVE",
"629 574 OFFCURVE",
"728 588 OFFCURVE",
"793 602 CURVE",
"780 640 LINE",
"723 625 OFFCURVE",
"620 608 OFFCURVE",
"509 596 CURVE",
"486 660 OFFCURVE",
"475 725 OFFCURVE",
"477 786 CURVE",
"438 786 LINE",
"438 722 OFFCURVE",
"450 656 OFFCURVE",
"472 593 CURVE",
"350 581 OFFCURVE",
"222 574 OFFCURVE",
"132 580 CURVE",
"141 541 LINE",
"235 541 OFFCURVE",
"363 548 OFFCURVE",
"485 560 CURVE",
"521 470 OFFCURVE",
"577 385 OFFCURVE",
"645 320 CURVE",
"457 363 OFFCURVE",
"264 324 OFFCURVE",
"264 183 CURVE SMOOTH",
"264 31 OFFCURVE",
"445 -27 OFFCURVE",
"657 -16 CURVE"
);
},
{
closed = 1;
nodes = (
"897 633 LINE",
"870 667 OFFCURVE",
"798 736 OFFCURVE",
"762 763 CURVE",
"738 742 LINE",
"778 714 OFFCURVE",
"843 652 OFFCURVE",
"872 612 CURVE"
);
},
{
closed = 1;
nodes = (
"967 708 LINE",
"939 740 OFFCURVE",
"864 806 OFFCURVE",
"827 832 CURVE",
"804 810 LINE",
"845 784 OFFCURVE",
"912 724 OFFCURVE",
"943 685 CURVE"
);
}
);
width = 1000;
},
{
layerId = "5617B79D-1A8B-4E71-B6B7-038AD2857106";
paths = (
{
closed = 1;
nodes = (
"656 -15 OFFCURVE",
"675 36 OFFCURVE",
"689 58 CURVE",
"494 44 OFFCURVE",
"325 76 OFFCURVE",
"325 186 CURVE SMOOTH",
"325 301 OFFCURVE",
"539 322 OFFCURVE",
"694 246 CURVE",
"750 311 LINE",
"667 372 OFFCURVE",
"602 456 OFFCURVE",
"561 547 CURVE",
"657 558 OFFCURVE",
"745 571 OFFCURVE",
"804 584 CURVE",
"788 673 LINE",
"733 656 OFFCURVE",
"637 640 OFFCURVE",
"530 629 CURVE",
"513 686 OFFCURVE",
"504 745 OFFCURVE",
"505 803 CURVE",
"413 803 LINE",
"413 743 OFFCURVE",
"423 681 OFFCURVE",
"441 620 CURVE",
"321 610 OFFCURVE",
"198 606 OFFCURVE",
"117 613 CURVE",
"130 522 LINE",
"222 521 OFFCURVE",
"348 528 OFFCURVE",
"471 539 CURVE",
"498 474 OFFCURVE",
"535 413 OFFCURVE",
"578 360 CURVE",
"392 388 OFFCURVE",
"233 323 OFFCURVE",
"233 186 CURVE SMOOTH",
"233 11 OFFCURVE",
"432 -50 OFFCURVE",
"653 -39 CURVE"
);
},
{
closed = 1;
nodes = (
"914 656 LINE",
"891 689 OFFCURVE",
"830 757 OFFCURVE",
"799 783 CURVE",
"754 749 LINE",
"788 720 OFFCURVE",
"840 662 OFFCURVE",
"865 621 CURVE"
);
},
{
closed = 1;
nodes = (
"999 728 LINE",
"976 761 OFFCURVE",
"914 827 OFFCURVE",
"883 853 CURVE",
"837 818 LINE",
"872 790 OFFCURVE",
"925 734 OFFCURVE",
"952 693 CURVE"
);
}
);
width = 1000;
},
{
layerId = "542E90B0-D43E-4A29-B40D-A2B642C3CEF5";
paths = (
{
closed = 1;
nodes = (
"654 -23 OFFCURVE",
"687 57 OFFCURVE",
"712 91 CURVE",
"504 80 OFFCURVE",
"351 103 OFFCURVE",
"351 189 CURVE SMOOTH",
"351 292 OFFCURVE",
"557 313 OFFCURVE",
"687 222 CURVE",
"776 321 LINE",
"698 379 OFFCURVE",
"640 452 OFFCURVE",
"600 532 CURVE",
"686 542 OFFCURVE",
"762 553 OFFCURVE",
"814 565 CURVE",
"796 705 LINE",
"744 688 OFFCURVE",
"654 672 OFFCURVE",
"553 661 CURVE",
"540 713 OFFCURVE",
"534 766 OFFCURVE",
"534 820 CURVE",
"387 820 LINE",
"387 764 OFFCURVE",
"395 706 OFFCURVE",
"411 648 CURVE",
"292 639 OFFCURVE",
"176 637 OFFCURVE",
"102 646 CURVE",
"119 503 LINE",
"208 501 OFFCURVE",
"334 507 OFFCURVE",
"457 517 CURVE",
"476 475 OFFCURVE",
"499 433 OFFCURVE",
"525 395 CURVE",
"342 410 OFFCURVE",
"201 325 OFFCURVE",
"201 189 CURVE SMOOTH",
"201 -10 OFFCURVE",
"418 -73 OFFCURVE",
"649 -61 CURVE"
);
},
{
closed = 1;
nodes = (
"931 678 LINE",
"911 712 OFFCURVE",
"862 778 OFFCURVE",
"837 804 CURVE",
"769 757 LINE",
"798 726 OFFCURVE",
"837 673 OFFCURVE",
"859 630 CURVE"
);
},
{
closed = 1;
nodes = (
"1032 747 LINE",
"1013 781 OFFCURVE",
"964 847 OFFCURVE",
"939 873 CURVE",
"870 826 LINE",
"899 796 OFFCURVE",
"938 743 OFFCURVE",
"960 700 CURVE"
);
}
);
width = 1000;
},
{
layerId = "98035891-75EF-42AC-A061-1C72A0965E4A";
paths = (
{
closed = 1;
nodes = (
"655 -19 OFFCURVE",
"681 46 OFFCURVE",
"700 74 CURVE",
"499 62 OFFCURVE",
"338 89 OFFCURVE",
"338 187 CURVE SMOOTH",
"338 297 OFFCURVE",
"548 318 OFFCURVE",
"691 234 CURVE",
"763 316 LINE",
"683 376 OFFCURVE",
"621 454 OFFCURVE",
"580 540 CURVE",
"672 550 OFFCURVE",
"754 562 OFFCURVE",
"809 574 CURVE",
"792 689 LINE",
"739 672 OFFCURVE",
"645 656 OFFCURVE",
"541 645 CURVE",
"526 700 OFFCURVE",
"519 756 OFFCURVE",
"519 811 CURVE",
"400 811 LINE",
"400 754 OFFCURVE",
"409 693 OFFCURVE",
"426 634 CURVE",
"306 624 OFFCURVE",
"187 622 OFFCURVE",
"109 629 CURVE",
"124 512 LINE",
"215 511 OFFCURVE",
"341 517 OFFCURVE",
"464 528 CURVE",
"487 475 OFFCURVE",
"517 424 OFFCURVE",
"550 378 CURVE",
"366 399 OFFCURVE",
"217 323 OFFCURVE",
"217 187 CURVE SMOOTH",
"217 1 OFFCURVE",
"425 -62 OFFCURVE",
"651 -50 CURVE"
);
},
{
closed = 1;
nodes = (
"922 667 LINE",
"901 700 OFFCURVE",
"846 767 OFFCURVE",
"818 794 CURVE",
"761 753 LINE",
"793 723 OFFCURVE",
"839 668 OFFCURVE",
"862 626 CURVE"
);
},
{
closed = 1;
nodes = (
"1016 738 LINE",
"994 771 OFFCURVE",
"939 837 OFFCURVE",
"911 863 CURVE",
"854 822 LINE",
"886 793 OFFCURVE",
"932 738 OFFCURVE",
"956 696 CURVE"
);
}
);
userData = {
com.schriftgestaltung.Glyphs.lastChange = "2020-03-22 07:45:29 +0000";
};
width = 1000;
}
);
unicode = 3056;
},
{
glyphname = "si-hira";
lastChange = "2021-05-17 22:56:00 +0000";
layers = (
{
layerId = master01;
paths = (
{
closed = 1;
nodes = (
"586 -17 OFFCURVE",
"716 31 OFFCURVE",
"812 100 CURVE",
"810 109 OFFCURVE",
"801 159 OFFCURVE",
"801 172 CURVE",
"723 107 OFFCURVE",
"592 46 OFFCURVE",
"473 46 CURVE SMOOTH",
"373 46 OFFCURVE",
"338 70 OFFCURVE",
"338 144 CURVE SMOOTH",
"338 468 LINE SMOOTH",
"338 533 OFFCURVE",
"339 592 OFFCURVE",
"340 642 CURVE SMOOTH",
"341 709 OFFCURVE",
"343 766 OFFCURVE",
"345 788 CURVE",
"274 792 LINE",
"274 136 LINE SMOOTH",
"274 18 OFFCURVE",
"332 -17 OFFCURVE",
"470 -17 CURVE SMOOTH"
);
}
);
width = 1000;
},
{
layerId = "34DF84D2-5107-44DD-934E-BD8E209466D9";
paths = (
{
closed = 1;
nodes = (
"576 -11 OFFCURVE",
"704 38 OFFCURVE",
"801 107 CURVE",
"801 108 OFFCURVE",
"794 148 OFFCURVE",
"793 149 CURVE",
"720 88 OFFCURVE",
"584 25 OFFCURVE",
"470 25 CURVE SMOOTH",
"360 25 OFFCURVE",
"323 52 OFFCURVE",
"323 133 CURVE SMOOTH",
"323 465 LINE SMOOTH",
"323 528 OFFCURVE",
"324 586 OFFCURVE",
"325 636 CURVE SMOOTH",
"326 707 OFFCURVE",
"328 763 OFFCURVE",
"330 784 CURVE",
"288 787 LINE",
"288 132 LINE SMOOTH",
"288 21 OFFCURVE",
"344 -11 OFFCURVE",
"470 -11 CURVE SMOOTH"
);
}
);
width = 1000;
},
{
layerId = "5617B79D-1A8B-4E71-B6B7-038AD2857106";
paths = (
{
closed = 1;
nodes = (
"596 -24 OFFCURVE",
"727 24 OFFCURVE",
"823 94 CURVE",
"819 110 OFFCURVE",
"809 170 OFFCURVE",
"808 196 CURVE",
"727 126 OFFCURVE",
"601 68 OFFCURVE",
"475 68 CURVE SMOOTH",
"385 68 OFFCURVE",
"353 89 OFFCURVE",
"353 155 CURVE SMOOTH",
"353 471 LINE SMOOTH",
"353 538 OFFCURVE",
"354 598 OFFCURVE",
"355 647 CURVE SMOOTH",
"356 711 OFFCURVE",
"359 769 OFFCURVE",
"361 791 CURVE",
"260 798 LINE",
"260 139 LINE SMOOTH",
"260 14 OFFCURVE",
"321 -24 OFFCURVE",
"470 -24 CURVE SMOOTH"
);
}
);
width = 1000;
},
{
layerId = "542E90B0-D43E-4A29-B40D-A2B642C3CEF5";
paths = (
{
closed = 1;
nodes = (
"616 -37 OFFCURVE",
"751 10 OFFCURVE",
"846 81 CURVE",
"837 113 OFFCURVE",
"824 191 OFFCURVE",
"823 242 CURVE",
"733 165 OFFCURVE",
"617 111 OFFCURVE",
"480 111 CURVE SMOOTH",
"409 111 OFFCURVE",
"383 125 OFFCURVE",
"383 177 CURVE SMOOTH",
"383 477 LINE SMOOTH",
"383 549 OFFCURVE",
"384 609 OFFCURVE",
"385 658 CURVE SMOOTH",
"386 716 OFFCURVE",
"389 775 OFFCURVE",
"392 799 CURVE",
"232 808 LINE",
"232 146 LINE SMOOTH",
"232 7 OFFCURVE",
"298 -37 OFFCURVE",
"471 -37 CURVE SMOOTH"
);
}
);
width = 1000;
},
{
layerId = "98035891-75EF-42AC-A061-1C72A0965E4A";
paths = (
{
closed = 1;
nodes = (
"606 -31 OFFCURVE",
"739 17 OFFCURVE",
"835 87 CURVE",
"828 112 OFFCURVE",
"817 180 OFFCURVE",
"815 219 CURVE",
"730 145 OFFCURVE",
"609 90 OFFCURVE",
"478 90 CURVE SMOOTH",
"397 90 OFFCURVE",
"368 107 OFFCURVE",
"368 166 CURVE SMOOTH",
"368 474 LINE SMOOTH",
"368 544 OFFCURVE",
"369 603 OFFCURVE",
"370 652 CURVE SMOOTH",
"371 713 OFFCURVE",
"374 772 OFFCURVE",
"377 795 CURVE",
"246 803 LINE",
"246 142 LINE SMOOTH",
"246 11 OFFCURVE",
"309 -31 OFFCURVE",
"470 -31 CURVE SMOOTH"
);
}
);
userData = {
com.schriftgestaltung.Glyphs.lastChange = "2020-03-22 07:45:29 +0000";
};
width = 1000;
}
);
unicode = 3057;
},
{
glyphname = "zi-hira";
lastChange = "2021-05-17 22:56:00 +0000";
layers = (
{
layerId = master01;
paths = (
{
closed = 1;
nodes = (
"586 -17 OFFCURVE",
"716 31 OFFCURVE",
"812 100 CURVE",
"810 109 OFFCURVE",
"801 159 OFFCURVE",
"801 172 CURVE",
"723 107 OFFCURVE",
"592 46 OFFCURVE",
"473 46 CURVE SMOOTH",
"373 46 OFFCURVE",
"338 70 OFFCURVE",
"338 144 CURVE SMOOTH",
"338 468 LINE SMOOTH",
"338 533 OFFCURVE",
"339 592 OFFCURVE",
"340 642 CURVE SMOOTH",
"341 709 OFFCURVE",
"343 766 OFFCURVE",
"345 788 CURVE",
"274 792 LINE",
"274 135 LINE SMOOTH",
"274 18 OFFCURVE",
"332 -17 OFFCURVE",
"470 -17 CURVE SMOOTH"
);
},
{
closed = 1;
nodes = (
"725 585 LINE",
"700 618 OFFCURVE",
"631 685 OFFCURVE",
"597 711 CURVE",
"564 682 LINE",
"602 654 OFFCURVE",
"662 595 OFFCURVE",
"690 555 CURVE"
);
},
{
closed = 1;
nodes = (
"801 661 LINE",
"774 694 OFFCURVE",
"704 758 OFFCURVE",
"669 783 CURVE",
"636 753 LINE",
"675 727 OFFCURVE",
"737 670 OFFCURVE",
"766 631 CURVE"
);
}
);
width = 1000;
},
{
layerId = "34DF84D2-5107-44DD-934E-BD8E209466D9";
paths = (
{
closed = 1;
nodes = (
"576 -11 OFFCURVE",
"704 38 OFFCURVE",
"801 107 CURVE",
"801 108 OFFCURVE",
"793 148 OFFCURVE",
"793 149 CURVE",
"720 88 OFFCURVE",
"584 25 OFFCURVE",
"470 25 CURVE SMOOTH",
"360 25 OFFCURVE",
"323 52 OFFCURVE",
"323 133 CURVE SMOOTH",
"323 465 LINE SMOOTH",
"323 528 OFFCURVE",
"324 586 OFFCURVE",
"325 636 CURVE SMOOTH",
"326 707 OFFCURVE",
"328 763 OFFCURVE",
"330 784 CURVE",
"288 787 LINE",
"288 132 LINE SMOOTH",
"288 21 OFFCURVE",
"344 -11 OFFCURVE",
"470 -11 CURVE SMOOTH"
);
},
{
closed = 1;
nodes = (
"716 575 LINE",
"690 609 OFFCURVE",
"617 678 OFFCURVE",
"581 705 CURVE",
"558 683 LINE",
"598 656 OFFCURVE",
"663 593 OFFCURVE",
"692 554 CURVE"
);
},
{
closed = 1;
nodes = (
"786 650 LINE",
"758 682 OFFCURVE",
"683 748 OFFCURVE",
"646 774 CURVE",
"623 752 LINE",
"665 726 OFFCURVE",
"732 666 OFFCURVE",
"762 628 CURVE"
);
}
);
width = 1000;
},
{
layerId = "5617B79D-1A8B-4E71-B6B7-038AD2857106";
paths = (
{
closed = 1;
nodes = (
"596 -24 OFFCURVE",
"727 24 OFFCURVE",
"823 94 CURVE",
"819 110 OFFCURVE",
"809 170 OFFCURVE",
"808 196 CURVE",
"727 126 OFFCURVE",
"601 68 OFFCURVE",
"475 68 CURVE SMOOTH",
"385 68 OFFCURVE",
"353 89 OFFCURVE",
"353 155 CURVE SMOOTH",
"353 471 LINE SMOOTH",
"353 538 OFFCURVE",
"354 598 OFFCURVE",
"355 647 CURVE SMOOTH",
"356 711 OFFCURVE",
"359 769 OFFCURVE",
"361 791 CURVE",
"260 798 LINE",
"260 139 LINE SMOOTH",
"260 14 OFFCURVE",
"321 -24 OFFCURVE",
"470 -24 CURVE SMOOTH"
);
},
{
closed = 1;
nodes = (
"734 595 LINE",
"709 628 OFFCURVE",
"645 692 OFFCURVE",
"613 717 CURVE",
"570 680 LINE",
"606 652 OFFCURVE",
"661 597 OFFCURVE",
"689 557 CURVE"
);
},
{
closed = 1;
nodes = (
"816 673 LINE",
"790 705 OFFCURVE",
"725 768 OFFCURVE",
"692 792 CURVE",
"649 754 LINE",
"686 727 OFFCURVE",
"742 673 OFFCURVE",
"771 634 CURVE"
);
}
);
width = 1000;
},
{
layerId = "542E90B0-D43E-4A29-B40D-A2B642C3CEF5";
paths = (
{
closed = 1;
nodes = (
"616 -37 OFFCURVE",
"751 10 OFFCURVE",
"846 81 CURVE",
"837 113 OFFCURVE",
"824 191 OFFCURVE",
"823 242 CURVE",
"733 165 OFFCURVE",
"617 111 OFFCURVE",
"480 111 CURVE SMOOTH",
"409 111 OFFCURVE",
"383 125 OFFCURVE",
"383 177 CURVE SMOOTH",
"383 477 LINE SMOOTH",
"383 549 OFFCURVE",
"384 609 OFFCURVE",
"385 658 CURVE SMOOTH",
"386 716 OFFCURVE",
"389 775 OFFCURVE",
"392 799 CURVE",
"232 808 LINE",
"232 146 LINE SMOOTH",
"232 7 OFFCURVE",
"298 -37 OFFCURVE",
"471 -37 CURVE SMOOTH"
);
},
{
closed = 1;
nodes = (
"752 615 LINE",
"729 647 OFFCURVE",
"673 707 OFFCURVE",
"646 730 CURVE",
"583 676 LINE",
"615 649 OFFCURVE",
"660 600 OFFCURVE",
"686 560 CURVE"
);
},
{
closed = 1;
nodes = (
"845 695 LINE",
"822 727 OFFCURVE",
"766 787 OFFCURVE",
"739 810 CURVE",
"676 756 LINE",
"708 729 OFFCURVE",
"753 681 OFFCURVE",
"779 640 CURVE"
);
}
);
width = 1000;
},
{
layerId = "98035891-75EF-42AC-A061-1C72A0965E4A";
paths = (
{
closed = 1;
nodes = (
"606 -31 OFFCURVE",
"739 17 OFFCURVE",
"835 87 CURVE",
"828 112 OFFCURVE",
"817 180 OFFCURVE",
"815 219 CURVE",
"730 145 OFFCURVE",
"609 90 OFFCURVE",
"478 90 CURVE SMOOTH",
"397 90 OFFCURVE",
"368 107 OFFCURVE",
"368 166 CURVE SMOOTH",
"368 474 LINE SMOOTH",
"368 544 OFFCURVE",
"369 603 OFFCURVE",
"370 652 CURVE SMOOTH",
"371 713 OFFCURVE",
"374 772 OFFCURVE",
"377 795 CURVE",
"246 803 LINE",
"246 142 LINE SMOOTH",
"246 11 OFFCURVE",
"309 -31 OFFCURVE",
"470 -31 CURVE SMOOTH"
);
},
{
closed = 1;
nodes = (
"743 605 LINE",
"719 637 OFFCURVE",
"659 700 OFFCURVE",
"629 724 CURVE",
"576 678 LINE",
"611 650 OFFCURVE",
"660 599 OFFCURVE",
"687 558 CURVE"
);
},
{
closed = 1;
nodes = (
"830 684 LINE",
"806 716 OFFCURVE",
"746 778 OFFCURVE",
"715 801 CURVE",
"663 755 LINE",
"697 728 OFFCURVE",
"747 677 OFFCURVE",
"775 637 CURVE"
);
}
);
userData = {
com.schriftgestaltung.Glyphs.lastChange = "2020-03-22 07:45:29 +0000";
};
width = 1000;
}
);
unicode = 3058;
},
{
glyphname = "su-hira";
lastChange = "2021-05-17 22:56:00 +0000";
layers = (
{
layerId = master01;
paths = (
{
closed = 1;
nodes = (
"498 10 OFFCURVE",
"600 132 OFFCURVE",
"600 283 CURVE SMOOTH",
"600 336 OFFCURVE",
"586 381 OFFCURVE",
"562 413 CURVE",
"559 469 OFFCURVE",
"555 533 OFFCURVE",
"554 590 CURVE",
"700 595 OFFCURVE",
"841 595 OFFCURVE",
"927 587 CURVE",
"931 651 LINE",
"845 653 OFFCURVE",
"702 649 OFFCURVE",
"554 643 CURVE",
"554 802 LINE",
"492 802 LINE",
"492 640 LINE",
"320 632 OFFCURVE",
"151 621 OFFCURVE",
"62 613 CURVE",
"74 550 LINE",
"166 567 OFFCURVE",
"328 580 OFFCURVE",
"492 587 CURVE",
"492 543 OFFCURVE",
"497 500 OFFCURVE",
"501 460 CURVE",
"484 467 OFFCURVE",
"465 470 OFFCURVE",
"445 470 CURVE SMOOTH",
"362 470 OFFCURVE",
"303 410 OFFCURVE",
"304 331 CURVE SMOOTH",
"305 258 OFFCURVE",
"357 201 OFFCURVE",
"438 201 CURVE SMOOTH",
"478 201 OFFCURVE",
"514 219 OFFCURVE",
"538 249 CURVE",
"524 136 OFFCURVE",
"442 51 OFFCURVE",
"289 5 CURVE",
"308 -11 OFFCURVE",
"323 -33 OFFCURVE",
"330 -46 CURVE"
);
},
{
closed = 1;
nodes = (
"394 257 OFFCURVE",
"365 288 OFFCURVE",
"364 333 CURVE",
"364 380 OFFCURVE",
"400 412 OFFCURVE",
"445 412 CURVE SMOOTH",
"470 412 OFFCURVE",
"493 403 OFFCURVE",
"510 384 CURVE",
"512 365 OFFCURVE",
"513 346 OFFCURVE",
"513 329 CURVE SMOOTH",
"513 286 OFFCURVE",
"481 258 OFFCURVE",
"438 258 CURVE"
);
}
);
width = 1000;
},
{
layerId = "34DF84D2-5107-44DD-934E-BD8E209466D9";
paths = (
{
closed = 1;
nodes = (
"481 21 OFFCURVE",
"580 142 OFFCURVE",
"580 280 CURVE SMOOTH",
"580 329 OFFCURVE",
"567 370 OFFCURVE",
"546 400 CURVE",
"543 461 OFFCURVE",
"540 532 OFFCURVE",
"539 591 CURVE",
"686 597 OFFCURVE",
"830 598 OFFCURVE",
"921 591 CURVE",
"923 629 LINE",
"825 631 OFFCURVE",
"683 628 OFFCURVE",
"539 621 CURVE",
"539 792 LINE",
"503 792 LINE",
"503 620 LINE",
"335 612 OFFCURVE",
"168 600 OFFCURVE",
"70 590 CURVE",
"80 554 LINE",
"176 568 OFFCURVE",
"339 582 OFFCURVE",
"504 589 CURVE",
"504 538 OFFCURVE",
"508 483 OFFCURVE",
"511 432 CURVE",
"492 445 OFFCURVE",
"469 452 OFFCURVE",
"443 452 CURVE SMOOTH",
"370 452 OFFCURVE",
"319 399 OFFCURVE",
"319 330 CURVE SMOOTH",
"319 270 OFFCURVE",
"362 214 OFFCURVE",
"434 214 CURVE SMOOTH",
"490 214 OFFCURVE",
"535 249 OFFCURVE",
"545 303 CURVE",
"546 295 OFFCURVE",
"546 288 OFFCURVE",
"546 280 CURVE SMOOTH",
"546 148 OFFCURVE",
"452 41 OFFCURVE",
"299 -5 CURVE",
"311 -17 OFFCURVE",
"319 -28 OFFCURVE",
"322 -35 CURVE"
);
},
{
closed = 1;
nodes = (
"386 249 OFFCURVE",
"355 283 OFFCURVE",
"355 330 CURVE SMOOTH",
"355 382 OFFCURVE",
"394 417 OFFCURVE",
"443 417 CURVE SMOOTH",
"471 417 OFFCURVE",
"496 407 OFFCURVE",
"514 387 CURVE",
"515 366 OFFCURVE",
"515 345 OFFCURVE",
"515 326 CURVE SMOOTH",
"515 278 OFFCURVE",
"479 249 OFFCURVE",
"434 249 CURVE SMOOTH"
);
}
);
width = 1000;
},
{
layerId = "5617B79D-1A8B-4E71-B6B7-038AD2857106";
paths = (
{
closed = 1;
nodes = (
"515 0 OFFCURVE",
"620 122 OFFCURVE",
"620 286 CURVE SMOOTH",
"620 344 OFFCURVE",
"605 393 OFFCURVE",
"577 428 CURVE",
"573 478 OFFCURVE",
"569 536 OFFCURVE",
"569 588 CURVE",
"714 593 OFFCURVE",
"852 591 OFFCURVE",
"934 583 CURVE",
"939 674 LINE",
"864 675 OFFCURVE",
"721 671 OFFCURVE",
"569 664 CURVE",
"569 812 LINE",
"480 812 LINE",
"480 661 LINE",
"305 653 OFFCURVE",
"134 643 OFFCURVE",
"54 636 CURVE",
"69 547 LINE",
"157 565 OFFCURVE",
"316 578 OFFCURVE",
"480 585 CURVE",
"480 549 OFFCURVE",
"484 515 OFFCURVE",
"488 484 CURVE",
"475 488 OFFCURVE",
"461 489 OFFCURVE",
"446 489 CURVE SMOOTH",
"354 489 OFFCURVE",
"286 421 OFFCURVE",
"289 332 CURVE SMOOTH",
"292 246 OFFCURVE",
"351 187 OFFCURVE",
"442 187 CURVE SMOOTH",
"472 187 OFFCURVE",
"501 198 OFFCURVE",
"525 217 CURVE",
"502 125 OFFCURVE",
"427 59 OFFCURVE",
"279 16 CURVE",
"306 -6 OFFCURVE",
"326 -38 OFFCURVE",
"338 -58 CURVE"
);
},
{
closed = 1;
nodes = (
"402 264 OFFCURVE",
"374 294 OFFCURVE",
"374 336 CURVE",
"373 378 OFFCURVE",
"406 408 OFFCURVE",
"447 408 CURVE SMOOTH",
"470 408 OFFCURVE",
"490 399 OFFCURVE",
"506 381 CURVE",
"508 364 OFFCURVE",
"510 348 OFFCURVE",
"510 333 CURVE SMOOTH",
"510 294 OFFCURVE",
"483 267 OFFCURVE",
"443 266 CURVE SMOOTH"
);
}
);
width = 1000;
},
{
layerId = "542E90B0-D43E-4A29-B40D-A2B642C3CEF5";
paths = (
{
closed = 1;
nodes = (
"549 -21 OFFCURVE",
"660 103 OFFCURVE",
"660 292 CURVE SMOOTH",
"660 360 OFFCURVE",
"641 418 OFFCURVE",
"606 459 CURVE",
"602 498 OFFCURVE",
"599 542 OFFCURVE",
"599 586 CURVE",
"741 588 OFFCURVE",
"872 585 OFFCURVE",
"946 575 CURVE",
"956 718 LINE",
"901 718 OFFCURVE",
"758 714 OFFCURVE",
"599 708 CURVE",
"599 832 LINE",
"456 832 LINE",
"456 702 LINE",
"275 694 OFFCURVE",
"102 686 OFFCURVE",
"38 682 CURVE",
"57 540 LINE",
"138 560 OFFCURVE",
"294 574 OFFCURVE",
"456 581 CURVE",
"456 562 OFFCURVE",
"457 543 OFFCURVE",
"459 526 CURVE",
"456 527 OFFCURVE",
"452 527 OFFCURVE",
"449 527 CURVE SMOOTH",
"337 527 OFFCURVE",
"254 443 OFFCURVE",
"259 335 CURVE SMOOTH",
"264 223 OFFCURVE",
"340 160 OFFCURVE",
"450 160 CURVE SMOOTH",
"464 160 OFFCURVE",
"477 163 OFFCURVE",
"490 167 CURVE",
"456 114 OFFCURVE",
"387 74 OFFCURVE",
"258 38 CURVE",
"301 6 OFFCURVE",
"334 -48 OFFCURVE",
"354 -81 CURVE"
);
},
{
closed = 1;
nodes = (
"418 279 OFFCURVE",
"394 306 OFFCURVE",
"393 341 CURVE SMOOTH",
"392 374 OFFCURVE",
"418 399 OFFCURVE",
"451 399 CURVE SMOOTH",
"469 399 OFFCURVE",
"485 391 OFFCURVE",
"497 376 CURVE",
"502 362 OFFCURVE",
"504 351 OFFCURVE",
"504 341 CURVE SMOOTH",
"504 309 OFFCURVE",
"486 285 OFFCURVE",
"451 282 CURVE SMOOTH"
);
}
);
width = 1000;
},
{
layerId = "98035891-75EF-42AC-A061-1C72A0965E4A";
paths = (
{
closed = 1;
nodes = (
"532 -10 OFFCURVE",
"640 112 OFFCURVE",
"640 289 CURVE SMOOTH",
"640 352 OFFCURVE",
"623 405 OFFCURVE",
"591 443 CURVE",
"588 488 OFFCURVE",
"584 539 OFFCURVE",
"584 587 CURVE",
"727 590 OFFCURVE",
"862 588 OFFCURVE",
"940 579 CURVE",
"948 696 LINE",
"883 697 OFFCURVE",
"740 692 OFFCURVE",
"584 686 CURVE",
"584 822 LINE",
"468 822 LINE",
"468 681 LINE",
"290 673 OFFCURVE",
"117 664 OFFCURVE",
"46 659 CURVE",
"63 543 LINE",
"147 562 OFFCURVE",
"305 576 OFFCURVE",
"468 583 CURVE",
"468 555 OFFCURVE",
"471 530 OFFCURVE",
"474 506 CURVE",
"465 507 OFFCURVE",
"457 508 OFFCURVE",
"447 508 CURVE SMOOTH",
"345 508 OFFCURVE",
"270 432 OFFCURVE",
"274 333 CURVE SMOOTH",
"278 235 OFFCURVE",
"345 174 OFFCURVE",
"446 174 CURVE SMOOTH",
"468 174 OFFCURVE",
"490 180 OFFCURVE",
"510 190 CURVE",
"480 118 OFFCURVE",
"409 67 OFFCURVE",
"268 27 CURVE",
"303 0 OFFCURVE",
"330 -43 OFFCURVE",
"346 -69 CURVE"
);
},
{
closed = 1;
nodes = (
"410 272 OFFCURVE",
"384 300 OFFCURVE",
"384 339 CURVE",
"383 376 OFFCURVE",
"412 403 OFFCURVE",
"449 403 CURVE SMOOTH",
"470 403 OFFCURVE",
"488 395 OFFCURVE",
"502 379 CURVE",
"505 363 OFFCURVE",
"507 349 OFFCURVE",
"507 337 CURVE SMOOTH",
"507 301 OFFCURVE",
"484 276 OFFCURVE",
"447 274 CURVE SMOOTH"
);
}
);
userData = {
com.schriftgestaltung.Glyphs.lastChange = "2020-03-22 07:45:29 +0000";
};
width = 1000;
}
);
unicode = 3059;
},
{
glyphname = "zu-hira";
lastChange = "2021-05-17 22:56:00 +0000";
layers = (
{
layerId = master01;
paths = (
{
closed = 1;
nodes = (
"498 9 OFFCURVE",
"600 131 OFFCURVE",
"600 283 CURVE SMOOTH",
"600 336 OFFCURVE",
"586 380 OFFCURVE",
"561 413 CURVE",
"559 467 OFFCURVE",
"555 531 OFFCURVE",
"554 587 CURVE",
"700 592 OFFCURVE",
"841 592 OFFCURVE",
"927 584 CURVE",
"931 649 LINE",
"845 650 OFFCURVE",
"702 646 OFFCURVE",
"554 640 CURVE",
"554 801 LINE",
"491 801 LINE",
"491 637 LINE",
"320 629 OFFCURVE",
"151 619 OFFCURVE",
"62 610 CURVE",
"74 548 LINE",
"166 564 OFFCURVE",
"328 577 OFFCURVE",
"492 584 CURVE",
"493 541 OFFCURVE",
"497 498 OFFCURVE",
"501 459 CURVE",
"484 466 OFFCURVE",
"465 470 OFFCURVE",
"445 470 CURVE SMOOTH",
"362 470 OFFCURVE",
"303 409 OFFCURVE",
"304 330 CURVE SMOOTH",
"305 257 OFFCURVE",
"357 200 OFFCURVE",
"438 200 CURVE SMOOTH",
"478 200 OFFCURVE",
"514 219 OFFCURVE",
"538 248 CURVE",
"524 135 OFFCURVE",
"442 50 OFFCURVE",
"289 5 CURVE",
"308 -12 OFFCURVE",
"323 -34 OFFCURVE",
"330 -47 CURVE"
);
},
{
closed = 1;
nodes = (
"394 256 OFFCURVE",
"365 288 OFFCURVE",
"364 332 CURVE",
"364 379 OFFCURVE",
"400 412 OFFCURVE",
"445 412 CURVE SMOOTH",
"470 412 OFFCURVE",
"493 403 OFFCURVE",
"510 383 CURVE",
"512 364 OFFCURVE",
"513 346 OFFCURVE",
"513 329 CURVE SMOOTH",
"513 285 OFFCURVE",
"481 258 OFFCURVE",
"438 257 CURVE SMOOTH"
);
},
{
closed = 1;
nodes = (
"827 688 LINE",
"807 725 OFFCURVE",
"755 797 OFFCURVE",
"726 828 CURVE",
"689 803 LINE",
"722 769 OFFCURVE",
"767 707 OFFCURVE",
"788 663 CURVE"
);
},
{
closed = 1;
nodes = (
"929 733 LINE",
"908 769 OFFCURVE",
"855 838 OFFCURVE",
"824 868 CURVE",
"788 842 LINE",
"822 810 OFFCURVE",
"868 750 OFFCURVE",
"891 707 CURVE"
);
}
);
width = 1000;
},
{
layerId = "34DF84D2-5107-44DD-934E-BD8E209466D9";
paths = (
{
closed = 1;
nodes = (
"481 21 OFFCURVE",
"580 142 OFFCURVE",
"580 280 CURVE SMOOTH",
"580 329 OFFCURVE",
"567 370 OFFCURVE",
"546 400 CURVE",
"543 461 OFFCURVE",
"540 532 OFFCURVE",
"539 591 CURVE",
"686 597 OFFCURVE",
"830 598 OFFCURVE",
"921 591 CURVE",
"923 629 LINE",
"825 631 OFFCURVE",
"683 628 OFFCURVE",
"539 621 CURVE",
"539 792 LINE",
"503 792 LINE",
"503 620 LINE",
"335 612 OFFCURVE",
"168 600 OFFCURVE",
"70 590 CURVE",
"80 554 LINE",
"176 568 OFFCURVE",
"339 582 OFFCURVE",
"504 589 CURVE",
"504 538 OFFCURVE",
"508 483 OFFCURVE",
"511 432 CURVE",
"492 445 OFFCURVE",
"469 452 OFFCURVE",
"443 452 CURVE SMOOTH",
"370 452 OFFCURVE",
"319 399 OFFCURVE",
"319 330 CURVE SMOOTH",
"319 270 OFFCURVE",
"362 214 OFFCURVE",
"434 214 CURVE SMOOTH",
"490 214 OFFCURVE",
"535 249 OFFCURVE",
"545 303 CURVE",
"546 295 OFFCURVE",
"546 288 OFFCURVE",
"546 280 CURVE SMOOTH",
"546 148 OFFCURVE",
"452 41 OFFCURVE",
"299 -5 CURVE",
"311 -17 OFFCURVE",
"319 -28 OFFCURVE",
"322 -35 CURVE"
);
},
{
closed = 1;
nodes = (
"386 249 OFFCURVE",
"355 283 OFFCURVE",
"355 330 CURVE SMOOTH",
"355 382 OFFCURVE",
"394 417 OFFCURVE",
"443 417 CURVE SMOOTH",
"471 417 OFFCURVE",
"496 407 OFFCURVE",
"514 387 CURVE",
"515 366 OFFCURVE",
"515 345 OFFCURVE",
"515 326 CURVE SMOOTH",
"515 278 OFFCURVE",
"479 249 OFFCURVE",
"434 249 CURVE SMOOTH"
);
},
{
closed = 1;
nodes = (
"831 665 LINE",
"811 703 OFFCURVE",
"760 777 OFFCURVE",
"729 811 CURVE",
"702 794 LINE",
"736 759 OFFCURVE",
"782 693 OFFCURVE",
"802 649 CURVE"
);
},
{
closed = 1;
nodes = (
"915 723 LINE",
"894 760 OFFCURVE",
"840 832 OFFCURVE",
"808 865 CURVE",
"782 847 LINE",
"817 813 OFFCURVE",
"865 749 OFFCURVE",
"887 706 CURVE"
);
}
);
width = 1000;
},
{
layerId = "5617B79D-1A8B-4E71-B6B7-038AD2857106";
paths = (
{
closed = 1;
nodes = (
"515 -2 OFFCURVE",
"620 121 OFFCURVE",
"620 285 CURVE SMOOTH",
"620 342 OFFCURVE",
"605 391 OFFCURVE",
"577 427 CURVE",
"573 475 OFFCURVE",
"570 531 OFFCURVE",
"569 583 CURVE",
"714 587 OFFCURVE",
"852 586 OFFCURVE",
"934 577 CURVE",
"939 668 LINE",
"864 669 OFFCURVE",
"721 665 OFFCURVE",
"569 659 CURVE",
"569 810 LINE",
"480 810 LINE",
"480 655 LINE",
"305 647 OFFCURVE",
"134 637 OFFCURVE",
"54 630 CURVE",
"69 541 LINE",
"157 559 OFFCURVE",
"316 573 OFFCURVE",
"480 580 CURVE",
"481 545 OFFCURVE",
"484 512 OFFCURVE",
"488 483 CURVE",
"475 486 OFFCURVE",
"461 488 OFFCURVE",
"446 488 CURVE SMOOTH",
"354 488 OFFCURVE",
"286 419 OFFCURVE",
"289 331 CURVE SMOOTH",
"292 245 OFFCURVE",
"351 186 OFFCURVE",
"442 186 CURVE SMOOTH",
"472 186 OFFCURVE",
"501 197 OFFCURVE",
"525 215 CURVE",
"502 124 OFFCURVE",
"427 58 OFFCURVE",
"279 15 CURVE",
"306 -7 OFFCURVE",
"326 -40 OFFCURVE",
"338 -59 CURVE"
);
},
{
closed = 1;
nodes = (
"402 263 OFFCURVE",
"374 292 OFFCURVE",
"374 334 CURVE",
"373 376 OFFCURVE",
"406 406 OFFCURVE",
"447 406 CURVE SMOOTH",
"470 406 OFFCURVE",
"490 398 OFFCURVE",
"506 380 CURVE",
"508 362 OFFCURVE",
"510 346 OFFCURVE",
"510 332 CURVE SMOOTH",
"510 292 OFFCURVE",
"483 266 OFFCURVE",
"443 264 CURVE SMOOTH"
);
},
{
closed = 1;
nodes = (
"823 712 LINE",
"803 747 OFFCURVE",
"751 816 OFFCURVE",
"722 845 CURVE",
"676 811 LINE",
"708 779 OFFCURVE",
"752 721 OFFCURVE",
"775 678 CURVE"
);
},
{
closed = 1;
nodes = (
"943 743 LINE",
"922 778 OFFCURVE",
"870 843 OFFCURVE",
"841 872 CURVE",
"795 838 LINE",
"828 806 OFFCURVE",
"872 751 OFFCURVE",
"895 708 CURVE"
);
}
);
width = 1000;
},
{
layerId = "542E90B0-D43E-4A29-B40D-A2B642C3CEF5";
paths = (
{
closed = 1;
nodes = (
"549 -24 OFFCURVE",
"660 100 OFFCURVE",
"660 289 CURVE SMOOTH",
"660 357 OFFCURVE",
"641 415 OFFCURVE",
"606 456 CURVE",
"602 493 OFFCURVE",
"599 534 OFFCURVE",
"599 575 CURVE",
"741 577 OFFCURVE",
"872 574 OFFCURVE",
"946 564 CURVE",
"956 707 LINE",
"901 707 OFFCURVE",
"758 703 OFFCURVE",
"599 697 CURVE",
"599 829 LINE",
"456 829 LINE",
"456 691 LINE",
"275 683 OFFCURVE",
"102 675 OFFCURVE",
"38 671 CURVE",
"57 529 LINE",
"138 549 OFFCURVE",
"294 564 OFFCURVE",
"456 571 CURVE",
"456 554 OFFCURVE",
"458 538 OFFCURVE",
"459 523 CURVE",
"456 523 OFFCURVE",
"452 523 OFFCURVE",
"449 523 CURVE SMOOTH",
"337 523 OFFCURVE",
"254 440 OFFCURVE",
"259 332 CURVE SMOOTH",
"264 220 OFFCURVE",
"340 157 OFFCURVE",
"450 157 CURVE SMOOTH",
"464 157 OFFCURVE",
"477 160 OFFCURVE",
"490 164 CURVE",
"456 110 OFFCURVE",
"387 71 OFFCURVE",
"258 35 CURVE",
"301 2 OFFCURVE",
"334 -51 OFFCURVE",
"354 -84 CURVE"
);
},
{
closed = 1;
nodes = (
"418 276 OFFCURVE",
"394 302 OFFCURVE",
"393 338 CURVE SMOOTH",
"392 371 OFFCURVE",
"418 396 OFFCURVE",
"451 396 CURVE SMOOTH",
"469 396 OFFCURVE",
"485 388 OFFCURVE",
"497 373 CURVE",
"502 359 OFFCURVE",
"504 348 OFFCURVE",
"504 338 CURVE SMOOTH",
"504 306 OFFCURVE",
"486 282 OFFCURVE",
"451 279 CURVE SMOOTH"
);
},
{
closed = 1;
nodes = (
"816 759 LINE",
"795 792 OFFCURVE",
"742 855 OFFCURVE",
"715 879 CURVE",
"650 828 LINE",
"681 799 OFFCURVE",
"723 749 OFFCURVE",
"747 707 CURVE"
);
},
{
closed = 1;
nodes = (
"971 763 LINE",
"950 796 OFFCURVE",
"900 855 OFFCURVE",
"874 879 CURVE",
"808 828 LINE",
"839 799 OFFCURVE",
"878 753 OFFCURVE",
"903 711 CURVE"
);
}
);
width = 1000;
},
{
layerId = "98035891-75EF-42AC-A061-1C72A0965E4A";
paths = (
{
closed = 1;
nodes = (
"532 -13 OFFCURVE",
"640 110 OFFCURVE",
"640 287 CURVE SMOOTH",
"640 349 OFFCURVE",
"623 403 OFFCURVE",
"591 441 CURVE",
"588 484 OFFCURVE",
"585 532 OFFCURVE",
"584 579 CURVE",
"727 582 OFFCURVE",
"862 580 OFFCURVE",
"940 571 CURVE",
"948 688 LINE",
"883 688 OFFCURVE",
"740 684 OFFCURVE",
"584 678 CURVE",
"584 819 LINE",
"468 819 LINE",
"468 673 LINE",
"290 665 OFFCURVE",
"117 656 OFFCURVE",
"46 651 CURVE",
"63 535 LINE",
"147 554 OFFCURVE",
"305 568 OFFCURVE",
"468 575 CURVE",
"469 549 OFFCURVE",
"471 526 OFFCURVE",
"474 504 CURVE",
"465 505 OFFCURVE",
"457 506 OFFCURVE",
"447 506 CURVE SMOOTH",
"345 506 OFFCURVE",
"270 430 OFFCURVE",
"274 331 CURVE SMOOTH",
"278 232 OFFCURVE",
"345 172 OFFCURVE",
"446 172 CURVE SMOOTH",
"468 172 OFFCURVE",
"490 177 OFFCURVE",
"510 188 CURVE",
"480 116 OFFCURVE",
"409 65 OFFCURVE",
"268 25 CURVE",
"303 -2 OFFCURVE",
"330 -46 OFFCURVE",
"346 -72 CURVE"
);
},
{
closed = 1;
nodes = (
"410 269 OFFCURVE",
"384 297 OFFCURVE",
"384 336 CURVE",
"383 374 OFFCURVE",
"412 401 OFFCURVE",
"449 401 CURVE SMOOTH",
"470 401 OFFCURVE",
"488 393 OFFCURVE",
"502 376 CURVE",
"505 361 OFFCURVE",
"507 347 OFFCURVE",
"507 335 CURVE SMOOTH",
"507 299 OFFCURVE",
"484 274 OFFCURVE",
"447 272 CURVE SMOOTH"
);
},
{
closed = 1;
nodes = (
"820 736 LINE",
"799 770 OFFCURVE",
"746 835 OFFCURVE",
"719 862 CURVE",
"663 820 LINE",
"695 789 OFFCURVE",
"738 735 OFFCURVE",
"761 692 CURVE"
);
},
{
closed = 1;
nodes = (
"957 753 LINE",
"936 787 OFFCURVE",
"885 849 OFFCURVE",
"858 875 CURVE",
"802 833 LINE",
"834 803 OFFCURVE",
"875 752 OFFCURVE",
"899 710 CURVE"
);
}
);
userData = {
com.schriftgestaltung.Glyphs.lastChange = "2020-03-22 07:45:29 +0000";
};
width = 1000;
}
);
unicode = 305A;
},
{
glyphname = "se-hira";
lastChange = "2021-05-17 22:56:00 +0000";
layers = (
{
layerId = master01;
paths = (
{
closed = 1;
nodes = (
"590 11 OFFCURVE",
"690 18 OFFCURVE",
"772 32 CURVE",
"772 46 OFFCURVE",
"777 82 OFFCURVE",
"784 101 CURVE",
"704 82 OFFCURVE",
"588 73 OFFCURVE",
"523 73 CURVE SMOOTH",
"405 73 OFFCURVE",
"369 89 OFFCURVE",
"369 172 CURVE SMOOTH",
"369 445 LINE",
"453 453 OFFCURVE",
"544 460 OFFCURVE",
"628 465 CURVE",
"628 394 LINE SMOOTH",
"628 338 OFFCURVE",
"599 315 OFFCURVE",
"489 312 CURVE",
"499 299 OFFCURVE",
"508 272 OFFCURVE",
"512 252 CURVE",
"648 264 OFFCURVE",
"691 303 OFFCURVE",
"691 394 CURVE SMOOTH",
"691 468 LINE",
"780 472 OFFCURVE",
"860 473 OFFCURVE",
"914 471 CURVE",
"914 536 LINE",
"860 537 OFFCURVE",
"781 534 OFFCURVE",
"691 529 CURVE",
"691 757 LINE",
"628 757 LINE",
"628 525 LINE",
"544 519 OFFCURVE",
"454 512 OFFCURVE",
"369 505 CURVE",
"369 726 LINE",
"307 726 LINE",
"307 499 LINE",
"210 489 OFFCURVE",
"124 480 OFFCURVE",
"66 471 CURVE",
"76 406 LINE",
"129 418 OFFCURVE",
"212 429 OFFCURVE",
"307 439 CURVE",
"307 167 LINE SMOOTH",
"307 46 OFFCURVE",
"361 11 OFFCURVE",
"522 11 CURVE SMOOTH"
);
}
);
width = 1000;
},
{
layerId = "34DF84D2-5107-44DD-934E-BD8E209466D9";
paths = (
{
closed = 1;
nodes = (
"588 22 OFFCURVE",
"686 27 OFFCURVE",
"769 41 CURVE",
"769 49 OFFCURVE",
"773 71 OFFCURVE",
"777 83 CURVE",
"696 64 OFFCURVE",
"586 57 OFFCURVE",
"527 57 CURVE SMOOTH",
"399 57 OFFCURVE",
"357 75 OFFCURVE",
"357 169 CURVE SMOOTH",
"357 452 LINE",
"448 461 OFFCURVE",
"548 469 OFFCURVE",
"639 474 CURVE",
"639 396 LINE SMOOTH",
"639 334 OFFCURVE",
"610 308 OFFCURVE",
"487 304 CURVE",
"491 296 OFFCURVE",
"497 280 OFFCURVE",
"500 269 CURVE",
"634 280 OFFCURVE",
"675 314 OFFCURVE",
"675 396 CURVE SMOOTH",
"675 476 LINE",
"767 480 OFFCURVE",
"848 482 OFFCURVE",
"904 480 CURVE",
"904 519 LINE",
"848 520 OFFCURVE",
"766 517 OFFCURVE",
"675 512 CURVE",
"675 748 LINE",
"639 748 LINE",
"639 509 LINE",
"548 504 OFFCURVE",
"449 496 OFFCURVE",
"357 487 CURVE",
"357 717 LINE",
"321 717 LINE",
"321 484 LINE",
"222 474 OFFCURVE",
"133 463 OFFCURVE",
"71 454 CURVE",
"80 416 LINE",
"135 427 OFFCURVE",
"222 438 OFFCURVE",
"321 448 CURVE",
"321 168 LINE SMOOTH",
"321 54 OFFCURVE",
"376 22 OFFCURVE",
"527 22 CURVE SMOOTH"
);
}
);
width = 1000;
},
{
layerId = "5617B79D-1A8B-4E71-B6B7-038AD2857106";
paths = (
{
closed = 1;
nodes = (
"591 1 OFFCURVE",
"694 8 OFFCURVE",
"776 22 CURVE",
"775 43 OFFCURVE",
"781 93 OFFCURVE",
"790 119 CURVE",
"712 99 OFFCURVE",
"589 89 OFFCURVE",
"519 89 CURVE SMOOTH",
"411 89 OFFCURVE",
"380 104 OFFCURVE",
"380 176 CURVE SMOOTH",
"380 439 LINE",
"458 446 OFFCURVE",
"539 452 OFFCURVE",
"617 456 CURVE",
"617 392 LINE SMOOTH",
"617 342 OFFCURVE",
"587 322 OFFCURVE",
"491 320 CURVE",
"506 301 OFFCURVE",
"519 263 OFFCURVE",
"524 236 CURVE",
"663 248 OFFCURVE",
"706 292 OFFCURVE",
"706 392 CURVE SMOOTH",
"706 461 LINE",
"794 464 OFFCURVE",
"871 464 OFFCURVE",
"924 461 CURVE",
"924 554 LINE",
"873 554 OFFCURVE",
"795 551 OFFCURVE",
"706 546 CURVE",
"706 766 LINE",
"617 766 LINE",
"617 540 LINE",
"540 535 OFFCURVE",
"458 529 OFFCURVE",
"380 522 CURVE",
"380 735 LINE",
"293 735 LINE",
"293 514 LINE",
"198 505 OFFCURVE",
"115 496 OFFCURVE",
"61 488 CURVE",
"72 397 LINE",
"123 408 OFFCURVE",
"202 420 OFFCURVE",
"293 430 CURVE",
"293 165 LINE SMOOTH",
"293 38 OFFCURVE",
"345 1 OFFCURVE",
"516 1 CURVE SMOOTH"
);
}
);
width = 1000;
},
{
layerId = "542E90B0-D43E-4A29-B40D-A2B642C3CEF5";
paths = (
{
closed = 1;
nodes = (
"595 -20 OFFCURVE",
"702 -12 OFFCURVE",
"783 3 CURVE",
"780 38 OFFCURVE",
"790 114 OFFCURVE",
"803 154 CURVE",
"728 134 OFFCURVE",
"592 120 OFFCURVE",
"512 120 CURVE SMOOTH",
"424 120 OFFCURVE",
"404 134 OFFCURVE",
"404 184 CURVE SMOOTH",
"404 425 LINE",
"467 431 OFFCURVE",
"532 436 OFFCURVE",
"595 439 CURVE",
"595 387 LINE SMOOTH",
"595 350 OFFCURVE",
"564 336 OFFCURVE",
"495 336 CURVE",
"521 305 OFFCURVE",
"541 247 OFFCURVE",
"548 204 CURVE",
"691 215 OFFCURVE",
"738 270 OFFCURVE",
"738 387 CURVE SMOOTH",
"738 445 LINE",
"821 447 OFFCURVE",
"893 446 OFFCURVE",
"944 442 CURVE",
"944 588 LINE",
"898 588 OFFCURVE",
"824 585 OFFCURVE",
"738 580 CURVE",
"738 784 LINE",
"595 784 LINE",
"595 571 LINE",
"532 567 OFFCURVE",
"467 562 OFFCURVE",
"404 557 CURVE",
"404 754 LINE",
"264 754 LINE",
"264 545 LINE",
"175 537 OFFCURVE",
"99 529 OFFCURVE",
"51 522 CURVE",
"63 378 LINE",
"112 390 OFFCURVE",
"182 401 OFFCURVE",
"264 411 CURVE",
"264 162 LINE SMOOTH",
"264 22 OFFCURVE",
"313 -20 OFFCURVE",
"505 -20 CURVE SMOOTH"
);
}
);
width = 1000;
},
{
layerId = "98035891-75EF-42AC-A061-1C72A0965E4A";
paths = (
{
closed = 1;
nodes = (
"593 -9 OFFCURVE",
"698 -2 OFFCURVE",
"779 12 CURVE",
"777 40 OFFCURVE",
"785 103 OFFCURVE",
"797 137 CURVE",
"720 117 OFFCURVE",
"590 105 OFFCURVE",
"516 105 CURVE SMOOTH",
"418 105 OFFCURVE",
"392 119 OFFCURVE",
"392 180 CURVE SMOOTH",
"392 432 LINE",
"462 438 OFFCURVE",
"536 444 OFFCURVE",
"606 448 CURVE",
"606 389 LINE SMOOTH",
"606 346 OFFCURVE",
"575 329 OFFCURVE",
"493 328 CURVE",
"513 303 OFFCURVE",
"530 255 OFFCURVE",
"536 220 CURVE",
"677 232 OFFCURVE",
"722 281 OFFCURVE",
"722 389 CURVE SMOOTH",
"722 453 LINE",
"807 456 OFFCURVE",
"882 455 OFFCURVE",
"934 451 CURVE",
"934 571 LINE",
"885 571 OFFCURVE",
"810 568 OFFCURVE",
"722 563 CURVE",
"722 775 LINE",
"606 775 LINE",
"606 556 LINE",
"536 551 OFFCURVE",
"463 545 OFFCURVE",
"392 539 CURVE",
"392 744 LINE",
"278 744 LINE",
"278 529 LINE",
"187 521 OFFCURVE",
"107 512 OFFCURVE",
"56 505 CURVE",
"67 387 LINE",
"117 399 OFFCURVE",
"192 410 OFFCURVE",
"278 420 CURVE",
"278 164 LINE SMOOTH",
"278 30 OFFCURVE",
"329 -9 OFFCURVE",
"511 -9 CURVE SMOOTH"
);
}
);
userData = {
com.schriftgestaltung.Glyphs.lastChange = "2020-03-22 07:45:29 +0000";
};
width = 1000;
}
);
unicode = 305B;
},
{
glyphname = "ze-hira";
lastChange = "2021-05-17 22:56:00 +0000";
layers = (
{
layerId = master01;
paths = (
{
closed = 1;
nodes = (
"585 11 OFFCURVE",
"685 18 OFFCURVE",
"768 32 CURVE",
"767 46 OFFCURVE",
"772 82 OFFCURVE",
"779 101 CURVE",
"699 82 OFFCURVE",
"583 73 OFFCURVE",
"518 73 CURVE SMOOTH",
"400 73 OFFCURVE",
"364 89 OFFCURVE",
"364 172 CURVE SMOOTH",
"364 445 LINE",
"448 453 OFFCURVE",
"539 460 OFFCURVE",
"623 465 CURVE",
"623 394 LINE SMOOTH",
"623 338 OFFCURVE",
"594 315 OFFCURVE",
"484 312 CURVE",
"494 299 OFFCURVE",
"503 272 OFFCURVE",
"507 252 CURVE",
"644 264 OFFCURVE",
"686 303 OFFCURVE",
"686 394 CURVE SMOOTH",
"686 468 LINE",
"776 472 OFFCURVE",
"855 473 OFFCURVE",
"909 471 CURVE",
"909 536 LINE",
"856 537 OFFCURVE",
"776 534 OFFCURVE",
"686 529 CURVE",
"686 757 LINE",
"623 757 LINE",
"623 525 LINE",
"539 519 OFFCURVE",
"449 512 OFFCURVE",
"364 505 CURVE",
"364 726 LINE",
"302 726 LINE",
"302 499 LINE",
"205 489 OFFCURVE",
"119 480 OFFCURVE",
"61 471 CURVE",
"71 406 LINE",
"124 418 OFFCURVE",
"207 429 OFFCURVE",
"302 439 CURVE",
"302 167 LINE SMOOTH",
"302 46 OFFCURVE",
"356 11 OFFCURVE",
"517 11 CURVE SMOOTH"
);
},
{
closed = 1;
nodes = (
"902 622 LINE",
"877 655 OFFCURVE",
"810 723 OFFCURVE",
"776 750 CURVE",
"742 722 LINE",
"780 693 OFFCURVE",
"838 633 OFFCURVE",
"866 593 CURVE"
);
},
{
closed = 1;
nodes = (
"979 696 LINE",
"953 728 OFFCURVE",
"884 794 OFFCURVE",
"850 820 CURVE",
"816 791 LINE",
"855 764 OFFCURVE",
"915 706 OFFCURVE",
"944 666 CURVE"
);
}
);
width = 1000;
},
{
layerId = "34DF84D2-5107-44DD-934E-BD8E209466D9";
paths = (
{
closed = 1;
nodes = (
"585 22 OFFCURVE",
"683 27 OFFCURVE",
"766 41 CURVE",
"766 49 OFFCURVE",
"770 71 OFFCURVE",
"774 83 CURVE",
"693 64 OFFCURVE",
"583 57 OFFCURVE",
"524 57 CURVE SMOOTH",
"396 57 OFFCURVE",
"353 75 OFFCURVE",
"353 169 CURVE SMOOTH",
"353 452 LINE",
"445 461 OFFCURVE",
"544 469 OFFCURVE",
"636 474 CURVE",
"636 396 LINE SMOOTH",
"636 334 OFFCURVE",
"607 308 OFFCURVE",
"484 304 CURVE",
"488 296 OFFCURVE",
"494 280 OFFCURVE",
"497 269 CURVE",
"631 280 OFFCURVE",
"672 314 OFFCURVE",
"672 396 CURVE SMOOTH",
"672 476 LINE",
"764 480 OFFCURVE",
"845 482 OFFCURVE",
"900 480 CURVE",
"901 519 LINE",
"844 520 OFFCURVE",
"763 517 OFFCURVE",
"672 512 CURVE",
"672 748 LINE",
"636 748 LINE",
"636 509 LINE",
"545 504 OFFCURVE",
"446 496 OFFCURVE",
"353 487 CURVE",
"353 717 LINE",
"318 717 LINE",
"318 484 LINE",
"219 474 OFFCURVE",
"129 463 OFFCURVE",
"68 454 CURVE",
"76 416 LINE",
"131 427 OFFCURVE",
"219 438 OFFCURVE",
"318 448 CURVE",
"318 168 LINE SMOOTH",
"318 54 OFFCURVE",
"373 22 OFFCURVE",
"524 22 CURVE SMOOTH"
);
},
{
closed = 1;
nodes = (
"900 609 LINE",
"874 643 OFFCURVE",
"802 712 OFFCURVE",
"765 739 CURVE",
"742 718 LINE",
"782 690 OFFCURVE",
"847 628 OFFCURVE",
"875 588 CURVE"
);
},
{
closed = 1;
nodes = (
"970 684 LINE",
"942 716 OFFCURVE",
"868 783 OFFCURVE",
"830 808 CURVE",
"808 786 LINE",
"849 760 OFFCURVE",
"916 700 OFFCURVE",
"946 662 CURVE"
);
}
);
width = 1000;
},
{
layerId = "5617B79D-1A8B-4E71-B6B7-038AD2857106";
paths = (
{
closed = 1;
nodes = (
"585 1 OFFCURVE",
"688 8 OFFCURVE",
"769 22 CURVE",
"768 43 OFFCURVE",
"775 93 OFFCURVE",
"784 119 CURVE",
"706 99 OFFCURVE",
"583 89 OFFCURVE",
"513 89 CURVE SMOOTH",
"405 89 OFFCURVE",
"374 104 OFFCURVE",
"374 176 CURVE SMOOTH",
"374 439 LINE",
"452 446 OFFCURVE",
"533 452 OFFCURVE",
"611 456 CURVE",
"611 392 LINE SMOOTH",
"611 342 OFFCURVE",
"581 322 OFFCURVE",
"484 320 CURVE",
"500 301 OFFCURVE",
"513 263 OFFCURVE",
"518 236 CURVE",
"656 248 OFFCURVE",
"700 292 OFFCURVE",
"700 392 CURVE SMOOTH",
"700 461 LINE",
"788 464 OFFCURVE",
"865 464 OFFCURVE",
"917 461 CURVE",
"918 554 LINE",
"867 554 OFFCURVE",
"789 551 OFFCURVE",
"700 546 CURVE",
"700 766 LINE",
"611 766 LINE",
"611 540 LINE",
"534 535 OFFCURVE",
"452 529 OFFCURVE",
"374 522 CURVE",
"374 735 LINE",
"286 735 LINE",
"286 514 LINE",
"192 505 OFFCURVE",
"109 496 OFFCURVE",
"55 488 CURVE",
"65 397 LINE",
"117 408 OFFCURVE",
"196 420 OFFCURVE",
"286 430 CURVE",
"286 165 LINE SMOOTH",
"286 38 OFFCURVE",
"338 1 OFFCURVE",
"510 1 CURVE SMOOTH"
);
},
{
closed = 1;
nodes = (
"904 634 LINE",
"880 667 OFFCURVE",
"819 734 OFFCURVE",
"788 760 CURVE",
"742 725 LINE",
"777 696 OFFCURVE",
"830 639 OFFCURVE",
"856 598 CURVE"
);
},
{
closed = 1;
nodes = (
"988 707 LINE",
"964 740 OFFCURVE",
"901 806 OFFCURVE",
"870 831 CURVE",
"825 796 LINE",
"861 768 OFFCURVE",
"915 712 OFFCURVE",
"941 671 CURVE"
);
}
);
width = 1000;
},
{
layerId = "542E90B0-D43E-4A29-B40D-A2B642C3CEF5";
paths = (
{
closed = 1;
nodes = (
"585 -20 OFFCURVE",
"692 -12 OFFCURVE",
"773 3 CURVE",
"771 38 OFFCURVE",
"780 114 OFFCURVE",
"794 154 CURVE",
"718 134 OFFCURVE",
"582 120 OFFCURVE",
"502 120 CURVE SMOOTH",
"414 120 OFFCURVE",
"395 134 OFFCURVE",
"395 184 CURVE SMOOTH",
"395 425 LINE",
"458 431 OFFCURVE",
"522 436 OFFCURVE",
"585 439 CURVE",
"585 387 LINE SMOOTH",
"585 350 OFFCURVE",
"554 336 OFFCURVE",
"485 336 CURVE",
"511 305 OFFCURVE",
"532 247 OFFCURVE",
"539 204 CURVE",
"681 215 OFFCURVE",
"729 270 OFFCURVE",
"729 387 CURVE SMOOTH",
"729 445 LINE",
"812 447 OFFCURVE",
"884 446 OFFCURVE",
"934 442 CURVE",
"934 588 LINE",
"888 588 OFFCURVE",
"815 585 OFFCURVE",
"729 580 CURVE",
"729 784 LINE",
"585 784 LINE",
"585 571 LINE",
"523 567 OFFCURVE",
"458 562 OFFCURVE",
"395 557 CURVE",
"395 754 LINE",
"255 754 LINE",
"255 545 LINE",
"166 537 OFFCURVE",
"89 529 OFFCURVE",
"41 522 CURVE",
"54 378 LINE",
"102 390 OFFCURVE",
"173 401 OFFCURVE",
"255 411 CURVE",
"255 162 LINE SMOOTH",
"255 22 OFFCURVE",
"304 -20 OFFCURVE",
"496 -20 CURVE SMOOTH"
);
},
{
closed = 1;
nodes = (
"907 658 LINE",
"887 691 OFFCURVE",
"836 756 OFFCURVE",
"810 781 CURVE",
"743 733 LINE",
"773 703 OFFCURVE",
"814 651 OFFCURVE",
"837 608 CURVE"
);
},
{
closed = 1;
nodes = (
"1006 731 LINE",
"986 764 OFFCURVE",
"935 829 OFFCURVE",
"910 854 CURVE",
"842 805 LINE",
"872 775 OFFCURVE",
"913 723 OFFCURVE",
"936 681 CURVE"
);
}
);
width = 1000;
},
{
layerId = "98035891-75EF-42AC-A061-1C72A0965E4A";
paths = (
{
closed = 1;
nodes = (
"585 -9 OFFCURVE",
"690 -2 OFFCURVE",
"771 12 CURVE",
"769 40 OFFCURVE",
"778 103 OFFCURVE",
"789 137 CURVE",
"712 117 OFFCURVE",
"583 105 OFFCURVE",
"508 105 CURVE SMOOTH",
"410 105 OFFCURVE",
"385 119 OFFCURVE",
"385 180 CURVE SMOOTH",
"385 432 LINE",
"455 438 OFFCURVE",
"528 444 OFFCURVE",
"598 448 CURVE",
"598 389 LINE SMOOTH",
"598 346 OFFCURVE",
"567 329 OFFCURVE",
"485 328 CURVE",
"505 303 OFFCURVE",
"522 255 OFFCURVE",
"528 220 CURVE",
"669 232 OFFCURVE",
"714 281 OFFCURVE",
"714 389 CURVE SMOOTH",
"714 453 LINE",
"800 456 OFFCURVE",
"874 455 OFFCURVE",
"926 451 CURVE",
"926 571 LINE",
"877 571 OFFCURVE",
"802 568 OFFCURVE",
"714 563 CURVE",
"714 775 LINE",
"598 775 LINE",
"598 556 LINE",
"528 551 OFFCURVE",
"455 545 OFFCURVE",
"385 539 CURVE",
"385 744 LINE",
"271 744 LINE",
"271 529 LINE",
"179 521 OFFCURVE",
"99 512 OFFCURVE",
"48 505 CURVE",
"60 387 LINE",
"110 399 OFFCURVE",
"184 410 OFFCURVE",
"271 420 CURVE",
"271 164 LINE SMOOTH",
"271 30 OFFCURVE",
"321 -9 OFFCURVE",
"503 -9 CURVE SMOOTH"
);
},
{
closed = 1;
nodes = (
"905 646 LINE",
"884 679 OFFCURVE",
"827 745 OFFCURVE",
"799 771 CURVE",
"743 729 LINE",
"775 700 OFFCURVE",
"822 645 OFFCURVE",
"847 603 CURVE"
);
},
{
closed = 1;
nodes = (
"997 719 LINE",
"975 752 OFFCURVE",
"918 817 OFFCURVE",
"890 842 CURVE",
"834 800 LINE",
"866 771 OFFCURVE",
"914 718 OFFCURVE",
"939 676 CURVE"
);
}
);
userData = {
com.schriftgestaltung.Glyphs.lastChange = "2020-03-22 07:45:29 +0000";
};
width = 1000;
}
);
unicode = 305C;
},
{
glyphname = "so-hira";
lastChange = "2021-05-17 22:56:00 +0000";
layers = (
{
layerId = master01;
paths = (
{
closed = 1;
nodes = (
"738 -6 OFFCURVE",
"749 27 OFFCURVE",
"760 44 CURVE",
"613 35 OFFCURVE",
"485 84 OFFCURVE",
"485 184 CURVE SMOOTH",
"485 309 OFFCURVE",
"582 403 OFFCURVE",
"719 427 CURVE SMOOTH",
"760 434 OFFCURVE",
"796 438 OFFCURVE",
"819 439 CURVE",
"808 504 LINE",
"737 490 OFFCURVE",
"542 442 OFFCURVE",
"384 403 CURVE",
"519 500 OFFCURVE",
"640 669 OFFCURVE",
"674 752 CURVE",
"620 786 LINE",
"566 763 OFFCURVE",
"385 734 OFFCURVE",
"291 734 CURVE",
"311 674 LINE",
"368 677 OFFCURVE",
"510 701 OFFCURVE",
"584 720 CURVE",
"518 591 OFFCURVE",
"347 398 OFFCURVE",
"231 368 CURVE SMOOTH",
"177 354 OFFCURVE",
"153 349 OFFCURVE",
"140 346 CURVE",
"168 285 LINE",
"236 314 OFFCURVE",
"393 359 OFFCURVE",
"536 392 CURVE",
"462 342 OFFCURVE",
"420 271 OFFCURVE",
"420 182 CURVE SMOOTH",
"420 53 OFFCURVE",
"557 -30 OFFCURVE",
"736 -23 CURVE"
);
}
);
width = 1000;
},
{
layerId = "34DF84D2-5107-44DD-934E-BD8E209466D9";
paths = (
{
closed = 1;
nodes = (
"728 2 OFFCURVE",
"735 22 OFFCURVE",
"741 31 CURVE",
"600 24 OFFCURVE",
"465 76 OFFCURVE",
"465 182 CURVE SMOOTH",
"465 306 OFFCURVE",
"558 413 OFFCURVE",
"705 442 CURVE SMOOTH",
"746 450 OFFCURVE",
"781 455 OFFCURVE",
"803 456 CURVE",
"795 494 LINE",
"718 479 OFFCURVE",
"508 425 OFFCURVE",
"349 383 CURVE",
"492 482 OFFCURVE",
"623 670 OFFCURVE",
"652 752 CURVE",
"622 770 LINE",
"572 750 OFFCURVE",
"394 718 OFFCURVE",
"302 718 CURVE",
"316 684 LINE",
"373 687 OFFCURVE",
"533 714 OFFCURVE",
"604 732 CURVE",
"541 595 OFFCURVE",
"366 388 OFFCURVE",
"241 354 CURVE SMOOTH",
"189 340 OFFCURVE",
"169 335 OFFCURVE",
"157 332 CURVE",
"177 296 LINE",
"248 326 OFFCURVE",
"416 375 OFFCURVE",
"564 410 CURVE",
"477 359 OFFCURVE",
"430 280 OFFCURVE",
"430 182 CURVE SMOOTH",
"430 66 OFFCURVE",
"562 -13 OFFCURVE",
"726 -8 CURVE"
);
}
);
width = 1000;
},
{
layerId = "5617B79D-1A8B-4E71-B6B7-038AD2857106";
paths = (
{
closed = 1;
nodes = (
"749 -14 OFFCURVE",
"762 32 OFFCURVE",
"778 56 CURVE",
"626 46 OFFCURVE",
"504 91 OFFCURVE",
"504 186 CURVE SMOOTH",
"504 311 OFFCURVE",
"606 393 OFFCURVE",
"732 412 CURVE SMOOTH",
"774 418 OFFCURVE",
"811 422 OFFCURVE",
"835 423 CURVE",
"820 513 LINE",
"757 501 OFFCURVE",
"576 459 OFFCURVE",
"419 424 CURVE",
"546 518 OFFCURVE",
"657 668 OFFCURVE",
"695 753 CURVE",
"618 802 LINE",
"559 776 OFFCURVE",
"375 750 OFFCURVE",
"279 749 CURVE",
"306 664 LINE",
"363 667 OFFCURVE",
"488 689 OFFCURVE",
"563 707 CURVE",
"494 588 OFFCURVE",
"328 407 OFFCURVE",
"220 381 CURVE SMOOTH",
"165 368 OFFCURVE",
"138 363 OFFCURVE",
"124 360 CURVE",
"159 273 LINE",
"224 303 OFFCURVE",
"369 343 OFFCURVE",
"508 373 CURVE",
"446 326 OFFCURVE",
"410 261 OFFCURVE",
"410 183 CURVE SMOOTH",
"410 40 OFFCURVE",
"553 -48 OFFCURVE",
"746 -39 CURVE"
);
}
);
width = 1000;
},
{
layerId = "542E90B0-D43E-4A29-B40D-A2B642C3CEF5";
paths = (
{
closed = 1;
nodes = (
"769 -30 OFFCURVE",
"790 41 OFFCURVE",
"816 82 CURVE",
"651 68 OFFCURVE",
"544 106 OFFCURVE",
"544 191 CURVE SMOOTH",
"544 316 OFFCURVE",
"654 373 OFFCURVE",
"759 383 CURVE SMOOTH",
"802 387 OFFCURVE",
"841 389 OFFCURVE",
"868 389 CURVE",
"845 532 LINE",
"796 522 OFFCURVE",
"644 494 OFFCURVE",
"488 464 CURVE",
"601 555 OFFCURVE",
"692 666 OFFCURVE",
"737 755 CURVE",
"613 834 LINE",
"547 803 OFFCURVE",
"356 781 OFFCURVE",
"255 781 CURVE",
"297 644 LINE",
"352 647 OFFCURVE",
"443 664 OFFCURVE",
"523 682 CURVE",
"446 580 OFFCURVE",
"291 427 OFFCURVE",
"199 408 CURVE SMOOTH",
"141 397 OFFCURVE",
"107 391 OFFCURVE",
"90 388 CURVE",
"142 250 LINE",
"201 280 OFFCURVE",
"323 311 OFFCURVE",
"453 336 CURVE",
"414 293 OFFCURVE",
"391 243 OFFCURVE",
"391 185 CURVE SMOOTH",
"391 13 OFFCURVE",
"543 -82 OFFCURVE",
"767 -71 CURVE"
);
}
);
width = 1000;
},
{
layerId = "98035891-75EF-42AC-A061-1C72A0965E4A";
paths = (
{
closed = 1;
nodes = (
"759 -22 OFFCURVE",
"776 36 OFFCURVE",
"797 69 CURVE",
"638 57 OFFCURVE",
"524 99 OFFCURVE",
"524 189 CURVE SMOOTH",
"524 313 OFFCURVE",
"630 383 OFFCURVE",
"746 397 CURVE",
"788 403 OFFCURVE",
"826 406 OFFCURVE",
"851 406 CURVE",
"832 522 LINE",
"776 512 OFFCURVE",
"610 476 OFFCURVE",
"453 444 CURVE",
"574 537 OFFCURVE",
"674 667 OFFCURVE",
"716 754 CURVE",
"616 818 LINE",
"553 790 OFFCURVE",
"366 765 OFFCURVE",
"267 765 CURVE",
"302 654 LINE",
"357 657 OFFCURVE",
"465 676 OFFCURVE",
"543 695 CURVE",
"470 584 OFFCURVE",
"310 417 OFFCURVE",
"209 395 CURVE SMOOTH",
"153 383 OFFCURVE",
"123 377 OFFCURVE",
"107 374 CURVE",
"151 262 LINE",
"212 291 OFFCURVE",
"346 327 OFFCURVE",
"480 355 CURVE",
"430 310 OFFCURVE",
"401 252 OFFCURVE",
"401 184 CURVE SMOOTH",
"401 27 OFFCURVE",
"548 -65 OFFCURVE",
"757 -55 CURVE"
);
}
);
userData = {
com.schriftgestaltung.Glyphs.lastChange = "2020-03-22 07:45:29 +0000";
};
width = 1000;
}
);
unicode = 305D;
},
{
glyphname = "zo-hira";
lastChange = "2021-05-17 22:56:00 +0000";
layers = (
{
layerId = master01;
paths = (
{
closed = 1;
nodes = (
"734 -6 OFFCURVE",
"745 27 OFFCURVE",
"756 44 CURVE",
"609 35 OFFCURVE",
"481 84 OFFCURVE",
"481 184 CURVE SMOOTH",
"481 309 OFFCURVE",
"578 403 OFFCURVE",
"715 427 CURVE SMOOTH",
"756 434 OFFCURVE",
"792 438 OFFCURVE",
"815 439 CURVE",
"804 504 LINE",
"733 490 OFFCURVE",
"538 442 OFFCURVE",
"380 403 CURVE",
"515 500 OFFCURVE",
"636 669 OFFCURVE",
"670 752 CURVE",
"616 786 LINE",
"562 763 OFFCURVE",
"381 734 OFFCURVE",
"287 734 CURVE",
"307 674 LINE",
"364 677 OFFCURVE",
"506 701 OFFCURVE",
"580 720 CURVE",
"514 591 OFFCURVE",
"343 398 OFFCURVE",
"227 368 CURVE SMOOTH",
"173 354 OFFCURVE",
"149 349 OFFCURVE",
"136 346 CURVE",
"164 285 LINE",
"232 314 OFFCURVE",
"389 359 OFFCURVE",
"532 392 CURVE",
"458 342 OFFCURVE",
"416 271 OFFCURVE",
"416 182 CURVE SMOOTH",
"416 53 OFFCURVE",
"553 -30 OFFCURVE",
"732 -23 CURVE"
);
},
{
closed = 1;
nodes = (
"876 608 LINE",
"850 641 OFFCURVE",
"782 708 OFFCURVE",
"747 734 CURVE",
"714 704 LINE",
"752 677 OFFCURVE",
"812 618 OFFCURVE",
"841 578 CURVE"
);
},
{
closed = 1;
nodes = (
"951 684 LINE",
"925 716 OFFCURVE",
"854 781 OFFCURVE",
"819 806 CURVE",
"787 776 LINE",
"826 749 OFFCURVE",
"887 692 OFFCURVE",
"917 653 CURVE"
);
}
);
width = 1000;
},
{
layerId = "34DF84D2-5107-44DD-934E-BD8E209466D9";
paths = (
{
closed = 1;
nodes = (
"725 2 OFFCURVE",
"732 22 OFFCURVE",
"738 31 CURVE",
"597 24 OFFCURVE",
"462 76 OFFCURVE",
"462 182 CURVE SMOOTH",
"462 306 OFFCURVE",
"555 413 OFFCURVE",
"702 442 CURVE SMOOTH",
"743 450 OFFCURVE",
"777 455 OFFCURVE",
"800 456 CURVE",
"792 495 LINE",
"715 479 OFFCURVE",
"505 425 OFFCURVE",
"346 383 CURVE",
"489 482 OFFCURVE",
"619 670 OFFCURVE",
"649 752 CURVE",
"619 770 LINE",
"569 750 OFFCURVE",
"391 718 OFFCURVE",
"299 718 CURVE",
"313 684 LINE",
"370 687 OFFCURVE",
"529 714 OFFCURVE",
"601 732 CURVE",
"538 595 OFFCURVE",
"363 388 OFFCURVE",
"238 354 CURVE SMOOTH",
"186 340 OFFCURVE",
"166 335 OFFCURVE",
"154 332 CURVE",
"174 296 LINE",
"245 326 OFFCURVE",
"413 375 OFFCURVE",
"561 410 CURVE",
"474 359 OFFCURVE",
"426 280 OFFCURVE",
"426 182 CURVE SMOOTH",
"426 66 OFFCURVE",
"559 -13 OFFCURVE",
"722 -8 CURVE"
);
},
{
closed = 1;
nodes = (
"865 601 LINE",
"839 634 OFFCURVE",
"766 703 OFFCURVE",
"730 730 CURVE",
"706 709 LINE",
"747 682 OFFCURVE",
"812 619 OFFCURVE",
"840 579 CURVE"
);
},
{
closed = 1;
nodes = (
"935 676 LINE",
"907 708 OFFCURVE",
"832 774 OFFCURVE",
"795 800 CURVE",
"772 778 LINE",
"813 752 OFFCURVE",
"881 692 OFFCURVE",
"911 653 CURVE"
);
}
);
width = 1000;
},
{
layerId = "5617B79D-1A8B-4E71-B6B7-038AD2857106";
paths = (
{
closed = 1;
nodes = (
"744 -14 OFFCURVE",
"757 32 OFFCURVE",
"774 56 CURVE",
"621 46 OFFCURVE",
"500 91 OFFCURVE",
"500 186 CURVE SMOOTH",
"500 311 OFFCURVE",
"601 393 OFFCURVE",
"728 412 CURVE SMOOTH",
"769 418 OFFCURVE",
"806 422 OFFCURVE",
"830 423 CURVE",
"815 513 LINE",
"752 501 OFFCURVE",
"571 459 OFFCURVE",
"414 424 CURVE",
"542 518 OFFCURVE",
"652 668 OFFCURVE",
"690 753 CURVE",
"613 802 LINE",
"555 776 OFFCURVE",
"371 750 OFFCURVE",
"274 749 CURVE",
"302 664 LINE",
"358 667 OFFCURVE",
"483 689 OFFCURVE",
"559 707 CURVE",
"489 588 OFFCURVE",
"324 407 OFFCURVE",
"215 381 CURVE SMOOTH",
"160 368 OFFCURVE",
"133 363 OFFCURVE",
"119 360 CURVE",
"155 273 LINE",
"219 303 OFFCURVE",
"365 343 OFFCURVE",
"504 373 CURVE",
"441 326 OFFCURVE",
"405 261 OFFCURVE",
"405 183 CURVE SMOOTH",
"405 40 OFFCURVE",
"548 -48 OFFCURVE",
"742 -39 CURVE"
);
},
{
closed = 1;
nodes = (
"886 615 LINE",
"861 647 OFFCURVE",
"797 712 OFFCURVE",
"765 737 CURVE",
"722 699 LINE",
"758 672 OFFCURVE",
"813 616 OFFCURVE",
"841 576 CURVE"
);
},
{
closed = 1;
nodes = (
"968 692 LINE",
"942 724 OFFCURVE",
"877 787 OFFCURVE",
"844 812 CURVE",
"801 774 LINE",
"838 747 OFFCURVE",
"894 693 OFFCURVE",
"923 653 CURVE"
);
}
);
width = 1000;
},
{
layerId = "542E90B0-D43E-4A29-B40D-A2B642C3CEF5";
paths = (
{
closed = 1;
nodes = (
"763 -30 OFFCURVE",
"783 41 OFFCURVE",
"809 82 CURVE",
"645 68 OFFCURVE",
"537 106 OFFCURVE",
"537 191 CURVE SMOOTH",
"537 316 OFFCURVE",
"648 373 OFFCURVE",
"753 383 CURVE SMOOTH",
"796 387 OFFCURVE",
"835 389 OFFCURVE",
"861 389 CURVE",
"838 532 LINE",
"790 522 OFFCURVE",
"637 494 OFFCURVE",
"482 464 CURVE",
"594 555 OFFCURVE",
"685 666 OFFCURVE",
"731 755 CURVE",
"607 834 LINE",
"540 803 OFFCURVE",
"350 781 OFFCURVE",
"248 781 CURVE",
"291 644 LINE",
"346 647 OFFCURVE",
"436 664 OFFCURVE",
"517 682 CURVE",
"440 580 OFFCURVE",
"284 427 OFFCURVE",
"193 408 CURVE",
"135 397 OFFCURVE",
"101 391 OFFCURVE",
"84 388 CURVE",
"135 250 LINE",
"194 280 OFFCURVE",
"316 311 OFFCURVE",
"446 336 CURVE",
"408 293 OFFCURVE",
"385 243 OFFCURVE",
"385 185 CURVE SMOOTH",
"385 13 OFFCURVE",
"537 -82 OFFCURVE",
"761 -71 CURVE"
);
},
{
closed = 1;
nodes = (
"907 628 LINE",
"884 660 OFFCURVE",
"828 720 OFFCURVE",
"801 743 CURVE",
"738 689 LINE",
"770 662 OFFCURVE",
"815 614 OFFCURVE",
"841 573 CURVE"
);
},
{
closed = 1;
nodes = (
"1000 709 LINE",
"977 740 OFFCURVE",
"921 801 OFFCURVE",
"894 824 CURVE",
"831 770 LINE",
"863 742 OFFCURVE",
"908 694 OFFCURVE",
"934 653 CURVE"
);
}
);
width = 1000;
},
{
layerId = "98035891-75EF-42AC-A061-1C72A0965E4A";
paths = (
{
closed = 1;
nodes = (
"753 -22 OFFCURVE",
"770 36 OFFCURVE",
"791 69 CURVE",
"633 57 OFFCURVE",
"519 99 OFFCURVE",
"519 189 CURVE SMOOTH",
"519 313 OFFCURVE",
"625 383 OFFCURVE",
"740 397 CURVE SMOOTH",
"783 403 OFFCURVE",
"821 406 OFFCURVE",
"846 406 CURVE",
"827 522 LINE",
"771 512 OFFCURVE",
"604 476 OFFCURVE",
"448 444 CURVE",
"568 537 OFFCURVE",
"669 667 OFFCURVE",
"710 754 CURVE",
"610 818 LINE",
"548 790 OFFCURVE",
"360 765 OFFCURVE",
"261 765 CURVE",
"296 654 LINE",
"352 657 OFFCURVE",
"460 676 OFFCURVE",
"538 695 CURVE",
"465 584 OFFCURVE",
"304 417 OFFCURVE",
"204 395 CURVE SMOOTH",
"148 383 OFFCURVE",
"117 377 OFFCURVE",
"102 374 CURVE",
"145 262 LINE",
"207 291 OFFCURVE",
"341 327 OFFCURVE",
"475 355 CURVE",
"424 310 OFFCURVE",
"395 252 OFFCURVE",
"395 184 CURVE SMOOTH",
"395 27 OFFCURVE",
"542 -65 OFFCURVE",
"751 -55 CURVE"
);
},
{
closed = 1;
nodes = (
"897 622 LINE",
"873 654 OFFCURVE",
"813 716 OFFCURVE",
"783 740 CURVE",
"730 694 LINE",
"764 667 OFFCURVE",
"814 615 OFFCURVE",
"841 575 CURVE"
);
},
{
closed = 1;
nodes = (
"984 700 LINE",
"960 732 OFFCURVE",
"899 794 OFFCURVE",
"869 818 CURVE",
"816 772 LINE",
"851 745 OFFCURVE",
"901 693 OFFCURVE",
"928 653 CURVE"
);
}
);
userData = {
com.schriftgestaltung.Glyphs.lastChange = "2020-03-22 07:45:29 +0000";
};
width = 1000;
}
);
unicode = 305E;
},
{
glyphname = "ta-hira";
lastChange = "2021-05-17 22:56:00 +0000";
layers = (
{
layerId = master01;
paths = (
{
closed = 1;
nodes = (
"239 94 OFFCURVE",
"327 345 OFFCURVE",
"385 555 CURVE",
"467 566 OFFCURVE",
"543 581 OFFCURVE",
"586 597 CURVE",
"572 658 LINE",
"531 642 OFFCURVE",
"469 627 OFFCURVE",
"402 617 CURVE",
"419 684 OFFCURVE",
"433 745 OFFCURVE",
"440 792 CURVE",
"372 801 LINE",
"367 750 OFFCURVE",
"354 683 OFFCURVE",
"335 608 CURVE",
"249 599 OFFCURVE",
"161 596 OFFCURVE",
"103 603 CURVE",
"105 538 LINE",
"156 535 OFFCURVE",
"236 538 OFFCURVE",
"319 547 CURVE",
"262 343 OFFCURVE",
"175 107 OFFCURVE",
"109 1 CURVE",
"126 -3 OFFCURVE",
"156 -15 OFFCURVE",
"172 -25 CURVE"
);
},
{
closed = 1;
nodes = (
"855 39 OFFCURVE",
"859 72 OFFCURVE",
"866 90 CURVE",
"666 54 OFFCURVE",
"514 87 OFFCURVE",
"455 172 CURVE",
"413 130 LINE",
"474 32 OFFCURVE",
"641 -10 OFFCURVE",
"856 22 CURVE"
);
},
{
closed = 1;
nodes = (
"851 448 LINE",
"767 471 OFFCURVE",
"600 485 OFFCURVE",
"513 480 CURVE",
"505 415 LINE",
"592 423 OFFCURVE",
"737 414 OFFCURVE",
"829 383 CURVE"
);
}
);
width = 1000;
},
{
layerId = "34DF84D2-5107-44DD-934E-BD8E209466D9";
paths = (
{
closed = 1;
nodes = (
"223 102 OFFCURVE",
"312 355 OFFCURVE",
"369 563 CURVE",
"453 574 OFFCURVE",
"532 589 OFFCURVE",
"577 607 CURVE",
"564 643 LINE",
"520 624 OFFCURVE",
"452 608 OFFCURVE",
"378 597 CURVE",
"398 672 OFFCURVE",
"413 739 OFFCURVE",
"420 790 CURVE",
"382 795 LINE",
"375 740 OFFCURVE",
"360 670 OFFCURVE",
"340 592 CURVE",
"256 582 OFFCURVE",
"169 580 OFFCURVE",
"109 587 CURVE",
"107 549 LINE",
"161 545 OFFCURVE",
"246 550 OFFCURVE",
"331 559 CURVE",
"275 352 OFFCURVE",
"187 109 OFFCURVE",
"122 1 CURVE",
"130 -2 OFFCURVE",
"149 -9 OFFCURVE",
"158 -14 CURVE"
);
},
{
closed = 1;
nodes = (
"845 44 OFFCURVE",
"847 63 OFFCURVE",
"850 73 CURVE",
"651 39 OFFCURVE",
"504 72 OFFCURVE",
"451 161 CURVE",
"418 143 LINE",
"475 42 OFFCURVE",
"630 4 OFFCURVE",
"845 35 CURVE"
);
},
{
closed = 1;
nodes = (
"832 436 LINE",
"752 460 OFFCURVE",
"592 473 OFFCURVE",
"508 467 CURVE",
"504 428 LINE",
"586 437 OFFCURVE",
"725 430 OFFCURVE",
"819 399 CURVE"
);
}
);
width = 1000;
},
{
layerId = "5617B79D-1A8B-4E71-B6B7-038AD2857106";
paths = (
{
closed = 1;
nodes = (
"254 86 OFFCURVE",
"342 336 OFFCURVE",
"401 546 CURVE",
"480 557 OFFCURVE",
"553 572 OFFCURVE",
"596 587 CURVE",
"579 674 LINE",
"542 659 OFFCURVE",
"487 647 OFFCURVE",
"426 637 CURVE",
"441 697 OFFCURVE",
"453 751 OFFCURVE",
"459 794 CURVE",
"363 808 LINE",
"359 760 OFFCURVE",
"347 696 OFFCURVE",
"330 624 CURVE",
"241 615 OFFCURVE",
"154 613 OFFCURVE",
"97 620 CURVE",
"104 527 LINE",
"151 524 OFFCURVE",
"227 527 OFFCURVE",
"306 535 CURVE",
"249 334 OFFCURVE",
"162 105 OFFCURVE",
"96 2 CURVE",
"121 -4 OFFCURVE",
"164 -22 OFFCURVE",
"186 -36 CURVE"
);
},
{
closed = 1;
nodes = (
"866 34 OFFCURVE",
"872 81 OFFCURVE",
"882 106 CURVE",
"681 70 OFFCURVE",
"523 103 OFFCURVE",
"460 182 CURVE",
"408 116 LINE",
"473 22 OFFCURVE",
"651 -25 OFFCURVE",
"867 9 CURVE"
);
},
{
closed = 1;
nodes = (
"869 459 LINE",
"782 481 OFFCURVE",
"609 497 OFFCURVE",
"517 493 CURVE",
"506 402 LINE",
"598 409 OFFCURVE",
"749 397 OFFCURVE",
"839 367 CURVE"
);
}
);
width = 1000;
},
{
layerId = "542E90B0-D43E-4A29-B40D-A2B642C3CEF5";
paths = (
{
closed = 1;
nodes = (
"284 69 OFFCURVE",
"372 317 OFFCURVE",
"434 530 CURVE",
"507 541 OFFCURVE",
"574 554 OFFCURVE",
"614 567 CURVE",
"595 704 LINE",
"564 694 OFFCURVE",
"521 684 OFFCURVE",
"473 676 CURVE",
"484 722 OFFCURVE",
"493 764 OFFCURVE",
"499 799 CURVE",
"344 820 LINE",
"343 779 OFFCURVE",
"334 722 OFFCURVE",
"319 657 CURVE",
"227 648 OFFCURVE",
"138 646 OFFCURVE",
"85 653 CURVE",
"101 506 LINE",
"141 502 OFFCURVE",
"208 505 OFFCURVE",
"281 512 CURVE",
"223 317 OFFCURVE",
"137 100 OFFCURVE",
"69 4 CURVE",
"112 -6 OFFCURVE",
"178 -35 OFFCURVE",
"214 -57 CURVE"
);
},
{
closed = 1;
nodes = (
"886 25 OFFCURVE",
"898 98 OFFCURVE",
"915 140 CURVE",
"712 100 OFFCURVE",
"542 134 OFFCURVE",
"468 202 CURVE",
"398 89 LINE",
"470 2 OFFCURVE",
"673 -53 OFFCURVE",
"889 -16 CURVE"
);
},
{
closed = 1;
nodes = (
"907 481 LINE",
"812 502 OFFCURVE",
"625 522 OFFCURVE",
"526 519 CURVE",
"507 376 LINE",
"610 381 OFFCURVE",
"772 363 OFFCURVE",
"858 334 CURVE"
);
}
);
width = 1000;
},
{
layerId = "98035891-75EF-42AC-A061-1C72A0965E4A";
paths = (
{
closed = 1;
nodes = (
"269 78 OFFCURVE",
"357 326 OFFCURVE",
"417 538 CURVE",
"494 549 OFFCURVE",
"564 563 OFFCURVE",
"605 577 CURVE",
"587 689 LINE",
"553 677 OFFCURVE",
"504 665 OFFCURVE",
"449 656 CURVE",
"462 710 OFFCURVE",
"473 758 OFFCURVE",
"479 797 CURVE",
"354 814 LINE",
"351 769 OFFCURVE",
"341 709 OFFCURVE",
"324 640 CURVE",
"234 632 OFFCURVE",
"146 630 OFFCURVE",
"91 636 CURVE",
"102 516 LINE",
"146 513 OFFCURVE",
"217 516 OFFCURVE",
"293 523 CURVE",
"236 325 OFFCURVE",
"150 102 OFFCURVE",
"82 3 CURVE",
"116 -5 OFFCURVE",
"171 -28 OFFCURVE",
"200 -46 CURVE"
);
},
{
closed = 1;
nodes = (
"876 30 OFFCURVE",
"885 90 OFFCURVE",
"898 123 CURVE",
"696 85 OFFCURVE",
"533 119 OFFCURVE",
"464 192 CURVE",
"403 102 LINE",
"472 12 OFFCURVE",
"662 -39 OFFCURVE",
"878 -4 CURVE"
);
},
{
closed = 1;
nodes = (
"888 470 LINE",
"797 492 OFFCURVE",
"617 510 OFFCURVE",
"521 506 CURVE",
"506 389 LINE",
"604 395 OFFCURVE",
"761 380 OFFCURVE",
"848 350 CURVE"
);
}
);
userData = {
com.schriftgestaltung.Glyphs.lastChange = "2020-03-22 07:45:29 +0000";
};
width = 1000;
}
);
unicode = 305F;
},
{
glyphname = "da-hira";
lastChange = "2021-05-17 22:56:00 +0000";
layers = (
{
layerId = master01;
paths = (
{
closed = 1;
nodes = (
"239 94 OFFCURVE",
"327 345 OFFCURVE",
"385 555 CURVE",
"467 566 OFFCURVE",
"543 581 OFFCURVE",
"586 597 CURVE",
"572 658 LINE",
"531 642 OFFCURVE",
"469 627 OFFCURVE",
"402 617 CURVE",
"419 684 OFFCURVE",
"433 745 OFFCURVE",
"440 792 CURVE",
"372 801 LINE",
"367 750 OFFCURVE",
"354 683 OFFCURVE",
"335 608 CURVE",
"249 599 OFFCURVE",
"161 596 OFFCURVE",
"103 603 CURVE",
"105 538 LINE",
"156 535 OFFCURVE",
"236 538 OFFCURVE",
"319 547 CURVE",
"262 343 OFFCURVE",
"175 107 OFFCURVE",
"109 1 CURVE",
"126 -3 OFFCURVE",
"156 -15 OFFCURVE",
"172 -25 CURVE"
);
},
{
closed = 1;
nodes = (
"855 39 OFFCURVE",
"859 72 OFFCURVE",
"866 90 CURVE",
"666 54 OFFCURVE",
"514 87 OFFCURVE",
"455 172 CURVE",
"413 130 LINE",
"474 32 OFFCURVE",
"641 -10 OFFCURVE",
"856 22 CURVE"
);
},
{
closed = 1;
nodes = (
"851 448 LINE",
"767 471 OFFCURVE",
"600 485 OFFCURVE",
"513 480 CURVE",
"505 415 LINE",
"592 423 OFFCURVE",
"737 414 OFFCURVE",
"829 383 CURVE"
);
},
{
closed = 1;
nodes = (
"847 614 LINE",
"820 645 OFFCURVE",
"749 709 OFFCURVE",
"713 733 CURVE",
"682 702 LINE",
"722 676 OFFCURVE",
"784 620 OFFCURVE",
"814 581 CURVE"
);
},
{
closed = 1;
nodes = (
"919 694 LINE",
"891 725 OFFCURVE",
"818 786 OFFCURVE",
"781 809 CURVE",
"751 777 LINE",
"791 753 OFFCURVE",
"855 698 OFFCURVE",
"887 661 CURVE"
);
}
);
width = 1000;
},
{
layerId = "34DF84D2-5107-44DD-934E-BD8E209466D9";
paths = (
{
closed = 1;
nodes = (
"223 102 OFFCURVE",
"312 355 OFFCURVE",
"369 563 CURVE",
"453 574 OFFCURVE",
"532 589 OFFCURVE",
"577 607 CURVE",
"564 643 LINE",
"520 624 OFFCURVE",
"452 608 OFFCURVE",
"378 597 CURVE",
"398 672 OFFCURVE",
"413 739 OFFCURVE",
"420 790 CURVE",
"382 795 LINE",
"375 740 OFFCURVE",
"360 670 OFFCURVE",
"340 592 CURVE",
"256 582 OFFCURVE",
"169 580 OFFCURVE",
"109 587 CURVE",
"107 549 LINE",
"161 545 OFFCURVE",
"246 550 OFFCURVE",
"331 559 CURVE",
"275 352 OFFCURVE",
"187 109 OFFCURVE",
"122 1 CURVE",
"130 -2 OFFCURVE",
"149 -9 OFFCURVE",
"158 -14 CURVE"
);
},
{
closed = 1;
nodes = (
"845 44 OFFCURVE",
"847 63 OFFCURVE",
"850 73 CURVE",
"651 39 OFFCURVE",
"504 72 OFFCURVE",
"451 161 CURVE",
"418 143 LINE",
"475 42 OFFCURVE",
"630 4 OFFCURVE",
"845 35 CURVE"
);
},
{
closed = 1;
nodes = (
"832 436 LINE",
"752 460 OFFCURVE",
"592 473 OFFCURVE",
"508 467 CURVE",
"504 428 LINE",
"586 437 OFFCURVE",
"725 430 OFFCURVE",
"819 399 CURVE"
);
},
{
closed = 1;
nodes = (
"841 604 LINE",
"813 637 OFFCURVE",
"739 704 OFFCURVE",
"701 730 CURVE",
"679 707 LINE",
"720 681 OFFCURVE",
"787 621 OFFCURVE",
"817 582 CURVE"
);
},
{
closed = 1;
nodes = (
"908 681 LINE",
"879 713 OFFCURVE",
"802 776 OFFCURVE",
"764 801 CURVE",
"742 778 LINE",
"784 753 OFFCURVE",
"853 696 OFFCURVE",
"885 658 CURVE"
);
}
);
width = 1000;
},
{
layerId = "5617B79D-1A8B-4E71-B6B7-038AD2857106";
paths = (
{
closed = 1;
nodes = (
"254 86 OFFCURVE",
"342 336 OFFCURVE",
"401 546 CURVE",
"480 557 OFFCURVE",
"553 572 OFFCURVE",
"596 587 CURVE",
"579 674 LINE",
"542 659 OFFCURVE",
"487 647 OFFCURVE",
"426 637 CURVE",
"441 697 OFFCURVE",
"453 751 OFFCURVE",
"459 794 CURVE",
"363 808 LINE",
"359 760 OFFCURVE",
"347 696 OFFCURVE",
"330 624 CURVE",
"241 615 OFFCURVE",
"154 613 OFFCURVE",
"97 620 CURVE",
"104 527 LINE",
"151 524 OFFCURVE",
"227 527 OFFCURVE",
"306 535 CURVE",
"249 334 OFFCURVE",
"162 105 OFFCURVE",
"96 2 CURVE",
"121 -4 OFFCURVE",
"164 -22 OFFCURVE",
"186 -36 CURVE"
);
},
{
closed = 1;
nodes = (
"866 34 OFFCURVE",
"872 81 OFFCURVE",
"882 106 CURVE",
"681 70 OFFCURVE",
"523 103 OFFCURVE",
"460 182 CURVE",
"408 116 LINE",
"473 22 OFFCURVE",
"651 -25 OFFCURVE",
"867 9 CURVE"
);
},
{
closed = 1;
nodes = (
"869 459 LINE",
"782 481 OFFCURVE",
"609 497 OFFCURVE",
"517 493 CURVE",
"506 402 LINE",
"598 409 OFFCURVE",
"749 397 OFFCURVE",
"839 367 CURVE"
);
},
{
closed = 1;
nodes = (
"854 623 LINE",
"827 654 OFFCURVE",
"759 714 OFFCURVE",
"725 737 CURVE",
"686 696 LINE",
"723 671 OFFCURVE",
"782 619 OFFCURVE",
"812 581 CURVE"
);
},
{
closed = 1;
nodes = (
"930 706 LINE",
"902 736 OFFCURVE",
"833 795 OFFCURVE",
"799 818 CURVE",
"759 776 LINE",
"798 752 OFFCURVE",
"857 701 OFFCURVE",
"888 663 CURVE"
);
}
);
width = 1000;
},
{
layerId = "542E90B0-D43E-4A29-B40D-A2B642C3CEF5";
paths = (
{
closed = 1;
nodes = (
"284 69 OFFCURVE",
"372 317 OFFCURVE",
"434 530 CURVE",
"507 541 OFFCURVE",
"574 554 OFFCURVE",
"614 567 CURVE",
"595 704 LINE",
"564 694 OFFCURVE",
"521 684 OFFCURVE",
"473 676 CURVE",
"484 722 OFFCURVE",
"493 764 OFFCURVE",
"499 799 CURVE",
"344 820 LINE",
"343 779 OFFCURVE",
"334 722 OFFCURVE",
"319 657 CURVE",
"227 648 OFFCURVE",
"138 646 OFFCURVE",
"85 653 CURVE",
"101 506 LINE",
"141 502 OFFCURVE",
"208 505 OFFCURVE",
"281 512 CURVE",
"223 317 OFFCURVE",
"137 100 OFFCURVE",
"69 4 CURVE",
"112 -6 OFFCURVE",
"178 -35 OFFCURVE",
"214 -57 CURVE"
);
},
{
closed = 1;
nodes = (
"886 25 OFFCURVE",
"898 98 OFFCURVE",
"915 140 CURVE",
"712 100 OFFCURVE",
"542 134 OFFCURVE",
"468 202 CURVE",
"398 89 LINE",
"470 2 OFFCURVE",
"673 -53 OFFCURVE",
"889 -16 CURVE"
);
},
{
closed = 1;
nodes = (
"907 481 LINE",
"812 502 OFFCURVE",
"625 522 OFFCURVE",
"526 519 CURVE",
"507 376 LINE",
"610 381 OFFCURVE",
"772 363 OFFCURVE",
"858 334 CURVE"
);
},
{
closed = 1;
nodes = (
"867 641 LINE",
"841 670 OFFCURVE",
"779 725 OFFCURVE",
"749 745 CURVE",
"692 685 LINE",
"727 661 OFFCURVE",
"777 617 OFFCURVE",
"807 580 CURVE"
);
},
{
closed = 1;
nodes = (
"951 731 LINE",
"926 760 OFFCURVE",
"864 814 OFFCURVE",
"834 834 CURVE",
"777 774 LINE",
"812 750 OFFCURVE",
"861 707 OFFCURVE",
"891 669 CURVE"
);
}
);
width = 1000;
},
{
layerId = "98035891-75EF-42AC-A061-1C72A0965E4A";
paths = (
{
closed = 1;
nodes = (
"269 78 OFFCURVE",
"357 326 OFFCURVE",
"417 538 CURVE",
"494 549 OFFCURVE",
"564 563 OFFCURVE",
"605 577 CURVE",
"587 689 LINE",
"553 677 OFFCURVE",
"504 665 OFFCURVE",
"449 656 CURVE",
"462 710 OFFCURVE",
"473 758 OFFCURVE",
"479 797 CURVE",
"354 814 LINE",
"351 769 OFFCURVE",
"341 709 OFFCURVE",
"324 640 CURVE",
"234 632 OFFCURVE",
"146 630 OFFCURVE",
"91 636 CURVE",
"102 516 LINE",
"146 513 OFFCURVE",
"217 516 OFFCURVE",
"293 523 CURVE",
"236 325 OFFCURVE",
"150 102 OFFCURVE",
"82 3 CURVE",
"116 -5 OFFCURVE",
"171 -28 OFFCURVE",
"200 -46 CURVE"
);
},
{
closed = 1;
nodes = (
"876 30 OFFCURVE",
"885 90 OFFCURVE",
"898 123 CURVE",
"696 85 OFFCURVE",
"533 119 OFFCURVE",
"464 192 CURVE",
"403 102 LINE",
"472 12 OFFCURVE",
"662 -39 OFFCURVE",
"878 -4 CURVE"
);
},
{
closed = 1;
nodes = (
"888 470 LINE",
"797 492 OFFCURVE",
"617 510 OFFCURVE",
"521 506 CURVE",
"506 389 LINE",
"604 395 OFFCURVE",
"761 380 OFFCURVE",
"848 350 CURVE"
);
},
{
closed = 1;
nodes = (
"860 632 LINE",
"834 662 OFFCURVE",
"769 720 OFFCURVE",
"737 741 CURVE",
"689 690 LINE",
"725 666 OFFCURVE",
"779 618 OFFCURVE",
"809 580 CURVE"
);
},
{
closed = 1;
nodes = (
"941 718 LINE",
"914 748 OFFCURVE",
"848 805 OFFCURVE",
"816 826 CURVE",
"768 775 LINE",
"805 751 OFFCURVE",
"859 704 OFFCURVE",
"890 666 CURVE"
);
}
);
userData = {
com.schriftgestaltung.Glyphs.lastChange = "2020-03-22 07:45:29 +0000";
};
width = 1000;
}
);
unicode = 3060;
},
